SplineFontDB: 3.2
FontName: eufont-book
FullName: Eufont Book
FamilyName: eufont
Weight: Book
Copyright: Copyright 2018 All rights reserved.
Version: 1.002
ItalicAngle: 0
UnderlinePosition: -131
UnderlineWidth: 63
Ascent: 800
Descent: 200
InvalidEm: 0
sfntRevision: 0x00010083
LayerCount: 2
Layer: 0 1 "Back" 1
Layer: 1 1 "Fore" 0
XUID: [1021 992 510959400 4735162]
StyleMap: 0x0040
FSType: 0
OS2Version: 4
OS2_WeightWidthSlopeOnly: 0
OS2_UseTypoMetrics: 1
CreationTime: 1524074444
ModificationTime: 1630582955
PfmFamily: 17
TTFWeight: 400
TTFWidth: 5
LineGap: 0
VLineGap: 0
Panose: 2 11 5 2 2 2 3 2 2 4
OS2TypoAscent: 1009
OS2TypoAOffset: 0
OS2TypoDescent: -293
OS2TypoDOffset: 0
OS2TypoLinegap: 0
OS2WinAscent: 1009
OS2WinAOffset: 0
OS2WinDescent: 293
OS2WinDOffset: 0
HheadAscent: 1009
HheadAOffset: 0
HheadDescent: -293
HheadDOffset: 0
OS2SubXSize: 700
OS2SubYSize: 650
OS2SubXOff: 0
OS2SubYOff: 120
OS2SupXSize: 700
OS2SupYSize: 650
OS2SupXOff: 0
OS2SupYOff: 430
OS2StrikeYSize: 65
OS2StrikeYPos: 291
OS2CapHeight: 710
OS2XHeight: 516
OS2FamilyClass: 2052
OS2Vendor: 'DAMA'
OS2CodePages: 00000002.00000000
OS2UnicodeRanges: a100006f.0000004b.00000028.00000000
Lookup: 1 0 0 "'aalt' Access All Alternates in Latin lookup 0" { "'aalt' Access All Alternates in Latin lookup 0 subtable"  } ['aalt' ('DFLT' <'dflt' > 'latn' <'CAT ' 'NLD ' 'dflt' > ) ]
Lookup: 3 0 0 "'aalt' Access All Alternates in Latin lookup 1" { "'aalt' Access All Alternates in Latin lookup 1 subtable"  } ['aalt' ('DFLT' <'dflt' > 'latn' <'CAT ' 'NLD ' 'dflt' > ) ]
Lookup: 6 0 0 "'locl' Localized Forms in Latin lookup 2" { "'locl' Localized Forms in Latin lookup 2 contextual 0"  "'locl' Localized Forms in Latin lookup 2 contextual 1"  } ['locl' ('latn' <'CAT ' > ) ]
Lookup: 1 0 0 "Single Substitution lookup 3" { "Single Substitution lookup 3 subtable"  } []
Lookup: 1 0 0 "Single Substitution lookup 4" { "Single Substitution lookup 4 subtable"  } []

StartChar: .notdef
Encoding: 65536 -1 0
Width: 500
Flags: W
LayerCount: 2
Fore
SplineSet
450 0 m 1,0,-1
 50 0 l 1,1,-1
 50 750 l 1,2,-1
 450 750 l 1,3,-1
 450 0 l 1,0,-1
100 50 m 1,4,-1
 400 50 l 1,5,-1
 400 700 l 1,6,-1
 100 700 l 1,7,-1
 100 50 l 1,4,-1
EndSplineSet
Validated: 1
EndChar

StartChar: period
Encoding: 46 46 4
Width: 233
GlyphClass: 2
Flags: W
LayerCount: 2
Fore
SplineSet
116 -3 m 256,0,1
 100 -3 100 -3 86.5 5 c 128,-1,2
 73 13 73 13 65 26.5 c 128,-1,3
 57 40 57 40 57 57 c 256,4,5
 57 74 57 74 65 87.5 c 128,-1,6
 73 101 73 101 86.5 109 c 128,-1,7
 100 117 100 117 116 117 c 256,8,9
 132 117 132 117 145.5 109 c 128,-1,10
 159 101 159 101 167.5 87.5 c 128,-1,11
 176 74 176 74 176 57 c 256,12,13
 176 40 176 40 167.5 26.5 c 128,-1,14
 159 13 159 13 145.5 5 c 128,-1,15
 132 -3 132 -3 116 -3 c 256,0,1
EndSplineSet
Validated: 1
EndChar

StartChar: comma
Encoding: 44 44 6
Width: 233
GlyphClass: 2
Flags: W
LayerCount: 2
Fore
SplineSet
74 -180 m 1,0,-1
 52 -131 l 1,1,2
 92 -112 92 -112 115.5 -81 c 128,-1,3
 139 -50 139 -50 139 -13 c 0,4,5
 139 9 139 9 131 26 c 1,6,7
 120 14 120 14 102 14 c 0,8,9
 82 14 82 14 67.5 29 c 128,-1,10
 53 44 53 44 53 65 c 0,11,12
 53 79 53 79 61 91 c 128,-1,13
 69 103 69 103 82 110 c 128,-1,14
 95 117 95 117 111 117 c 0,15,16
 136 117 136 117 156 100.5 c 128,-1,17
 176 84 176 84 188 56.5 c 128,-1,18
 200 29 200 29 200 -5 c 0,19,20
 200 -43 200 -43 185 -76.5 c 128,-1,21
 170 -110 170 -110 141.5 -137 c 128,-1,22
 113 -164 113 -164 74 -180 c 1,0,-1
EndSplineSet
Validated: 1
EndChar

StartChar: question
Encoding: 63 63 8
Width: 503
GlyphClass: 2
Flags: W
LayerCount: 2
Fore
SplineSet
197 189 m 1,0,-1
 197 345 l 1,1,2
 285 366 285 366 332 411 c 128,-1,3
 379 456 379 456 379 518 c 0,4,5
 379 556 379 556 361.5 586.5 c 128,-1,6
 344 617 344 617 313 634 c 128,-1,7
 282 651 282 651 242 651 c 0,8,9
 207 651 207 651 177 637.5 c 128,-1,10
 147 624 147 624 125.5 598 c 128,-1,11
 104 572 104 572 94 537 c 1,12,-1
 20 558 l 1,13,14
 33 608 33 608 64.5 646 c 128,-1,15
 96 684 96 684 142 704.5 c 128,-1,16
 188 725 188 725 243 725 c 0,17,18
 291 725 291 725 331.5 709.5 c 128,-1,19
 372 694 372 694 402 666.5 c 128,-1,20
 432 639 432 639 448.5 602 c 128,-1,21
 465 565 465 565 465 522 c 0,22,23
 465 470 465 470 442 425.5 c 128,-1,24
 419 381 419 381 376 348 c 128,-1,25
 333 315 333 315 275 297 c 1,26,-1
 275 189 l 1,27,-1
 197 189 l 1,0,-1
236 -3 m 256,28,29
 220 -3 220 -3 207 5 c 128,-1,30
 194 13 194 13 186 26.5 c 128,-1,31
 178 40 178 40 178 55 c 256,32,33
 178 70 178 70 186 83.5 c 128,-1,34
 194 97 194 97 207 105 c 128,-1,35
 220 113 220 113 236 113 c 256,36,37
 252 113 252 113 265 105 c 128,-1,38
 278 97 278 97 286 83.5 c 128,-1,39
 294 70 294 70 294 55 c 256,40,41
 294 40 294 40 286 26.5 c 128,-1,42
 278 13 278 13 265 5 c 128,-1,43
 252 -3 252 -3 236 -3 c 256,28,29
EndSplineSet
Validated: 1
EndChar

StartChar: exclam
Encoding: 33 33 9
Width: 232
GlyphClass: 2
Flags: W
LayerCount: 2
Fore
SplineSet
77 189 m 1,0,-1
 73 710 l 1,1,-1
 159 710 l 1,2,-1
 155 189 l 1,3,-1
 77 189 l 1,0,-1
116 -3 m 256,4,5
 100 -3 100 -3 87 5 c 128,-1,6
 74 13 74 13 66 26.5 c 128,-1,7
 58 40 58 40 58 55 c 256,8,9
 58 70 58 70 66 83.5 c 128,-1,10
 74 97 74 97 87 105 c 128,-1,11
 100 113 100 113 116 113 c 256,12,13
 132 113 132 113 145 105 c 128,-1,14
 158 97 158 97 166 83.5 c 128,-1,15
 174 70 174 70 174 55 c 256,16,17
 174 40 174 40 166 26.5 c 128,-1,18
 158 13 158 13 145 5 c 128,-1,19
 132 -3 132 -3 116 -3 c 256,4,5
EndSplineSet
Validated: 1
EndChar

StartChar: questiondown
Encoding: 191 191 10
Width: 474
GlyphClass: 2
Flags: W
LayerCount: 2
Fore
SplineSet
258 403 m 256,0,1
 242 403 242 403 229 411 c 128,-1,2
 216 419 216 419 208 432.5 c 128,-1,3
 200 446 200 446 200 461 c 256,4,5
 200 476 200 476 208 489.5 c 128,-1,6
 216 503 216 503 229 511 c 128,-1,7
 242 519 242 519 258 519 c 256,8,9
 274 519 274 519 287 511 c 128,-1,10
 300 503 300 503 308 489.5 c 128,-1,11
 316 476 316 476 316 461 c 256,12,13
 316 446 316 446 308 432.5 c 128,-1,14
 300 419 300 419 287 411 c 128,-1,15
 274 403 274 403 258 403 c 256,0,1
251 -209 m 0,16,17
 203 -209 203 -209 162.5 -193.5 c 128,-1,18
 122 -178 122 -178 92 -150.5 c 128,-1,19
 62 -123 62 -123 45.5 -86 c 128,-1,20
 29 -49 29 -49 29 -6 c 0,21,22
 29 46 29 46 52 90.5 c 128,-1,23
 75 135 75 135 118 168 c 128,-1,24
 161 201 161 201 219 219 c 1,25,-1
 219 327 l 1,26,-1
 297 327 l 1,27,-1
 297 171 l 1,28,29
 209 150 209 150 162 105 c 128,-1,30
 115 60 115 60 115 -2 c 0,31,32
 115 -40 115 -40 132.5 -70.5 c 128,-1,33
 150 -101 150 -101 181 -118 c 128,-1,34
 212 -135 212 -135 252 -135 c 0,35,36
 287 -135 287 -135 317 -121.5 c 128,-1,37
 347 -108 347 -108 368.5 -82 c 128,-1,38
 390 -56 390 -56 400 -21 c 1,39,-1
 474 -42 l 1,40,41
 461 -92 461 -92 429.5 -130 c 128,-1,42
 398 -168 398 -168 352 -188.5 c 128,-1,43
 306 -209 306 -209 251 -209 c 0,16,17
EndSplineSet
Validated: 1
Substitution2: "'case' Case-Sensitive Forms in Latin lookup 20 subtable" questiondown.aalt
Substitution2: "'aalt' Access All Alternates in Latin lookup 0 subtable" questiondown.aalt
EndChar

StartChar: exclamdown
Encoding: 161 161 11
Width: 232
GlyphClass: 2
Flags: W
LayerCount: 2
Fore
SplineSet
116 403 m 256,0,1
 100 403 100 403 87 411 c 128,-1,2
 74 419 74 419 66 432.5 c 128,-1,3
 58 446 58 446 58 461 c 256,4,5
 58 476 58 476 66 489.5 c 128,-1,6
 74 503 74 503 87 511 c 128,-1,7
 100 519 100 519 116 519 c 256,8,9
 132 519 132 519 145 511 c 128,-1,10
 158 503 158 503 166 489.5 c 128,-1,11
 174 476 174 476 174 461 c 256,12,13
 174 446 174 446 166 432.5 c 128,-1,14
 158 419 158 419 145 411 c 128,-1,15
 132 403 132 403 116 403 c 256,0,1
73 -194 m 1,16,-1
 77 327 l 1,17,-1
 155 327 l 1,18,-1
 159 -194 l 1,19,-1
 73 -194 l 1,16,-1
EndSplineSet
Validated: 1
Substitution2: "'case' Case-Sensitive Forms in Latin lookup 20 subtable" exclamdown.aalt
Substitution2: "'aalt' Access All Alternates in Latin lookup 0 subtable" exclamdown.aalt
EndChar

StartChar: quotesingle
Encoding: 39 39 12
Width: 191
GlyphClass: 2
Flags: W
LayerCount: 2
Fore
SplineSet
62 451 m 1,0,-1
 59 710 l 1,1,-1
 132 710 l 1,2,-1
 129 451 l 1,3,-1
 62 451 l 1,0,-1
EndSplineSet
Validated: 1
EndChar

StartChar: zero.aalt
Encoding: 65537 -1 38
Width: 594
GlyphClass: 2
Flags: W
LayerCount: 2
Fore
SplineSet
296 -15 m 256,0,1
 218 -15 218 -15 161.5 28.5 c 128,-1,2
 105 72 105 72 74.5 153 c 128,-1,3
 44 234 44 234 44 345 c 256,4,5
 44 456 44 456 75 537 c 128,-1,6
 106 618 106 618 163 661.5 c 128,-1,7
 220 705 220 705 298 705 c 256,8,9
 376 705 376 705 432.5 661.5 c 128,-1,10
 489 618 489 618 519.5 537 c 128,-1,11
 550 456 550 456 550 345 c 256,12,13
 550 234 550 234 519 153 c 128,-1,14
 488 72 488 72 431 28.5 c 128,-1,15
 374 -15 374 -15 296 -15 c 256,0,1
297 60 m 256,16,17
 351 60 351 60 388.5 93.5 c 128,-1,18
 426 127 426 127 446 191 c 128,-1,19
 466 255 466 255 466 345 c 0,20,21
 466 436 466 436 446 499.5 c 128,-1,22
 426 563 426 563 388.5 596.5 c 128,-1,23
 351 630 351 630 297 630 c 256,24,25
 243 630 243 630 205.5 596.5 c 128,-1,26
 168 563 168 563 148 499.5 c 128,-1,27
 128 436 128 436 128 345 c 0,28,29
 128 255 128 255 148 191 c 128,-1,30
 168 127 168 127 205.5 93.5 c 128,-1,31
 243 60 243 60 297 60 c 256,16,17
EndSplineSet
Validated: 1
Substitution2: "'pnum' Proportional Numbers in Latin lookup 21 subtable" zero
Substitution2: "'aalt' Access All Alternates in Latin lookup 0 subtable" zero
EndChar

StartChar: one.aalt
Encoding: 65538 -1 39
Width: 594
GlyphClass: 2
Flags: W
LayerCount: 2
Fore
SplineSet
303 0 m 1,0,-1
 303 599 l 1,1,-1
 139 507 l 1,2,-1
 106 573 l 1,3,-1
 318 690 l 1,4,-1
 385 690 l 1,5,-1
 385 0 l 1,6,-1
 303 0 l 1,0,-1
EndSplineSet
Validated: 1
Substitution2: "'pnum' Proportional Numbers in Latin lookup 21 subtable" one
Substitution2: "'aalt' Access All Alternates in Latin lookup 0 subtable" one
EndChar

StartChar: two.aalt
Encoding: 65539 -1 40
Width: 594
GlyphClass: 2
Flags: W
LayerCount: 2
Fore
SplineSet
67 0 m 1,0,-1
 67 68 l 1,1,2
 135 124 135 124 194.5 177.5 c 128,-1,3
 254 231 254 231 299 277 c 0,4,5
 346 325 346 325 373.5 361 c 128,-1,6
 401 397 401 397 413 427.5 c 128,-1,7
 425 458 425 458 425 490 c 0,8,9
 425 532 425 532 408 563.5 c 128,-1,10
 391 595 391 595 361.5 612.5 c 128,-1,11
 332 630 332 630 292 630 c 0,12,13
 238 630 238 630 199 597 c 128,-1,14
 160 564 160 564 143 505 c 1,15,-1
 67 524 l 1,16,17
 80 579 80 579 113 619.5 c 128,-1,18
 146 660 146 660 192.5 682.5 c 128,-1,19
 239 705 239 705 294 705 c 0,20,21
 340 705 340 705 379 689.5 c 128,-1,22
 418 674 418 674 447 646 c 128,-1,23
 476 618 476 618 492.5 580 c 128,-1,24
 509 542 509 542 509 498 c 0,25,26
 509 434 509 434 471.5 368.5 c 128,-1,27
 434 303 434 303 353 224 c 0,28,29
 334 206 334 206 307.5 182 c 128,-1,30
 281 158 281 158 250.5 131 c 128,-1,31
 220 104 220 104 188 77 c 1,32,-1
 521 77 l 1,33,-1
 521 0 l 1,34,-1
 67 0 l 1,0,-1
EndSplineSet
Validated: 1
Substitution2: "'pnum' Proportional Numbers in Latin lookup 21 subtable" two
Substitution2: "'aalt' Access All Alternates in Latin lookup 0 subtable" two
EndChar

StartChar: three.aalt
Encoding: 65540 -1 41
Width: 594
GlyphClass: 2
Flags: W
LayerCount: 2
Fore
SplineSet
292 -15 m 0,0,1
 234 -15 234 -15 185.5 5 c 128,-1,2
 137 25 137 25 102.5 64 c 128,-1,3
 68 103 68 103 52 159 c 1,4,-1
 129 177 l 1,5,6
 148 121 148 121 190 90.5 c 128,-1,7
 232 60 232 60 290 60 c 0,8,9
 334 60 334 60 369 77 c 128,-1,10
 404 94 404 94 424 124 c 128,-1,11
 444 154 444 154 444 192 c 0,12,13
 444 232 444 232 424.5 261 c 128,-1,14
 405 290 405 290 369.5 306 c 128,-1,15
 334 322 334 322 286 322 c 2,16,-1
 211 322 l 1,17,-1
 211 397 l 1,18,-1
 283 397 l 2,19,20
 328 397 328 397 360.5 412 c 128,-1,21
 393 427 393 427 411 454.5 c 128,-1,22
 429 482 429 482 429 518 c 0,23,24
 429 551 429 551 411.5 576.5 c 128,-1,25
 394 602 394 602 364 616 c 128,-1,26
 334 630 334 630 294 630 c 0,27,28
 239 630 239 630 199.5 600.5 c 128,-1,29
 160 571 160 571 143 518 c 1,30,-1
 67 536 l 1,31,32
 80 588 80 588 112.5 625.5 c 128,-1,33
 145 663 145 663 193 684 c 128,-1,34
 241 705 241 705 298 705 c 0,35,36
 344 705 344 705 383.5 691.5 c 128,-1,37
 423 678 423 678 452 653.5 c 128,-1,38
 481 629 481 629 497 595.5 c 128,-1,39
 513 562 513 562 513 522 c 0,40,41
 513 468 513 468 486 427 c 128,-1,42
 459 386 459 386 408 363 c 1,43,44
 464 343 464 343 496 298 c 128,-1,45
 528 253 528 253 528 191 c 0,46,47
 528 148 528 148 510 110.5 c 128,-1,48
 492 73 492 73 460 44.5 c 128,-1,49
 428 16 428 16 385 0.5 c 128,-1,50
 342 -15 342 -15 292 -15 c 0,0,1
EndSplineSet
Validated: 1
Substitution2: "'pnum' Proportional Numbers in Latin lookup 21 subtable" three
Substitution2: "'aalt' Access All Alternates in Latin lookup 0 subtable" three
EndChar

StartChar: four.aalt
Encoding: 65541 -1 42
Width: 594
GlyphClass: 2
Flags: W
LayerCount: 2
Fore
SplineSet
376 0 m 1,0,-1
 376 163 l 1,1,-1
 45 163 l 1,2,-1
 45 227 l 1,3,-1
 373 690 l 1,4,-1
 455 690 l 1,5,-1
 455 233 l 1,6,-1
 544 233 l 1,7,-1
 544 163 l 1,8,-1
 455 163 l 1,9,-1
 455 0 l 1,10,-1
 376 0 l 1,0,-1
133 233 m 1,11,-1
 376 233 l 1,12,-1
 376 576 l 1,13,-1
 133 233 l 1,11,-1
EndSplineSet
Validated: 1
Substitution2: "'pnum' Proportional Numbers in Latin lookup 21 subtable" four
Substitution2: "'aalt' Access All Alternates in Latin lookup 0 subtable" four
EndChar

StartChar: five.aalt
Encoding: 65542 -1 43
Width: 594
GlyphClass: 2
Flags: W
LayerCount: 2
Fore
SplineSet
302 -15 m 0,0,1
 245 -15 245 -15 196.5 6.5 c 128,-1,2
 148 28 148 28 113.5 67 c 128,-1,3
 79 106 79 106 63 160 c 1,4,-1
 140 178 l 1,5,6
 152 141 152 141 176 114.5 c 128,-1,7
 200 88 200 88 232 74 c 128,-1,8
 264 60 264 60 302 60 c 0,9,10
 346 60 346 60 380 80 c 128,-1,11
 414 100 414 100 434 135 c 128,-1,12
 454 170 454 170 454 214 c 256,13,14
 454 258 454 258 434.5 292 c 128,-1,15
 415 326 415 326 380.5 345.5 c 128,-1,16
 346 365 346 365 301 365 c 0,17,18
 278 365 278 365 253.5 358 c 128,-1,19
 229 351 229 351 207.5 338.5 c 128,-1,20
 186 326 186 326 171 310 c 1,21,-1
 104 319 l 1,22,-1
 104 690 l 1,23,-1
 488 690 l 1,24,-1
 488 613 l 1,25,-1
 181 613 l 1,26,-1
 181 392 l 1,27,28
 232 440 232 440 315 440 c 0,29,30
 363 440 363 440 403.5 423 c 128,-1,31
 444 406 444 406 474.5 375.5 c 128,-1,32
 505 345 505 345 521.5 303.5 c 128,-1,33
 538 262 538 262 538 214 c 0,34,35
 538 165 538 165 520 123.5 c 128,-1,36
 502 82 502 82 469.5 51 c 128,-1,37
 437 20 437 20 394.5 2.5 c 128,-1,38
 352 -15 352 -15 302 -15 c 0,0,1
EndSplineSet
Validated: 1
Substitution2: "'pnum' Proportional Numbers in Latin lookup 21 subtable" five
Substitution2: "'aalt' Access All Alternates in Latin lookup 0 subtable" five
EndChar

StartChar: six.aalt
Encoding: 65543 -1 44
Width: 594
GlyphClass: 2
Flags: W
LayerCount: 2
Fore
SplineSet
306 -15 m 0,0,1
 249 -15 249 -15 202 8.5 c 128,-1,2
 155 32 155 32 121 75.5 c 128,-1,3
 87 119 87 119 68.5 180.5 c 128,-1,4
 50 242 50 242 50 319 c 0,5,6
 50 403 50 403 72 473.5 c 128,-1,7
 94 544 94 544 134 596 c 128,-1,8
 174 648 174 648 230 676.5 c 128,-1,9
 286 705 286 705 354 705 c 0,10,11
 397 705 397 705 436 693 c 128,-1,12
 475 681 475 681 509 657 c 1,13,-1
 478 591 l 1,14,15
 452 610 452 610 421 620 c 128,-1,16
 390 630 390 630 357 630 c 0,17,18
 306 630 306 630 264.5 607.5 c 128,-1,19
 223 585 223 585 192.5 544 c 128,-1,20
 162 503 162 503 146 446.5 c 128,-1,21
 130 390 130 390 130 321 c 1,22,23
 152 378 152 378 201 410.5 c 128,-1,24
 250 443 250 443 317 443 c 0,25,26
 366 443 366 443 408 426 c 128,-1,27
 450 409 450 409 481.5 378 c 128,-1,28
 513 347 513 347 530 306.5 c 128,-1,29
 547 266 547 266 547 218 c 0,30,31
 547 169 547 169 529 127 c 128,-1,32
 511 85 511 85 478 53 c 128,-1,33
 445 21 445 21 401 3 c 128,-1,34
 357 -15 357 -15 306 -15 c 0,0,1
309 60 m 0,35,36
 341 60 341 60 369 72 c 128,-1,37
 397 84 397 84 418 105.5 c 128,-1,38
 439 127 439 127 451 156 c 128,-1,39
 463 185 463 185 463 218 c 0,40,41
 463 262 463 262 443 296 c 128,-1,42
 423 330 423 330 388.5 349.5 c 128,-1,43
 354 369 354 369 310 369 c 0,44,45
 265 369 265 369 229.5 349.5 c 128,-1,46
 194 330 194 330 173.5 296 c 128,-1,47
 153 262 153 262 153 220 c 0,48,49
 153 187 153 187 165 158 c 128,-1,50
 177 129 177 129 198 107 c 128,-1,51
 219 85 219 85 247.5 72.5 c 128,-1,52
 276 60 276 60 309 60 c 0,35,36
EndSplineSet
Validated: 1
Substitution2: "'pnum' Proportional Numbers in Latin lookup 21 subtable" six
Substitution2: "'aalt' Access All Alternates in Latin lookup 0 subtable" six
EndChar

StartChar: seven.aalt
Encoding: 65544 -1 45
Width: 594
GlyphClass: 2
Flags: W
LayerCount: 2
Fore
SplineSet
167 0 m 1,0,-1
 435 613 l 1,1,-1
 64 613 l 1,2,-1
 64 690 l 1,3,-1
 524 690 l 1,4,-1
 524 623 l 1,5,-1
 257 0 l 1,6,-1
 167 0 l 1,0,-1
EndSplineSet
Validated: 1
Substitution2: "'pnum' Proportional Numbers in Latin lookup 21 subtable" seven
Substitution2: "'aalt' Access All Alternates in Latin lookup 0 subtable" seven
EndChar

StartChar: eight.aalt
Encoding: 65545 -1 46
Width: 594
GlyphClass: 2
Flags: W
LayerCount: 2
Fore
SplineSet
296 -15 m 256,0,1
 242 -15 242 -15 197.5 -0.5 c 128,-1,2
 153 14 153 14 120.5 41 c 128,-1,3
 88 68 88 68 70 105 c 128,-1,4
 52 142 52 142 52 186 c 0,5,6
 52 249 52 249 86 295 c 128,-1,7
 120 341 120 341 181 362 c 1,8,9
 130 384 130 384 102.5 424.5 c 128,-1,10
 75 465 75 465 75 518 c 0,11,12
 75 558 75 558 92 592 c 128,-1,13
 109 626 109 626 139.5 651.5 c 128,-1,14
 170 677 170 677 210.5 691 c 128,-1,15
 251 705 251 705 298 705 c 256,16,17
 345 705 345 705 385 691 c 128,-1,18
 425 677 425 677 455 651.5 c 128,-1,19
 485 626 485 626 501.5 592 c 128,-1,20
 518 558 518 558 518 519 c 0,21,22
 518 467 518 467 491 426.5 c 128,-1,23
 464 386 464 386 413 363 c 1,24,25
 474 342 474 342 507.5 297 c 128,-1,26
 541 252 541 252 541 189 c 0,27,28
 541 145 541 145 523 107.5 c 128,-1,29
 505 70 505 70 472 42.5 c 128,-1,30
 439 15 439 15 394.5 0 c 128,-1,31
 350 -15 350 -15 296 -15 c 256,0,1
297 397 m 256,32,33
 338 397 338 397 369 412.5 c 128,-1,34
 400 428 400 428 417.5 454 c 128,-1,35
 435 480 435 480 435 513 c 256,36,37
 435 546 435 546 417.5 572.5 c 128,-1,38
 400 599 400 599 369 614.5 c 128,-1,39
 338 630 338 630 297 630 c 256,40,41
 256 630 256 630 225 614.5 c 128,-1,42
 194 599 194 599 176 572.5 c 128,-1,43
 158 546 158 546 158 513 c 256,44,45
 158 480 158 480 176 454 c 128,-1,46
 194 428 194 428 225 412.5 c 128,-1,47
 256 397 256 397 297 397 c 256,32,33
297 60 m 0,48,49
 346 60 346 60 381.5 76.5 c 128,-1,50
 417 93 417 93 437 122.5 c 128,-1,51
 457 152 457 152 457 191 c 256,52,53
 457 230 457 230 437 259.5 c 128,-1,54
 417 289 417 289 381.5 305.5 c 128,-1,55
 346 322 346 322 297 322 c 0,56,57
 249 322 249 322 212.5 305.5 c 128,-1,58
 176 289 176 289 156 259.5 c 128,-1,59
 136 230 136 230 136 191 c 256,60,61
 136 152 136 152 156 122.5 c 128,-1,62
 176 93 176 93 212.5 76.5 c 128,-1,63
 249 60 249 60 297 60 c 0,48,49
EndSplineSet
Validated: 1
Substitution2: "'pnum' Proportional Numbers in Latin lookup 21 subtable" eight
Substitution2: "'aalt' Access All Alternates in Latin lookup 0 subtable" eight
EndChar

StartChar: nine.aalt
Encoding: 65546 -1 47
Width: 594
GlyphClass: 2
Flags: W
LayerCount: 2
Fore
SplineSet
244 -15 m 0,0,1
 154 -15 154 -15 86 33 c 1,2,-1
 117 99 l 1,3,4
 170 60 170 60 241 60 c 256,5,6
 312 60 312 60 363 96.5 c 128,-1,7
 414 133 414 133 440.5 200.5 c 128,-1,8
 467 268 467 268 467 361 c 2,9,-1
 467 371 l 1,10,11
 445 315 445 315 396 283.5 c 128,-1,12
 347 252 347 252 281 252 c 0,13,14
 231 252 231 252 189 269 c 128,-1,15
 147 286 147 286 115.5 316 c 128,-1,16
 84 346 84 346 67 386.5 c 128,-1,17
 50 427 50 427 50 474 c 0,18,19
 50 522 50 522 68 564 c 128,-1,20
 86 606 86 606 119 637.5 c 128,-1,21
 152 669 152 669 196 687 c 128,-1,22
 240 705 240 705 291 705 c 0,23,24
 348 705 348 705 395 681 c 128,-1,25
 442 657 442 657 476 612 c 128,-1,26
 510 567 510 567 528.5 503.5 c 128,-1,27
 547 440 547 440 547 361 c 0,28,29
 547 278 547 278 526 209 c 128,-1,30
 505 140 505 140 466 90 c 128,-1,31
 427 40 427 40 370.5 12.5 c 128,-1,32
 314 -15 314 -15 244 -15 c 0,0,1
288 326 m 0,33,34
 332 326 332 326 367.5 345.5 c 128,-1,35
 403 365 403 365 423.5 398.5 c 128,-1,36
 444 432 444 432 444 474 c 0,37,38
 444 506 444 506 432 534.5 c 128,-1,39
 420 563 420 563 399 584.5 c 128,-1,40
 378 606 378 606 349.5 618 c 128,-1,41
 321 630 321 630 288 630 c 0,42,43
 256 630 256 630 228 618 c 128,-1,44
 200 606 200 606 179 585 c 128,-1,45
 158 564 158 564 146 536 c 128,-1,46
 134 508 134 508 134 475 c 0,47,48
 134 432 134 432 154 398.5 c 128,-1,49
 174 365 174 365 208.5 345.5 c 128,-1,50
 243 326 243 326 288 326 c 0,33,34
EndSplineSet
Validated: 1
Substitution2: "'pnum' Proportional Numbers in Latin lookup 21 subtable" nine
Substitution2: "'aalt' Access All Alternates in Latin lookup 0 subtable" nine
EndChar

StartChar: uni2080
Encoding: 8320 8320 48
Width: 354
GlyphClass: 2
Flags: W
LayerCount: 2
Fore
SplineSet
176 -9 m 0,0,1
 131 -9 131 -9 98.5 15 c 128,-1,2
 66 39 66 39 48.5 83.5 c 128,-1,3
 31 128 31 128 31 190 c 256,4,5
 31 252 31 252 49 296.5 c 128,-1,6
 67 341 67 341 99.5 365 c 128,-1,7
 132 389 132 389 178 389 c 0,8,9
 223 389 223 389 255.5 365.5 c 128,-1,10
 288 342 288 342 305.5 297.5 c 128,-1,11
 323 253 323 253 323 191 c 256,12,13
 323 129 323 129 305 84 c 128,-1,14
 287 39 287 39 254.5 15 c 128,-1,15
 222 -9 222 -9 176 -9 c 0,0,1
177 50 m 256,16,17
 215 50 215 50 236 86 c 128,-1,18
 257 122 257 122 257 190 c 256,19,20
 257 258 257 258 236 294 c 128,-1,21
 215 330 215 330 177 330 c 256,22,23
 139 330 139 330 118 294 c 128,-1,24
 97 258 97 258 97 190 c 256,25,26
 97 122 97 122 118 86 c 128,-1,27
 139 50 139 50 177 50 c 256,16,17
EndSplineSet
Validated: 1
EndChar

StartChar: uni2081
Encoding: 8321 8321 49
Width: 354
GlyphClass: 2
Flags: W
LayerCount: 2
Fore
SplineSet
176 0 m 1,0,-1
 176 311 l 1,1,-1
 86 263 l 1,2,-1
 64 316 l 1,3,-1
 185 380 l 1,4,-1
 242 380 l 1,5,-1
 242 0 l 1,6,-1
 176 0 l 1,0,-1
EndSplineSet
Validated: 1
EndChar

StartChar: uni2082
Encoding: 8322 8322 50
Width: 354
GlyphClass: 2
Flags: W
LayerCount: 2
Fore
SplineSet
47 0 m 1,0,-1
 47 49 l 1,1,2
 70 68 70 68 93.5 87.5 c 128,-1,3
 117 107 117 107 136.5 124.5 c 128,-1,4
 156 142 156 142 168 154 c 0,5,6
 206 191 206 191 222.5 217.5 c 128,-1,7
 239 244 239 244 239 267 c 0,8,9
 239 296 239 296 221.5 314 c 128,-1,10
 204 332 204 332 176 332 c 0,11,12
 151 332 151 332 131.5 316.5 c 128,-1,13
 112 301 112 301 105 273 c 1,14,-1
 45 285 l 1,15,16
 52 316 52 316 71 339.5 c 128,-1,17
 90 363 90 363 118 376 c 128,-1,18
 146 389 146 389 180 389 c 0,19,20
 216 389 216 389 244 373.5 c 128,-1,21
 272 358 272 358 288.5 332 c 128,-1,22
 305 306 305 306 305 272 c 0,23,24
 305 237 305 237 284.5 201.5 c 128,-1,25
 264 166 264 166 216 122 c 0,26,27
 201 107 201 107 183 92 c 128,-1,28
 165 77 165 77 143 59 c 1,29,-1
 312 59 l 1,30,-1
 312 0 l 1,31,-1
 47 0 l 1,0,-1
EndSplineSet
Validated: 1
EndChar

StartChar: uni2083
Encoding: 8323 8323 51
Width: 354
GlyphClass: 2
Flags: W
LayerCount: 2
Fore
SplineSet
173 -9 m 0,0,1
 120 -9 120 -9 83 18 c 128,-1,2
 46 45 46 45 33 90 c 1,3,-1
 94 102 l 1,4,5
 102 76 102 76 122.5 62 c 128,-1,6
 143 48 143 48 172 48 c 0,7,8
 204 48 204 48 224.5 65 c 128,-1,9
 245 82 245 82 245 109 c 256,10,11
 245 136 245 136 225.5 152 c 128,-1,12
 206 168 206 168 173 168 c 2,13,-1
 130 168 l 1,14,-1
 130 225 l 1,15,-1
 169 225 l 2,16,17
 200 225 200 225 218 240 c 128,-1,18
 236 255 236 255 236 280 c 0,19,20
 236 303 236 303 218.5 317.5 c 128,-1,21
 201 332 201 332 173 332 c 0,22,23
 147 332 147 332 128 318.5 c 128,-1,24
 109 305 109 305 102 281 c 1,25,-1
 41 293 l 1,26,27
 48 322 48 322 67 343.5 c 128,-1,28
 86 365 86 365 114 377 c 128,-1,29
 142 389 142 389 176 389 c 0,30,31
 212 389 212 389 240.5 375.5 c 128,-1,32
 269 362 269 362 285.5 339 c 128,-1,33
 302 316 302 316 302 285 c 0,34,35
 302 256 302 256 287.5 234 c 128,-1,36
 273 212 273 212 245 199 c 1,37,38
 276 188 276 188 293.5 163.5 c 128,-1,39
 311 139 311 139 311 106 c 256,40,41
 311 73 311 73 293 47 c 128,-1,42
 275 21 275 21 243.5 6 c 128,-1,43
 212 -9 212 -9 173 -9 c 0,0,1
EndSplineSet
Validated: 1
EndChar

StartChar: uni2084
Encoding: 8324 8324 52
Width: 354
GlyphClass: 2
Flags: W
LayerCount: 2
Fore
SplineSet
207 0 m 1,0,-1
 207 83 l 1,1,-1
 26 83 l 1,2,-1
 26 133 l 1,3,-1
 199 380 l 1,4,-1
 271 380 l 1,5,-1
 271 136 l 1,6,-1
 316 136 l 1,7,-1
 316 83 l 1,8,-1
 271 83 l 1,9,-1
 271 0 l 1,10,-1
 207 0 l 1,0,-1
90 136 m 1,11,-1
 207 136 l 1,12,-1
 207 303 l 1,13,-1
 90 136 l 1,11,-1
EndSplineSet
Validated: 1
EndChar

StartChar: fraction
Encoding: 8260 8260 53
Width: 94
GlyphClass: 2
Flags: W
LayerCount: 2
Fore
SplineSet
-205 0 m 1,0,-1
 230 690 l 1,1,-1
 299 690 l 1,2,-1
 -136 0 l 1,3,-1
 -205 0 l 1,0,-1
EndSplineSet
Validated: 1
EndChar

StartChar: percent
Encoding: 37 37 54
Width: 725
GlyphClass: 2
Flags: W
LayerCount: 2
Fore
SplineSet
189 389 m 0,0,1
 146 389 146 389 112 409 c 128,-1,2
 78 429 78 429 58 464 c 128,-1,3
 38 499 38 499 38 544 c 0,4,5
 38 588 38 588 58 623.5 c 128,-1,6
 78 659 78 659 112.5 679 c 128,-1,7
 147 699 147 699 191 699 c 0,8,9
 234 699 234 699 268 679 c 128,-1,10
 302 659 302 659 322 624 c 128,-1,11
 342 589 342 589 342 544 c 0,12,13
 342 500 342 500 322 464.5 c 128,-1,14
 302 429 302 429 267.5 409 c 128,-1,15
 233 389 233 389 189 389 c 0,0,1
184 0 m 1,16,-1
 110 0 l 1,17,-1
 541 690 l 1,18,-1
 615 690 l 1,19,-1
 184 0 l 1,16,-1
108 544 m 256,20,21
 108 516 108 516 118.5 495.5 c 128,-1,22
 129 475 129 475 147.5 463 c 128,-1,23
 166 451 166 451 190 451 c 256,24,25
 214 451 214 451 232.5 463 c 128,-1,26
 251 475 251 475 261.5 495.5 c 128,-1,27
 272 516 272 516 272 544 c 256,28,29
 272 572 272 572 261.5 592.5 c 128,-1,30
 251 613 251 613 232.5 625 c 128,-1,31
 214 637 214 637 190 637 c 256,32,33
 166 637 166 637 147.5 625 c 128,-1,34
 129 613 129 613 118.5 592.5 c 128,-1,35
 108 572 108 572 108 544 c 256,20,21
534 -9 m 0,36,37
 491 -9 491 -9 457 11 c 128,-1,38
 423 31 423 31 403 66 c 128,-1,39
 383 101 383 101 383 146 c 0,40,41
 383 190 383 190 403 225.5 c 128,-1,42
 423 261 423 261 457.5 281 c 128,-1,43
 492 301 492 301 536 301 c 0,44,45
 579 301 579 301 613 281 c 128,-1,46
 647 261 647 261 667 226 c 128,-1,47
 687 191 687 191 687 146 c 0,48,49
 687 102 687 102 667 66.5 c 128,-1,50
 647 31 647 31 612.5 11 c 128,-1,51
 578 -9 578 -9 534 -9 c 0,36,37
535 53 m 256,52,53
 559 53 559 53 577.5 65 c 128,-1,54
 596 77 596 77 606.5 97.5 c 128,-1,55
 617 118 617 118 617 146 c 256,56,57
 617 174 617 174 606.5 194.5 c 128,-1,58
 596 215 596 215 577.5 227 c 128,-1,59
 559 239 559 239 535 239 c 256,60,61
 511 239 511 239 492.5 227 c 128,-1,62
 474 215 474 215 463.5 194.5 c 128,-1,63
 453 174 453 174 453 146 c 256,64,65
 453 118 453 118 463.5 97.5 c 128,-1,66
 474 77 474 77 492.5 65 c 128,-1,67
 511 53 511 53 535 53 c 256,52,53
EndSplineSet
Validated: 1
EndChar

StartChar: perthousand
Encoding: 8240 8240 55
Width: 1081
GlyphClass: 2
Flags: W
LayerCount: 2
Fore
SplineSet
189 389 m 0,0,1
 146 389 146 389 112 409 c 128,-1,2
 78 429 78 429 58 464 c 128,-1,3
 38 499 38 499 38 544 c 0,4,5
 38 588 38 588 58 623.5 c 128,-1,6
 78 659 78 659 112.5 679 c 128,-1,7
 147 699 147 699 191 699 c 0,8,9
 234 699 234 699 268 679 c 128,-1,10
 302 659 302 659 322 624 c 128,-1,11
 342 589 342 589 342 544 c 0,12,13
 342 500 342 500 322 464.5 c 128,-1,14
 302 429 302 429 267.5 409 c 128,-1,15
 233 389 233 389 189 389 c 0,0,1
184 0 m 1,16,-1
 110 0 l 1,17,-1
 541 690 l 1,18,-1
 615 690 l 1,19,-1
 184 0 l 1,16,-1
108 544 m 256,20,21
 108 516 108 516 118.5 495.5 c 128,-1,22
 129 475 129 475 147.5 463 c 128,-1,23
 166 451 166 451 190 451 c 256,24,25
 214 451 214 451 232.5 463 c 128,-1,26
 251 475 251 475 261.5 495.5 c 128,-1,27
 272 516 272 516 272 544 c 256,28,29
 272 572 272 572 261.5 592.5 c 128,-1,30
 251 613 251 613 232.5 625 c 128,-1,31
 214 637 214 637 190 637 c 256,32,33
 166 637 166 637 147.5 625 c 128,-1,34
 129 613 129 613 118.5 592.5 c 128,-1,35
 108 572 108 572 108 544 c 256,20,21
534 -9 m 0,36,37
 491 -9 491 -9 457 11 c 128,-1,38
 423 31 423 31 403 66 c 128,-1,39
 383 101 383 101 383 146 c 0,40,41
 383 190 383 190 403 225.5 c 128,-1,42
 423 261 423 261 457.5 281 c 128,-1,43
 492 301 492 301 536 301 c 0,44,45
 579 301 579 301 613 281 c 128,-1,46
 647 261 647 261 667 226 c 128,-1,47
 687 191 687 191 687 146 c 0,48,49
 687 102 687 102 667 66.5 c 128,-1,50
 647 31 647 31 612.5 11 c 128,-1,51
 578 -9 578 -9 534 -9 c 0,36,37
890 -9 m 0,52,53
 847 -9 847 -9 813 11 c 128,-1,54
 779 31 779 31 759 66 c 128,-1,55
 739 101 739 101 739 146 c 0,56,57
 739 190 739 190 759 225.5 c 128,-1,58
 779 261 779 261 813.5 281 c 128,-1,59
 848 301 848 301 892 301 c 0,60,61
 935 301 935 301 969 281 c 128,-1,62
 1003 261 1003 261 1023 226 c 128,-1,63
 1043 191 1043 191 1043 146 c 0,64,65
 1043 102 1043 102 1023 66.5 c 128,-1,66
 1003 31 1003 31 968.5 11 c 128,-1,67
 934 -9 934 -9 890 -9 c 0,52,53
535 53 m 256,68,69
 559 53 559 53 577.5 65 c 128,-1,70
 596 77 596 77 606.5 97.5 c 128,-1,71
 617 118 617 118 617 146 c 256,72,73
 617 174 617 174 606.5 194.5 c 128,-1,74
 596 215 596 215 577.5 227 c 128,-1,75
 559 239 559 239 535 239 c 256,76,77
 511 239 511 239 492.5 227 c 128,-1,78
 474 215 474 215 463.5 194.5 c 128,-1,79
 453 174 453 174 453 146 c 256,80,81
 453 118 453 118 463.5 97.5 c 128,-1,82
 474 77 474 77 492.5 65 c 128,-1,83
 511 53 511 53 535 53 c 256,68,69
891 53 m 256,84,85
 915 53 915 53 933.5 65 c 128,-1,86
 952 77 952 77 962.5 97.5 c 128,-1,87
 973 118 973 118 973 146 c 256,88,89
 973 174 973 174 962.5 194.5 c 128,-1,90
 952 215 952 215 933.5 227 c 128,-1,91
 915 239 915 239 891 239 c 256,92,93
 867 239 867 239 848.5 227 c 128,-1,94
 830 215 830 215 819.5 194.5 c 128,-1,95
 809 174 809 174 809 146 c 256,96,97
 809 118 809 118 819.5 97.5 c 128,-1,98
 830 77 830 77 848.5 65 c 128,-1,99
 867 53 867 53 891 53 c 256,84,85
EndSplineSet
Validated: 1
EndChar

StartChar: dollar
Encoding: 36 36 59
Width: 594
GlyphClass: 2
Flags: W
LayerCount: 2
Fore
SplineSet
273 -140 m 1,0,-1
 273 -8 l 1,1,2
 197 0 197 0 141 45 c 128,-1,3
 85 90 85 90 60 165 c 1,4,-1
 134 183 l 1,5,6
 174 77 174 77 273 62 c 1,7,-1
 273 325 l 1,8,-1
 271 325 l 1,9,10
 174 343 174 343 125.5 391 c 128,-1,11
 77 439 77 439 77 510 c 0,12,13
 77 562 77 562 101.5 603 c 128,-1,14
 126 644 126 644 170.5 669.5 c 128,-1,15
 215 695 215 695 273 699 c 1,16,-1
 273 820 l 1,17,-1
 331 820 l 1,18,-1
 331 698 l 1,19,20
 404 689 404 689 455 645.5 c 128,-1,21
 506 602 506 602 526 530 c 1,22,-1
 453 512 l 1,23,24
 434 563 434 563 404.5 591.5 c 128,-1,25
 375 620 375 620 331 627 c 1,26,-1
 331 391 l 1,27,-1
 348 388 l 2,28,29
 406 378 406 378 447.5 352 c 128,-1,30
 489 326 489 326 511.5 286.5 c 128,-1,31
 534 247 534 247 534 195 c 0,32,33
 534 139 534 139 508 95 c 128,-1,34
 482 51 482 51 436.5 23.5 c 128,-1,35
 391 -4 391 -4 331 -9 c 1,36,-1
 331 -140 l 1,37,-1
 273 -140 l 1,0,-1
155 514 m 0,38,39
 155 471 155 471 184 444 c 128,-1,40
 213 417 213 417 273 403 c 1,41,-1
 273 629 l 1,42,43
 218 623 218 623 186.5 592 c 128,-1,44
 155 561 155 561 155 514 c 0,38,39
457 191 m 0,45,46
 457 238 457 238 425 269 c 128,-1,47
 393 300 393 300 331 314 c 1,48,-1
 331 62 l 1,49,50
 369 66 369 66 397.5 83.5 c 128,-1,51
 426 101 426 101 441.5 128.5 c 128,-1,52
 457 156 457 156 457 191 c 0,45,46
EndSplineSet
Validated: 1
EndChar

StartChar: cent
Encoding: 162 162 60
Width: 594
GlyphClass: 2
Flags: W
LayerCount: 2
Fore
SplineSet
283 -139 m 1,0,-1
 283 -9 l 1,1,2
 236 -3 236 -3 196.5 19 c 128,-1,3
 157 41 157 41 128 76.5 c 128,-1,4
 99 112 99 112 83 158 c 128,-1,5
 67 204 67 204 67 258 c 256,6,7
 67 312 67 312 83 358.5 c 128,-1,8
 99 405 99 405 128 442 c 128,-1,9
 157 479 157 479 196.5 502.5 c 128,-1,10
 236 526 236 526 283 532 c 1,11,-1
 283 651 l 1,12,-1
 341 651 l 1,13,-1
 341 534 l 1,14,15
 385 530 385 530 421.5 511.5 c 128,-1,16
 458 493 458 493 484.5 463.5 c 128,-1,17
 511 434 511 434 525 397 c 1,18,-1
 452 372 l 1,19,20
 433 409 433 409 405 432 c 128,-1,21
 377 455 377 455 341 462 c 1,22,-1
 341 62 l 1,23,24
 379 68 379 68 410 91 c 128,-1,25
 441 114 441 114 458 151 c 1,26,-1
 531 126 l 1,27,28
 516 88 516 88 488 59 c 128,-1,29
 460 30 460 30 422 12.5 c 128,-1,30
 384 -5 384 -5 341 -10 c 1,31,-1
 341 -139 l 1,32,-1
 283 -139 l 1,0,-1
149 259 m 0,33,34
 149 208 149 208 166 167 c 128,-1,35
 183 126 183 126 213 98.5 c 128,-1,36
 243 71 243 71 283 63 c 1,37,-1
 283 460 l 1,38,39
 244 451 244 451 213.5 423 c 128,-1,40
 183 395 183 395 166 353 c 128,-1,41
 149 311 149 311 149 259 c 0,33,34
EndSplineSet
Validated: 1
EndChar

StartChar: sterling
Encoding: 163 163 61
Width: 594
GlyphClass: 2
Flags: W
LayerCount: 2
Fore
SplineSet
36 0 m 1,0,-1
 36 77 l 1,1,-1
 101 77 l 1,2,-1
 120 299 l 1,3,-1
 35 299 l 1,4,-1
 35 367 l 1,5,-1
 125 367 l 1,6,-1
 135 485 l 2,7,8
 140 553 140 553 167 602.5 c 128,-1,9
 194 652 194 652 239 678.5 c 128,-1,10
 284 705 284 705 343 705 c 0,11,12
 422 705 422 705 475 660 c 128,-1,13
 528 615 528 615 547 534 c 1,14,-1
 469 515 l 1,15,16
 456 571 456 571 423 600.5 c 128,-1,17
 390 630 390 630 342 630 c 0,18,19
 288 630 288 630 255 592 c 128,-1,20
 222 554 222 554 217 485 c 2,21,-1
 207 367 l 1,22,-1
 409 367 l 1,23,-1
 409 299 l 1,24,-1
 202 299 l 1,25,-1
 183 77 l 1,26,-1
 548 77 l 1,27,-1
 548 0 l 1,28,-1
 36 0 l 1,0,-1
EndSplineSet
Validated: 1
EndChar

StartChar: yen
Encoding: 165 165 62
Width: 594
GlyphClass: 2
Flags: W
LayerCount: 2
Fore
SplineSet
106 128 m 1,0,-1
 106 187 l 1,1,-1
 256 187 l 1,2,-1
 256 284 l 1,3,-1
 106 284 l 1,4,-1
 106 343 l 1,5,-1
 227 343 l 1,6,-1
 32 690 l 1,7,-1
 125 690 l 1,8,-1
 298 359 l 1,9,-1
 472 690 l 1,10,-1
 562 690 l 1,11,-1
 367 343 l 1,12,-1
 488 343 l 1,13,-1
 488 284 l 1,14,-1
 338 284 l 1,15,-1
 338 187 l 1,16,-1
 488 187 l 1,17,-1
 488 128 l 1,18,-1
 338 128 l 1,19,-1
 338 0 l 1,20,-1
 256 0 l 1,21,-1
 256 128 l 1,22,-1
 106 128 l 1,0,-1
EndSplineSet
Validated: 1
EndChar

StartChar: Euro
Encoding: 8364 8364 63
Width: 594
GlyphClass: 2
Flags: W
LayerCount: 2
Fore
SplineSet
-4 231 m 1,0,-1
 10 290 l 1,1,-1
 77 290 l 1,2,3
 75 314 75 314 75 340 c 0,4,5
 75 368 75 368 77 394 c 1,6,-1
 -4 394 l 1,7,-1
 10 453 l 1,8,-1
 85 453 l 1,9,10
 99 532 99 532 133 588.5 c 128,-1,11
 167 645 167 645 218 675 c 128,-1,12
 269 705 269 705 335 705 c 0,13,14
 389 705 389 705 434 683.5 c 128,-1,15
 479 662 479 662 511.5 622 c 128,-1,16
 544 582 544 582 559 527 c 1,17,-1
 484 509 l 1,18,19
 466 567 466 567 427 598.5 c 128,-1,20
 388 630 388 630 335 630 c 0,21,22
 269 630 269 630 225.5 584 c 128,-1,23
 182 538 182 538 165 453 c 1,24,-1
 408 453 l 1,25,-1
 395 394 l 1,26,-1
 157 394 l 1,27,28
 155 369 155 369 155 342 c 256,29,30
 155 315 155 315 157 290 c 1,31,-1
 375 290 l 1,32,-1
 361 231 l 1,33,-1
 165 231 l 1,34,35
 182 148 182 148 225 104 c 128,-1,36
 268 60 268 60 334 60 c 0,37,38
 390 60 390 60 430.5 92.5 c 128,-1,39
 471 125 471 125 488 182 c 1,40,-1
 563 163 l 1,41,42
 548 108 548 108 515 68.5 c 128,-1,43
 482 29 482 29 435 7 c 128,-1,44
 388 -15 388 -15 332 -15 c 0,45,46
 266 -15 266 -15 215.5 14 c 128,-1,47
 165 43 165 43 131.5 98 c 128,-1,48
 98 153 98 153 84 231 c 1,49,-1
 -4 231 l 1,0,-1
EndSplineSet
Validated: 1
EndChar

StartChar: uni20BA
Encoding: 8378 8378 64
Width: 594
GlyphClass: 2
Flags: W
LayerCount: 2
Fore
SplineSet
129 0 m 1,0,-1
 129 205 l 1,1,-1
 55 170 l 1,2,-1
 55 235 l 1,3,-1
 129 270 l 1,4,-1
 129 368 l 1,5,-1
 56 333 l 1,6,-1
 56 398 l 1,7,-1
 129 433 l 1,8,-1
 129 690 l 1,9,-1
 211 690 l 1,10,-1
 211 472 l 1,11,-1
 375 550 l 1,12,-1
 375 485 l 1,13,-1
 211 407 l 1,14,-1
 211 309 l 1,15,-1
 375 387 l 1,16,-1
 375 322 l 1,17,-1
 211 244 l 1,18,-1
 211 77 l 1,19,-1
 230 77 l 2,20,21
 328 77 328 77 387.5 132.5 c 128,-1,22
 447 188 447 188 464 295 c 1,23,-1
 542 287 l 1,24,25
 520 146 520 146 439.5 73 c 128,-1,26
 359 0 359 0 225 0 c 2,27,-1
 129 0 l 1,0,-1
EndSplineSet
Validated: 1
EndChar

StartChar: uni20B9
Encoding: 8377 8377 65
Width: 594
GlyphClass: 2
Flags: W
LayerCount: 2
Fore
SplineSet
76 285 m 1,0,-1
 76 346 l 1,1,2
 90 342 90 342 110 339.5 c 128,-1,3
 130 337 130 337 154 335.5 c 128,-1,4
 178 334 178 334 200 334 c 0,5,6
 278 334 278 334 323.5 363 c 128,-1,7
 369 392 369 392 378 446 c 1,8,-1
 76 446 l 1,9,-1
 76 515 l 1,10,-1
 377 515 l 1,11,12
 366 565 366 565 326.5 593 c 128,-1,13
 287 621 287 621 224 621 c 2,14,-1
 76 621 l 1,15,-1
 76 690 l 1,16,-1
 538 690 l 1,17,-1
 522 621 l 1,18,-1
 401 621 l 1,19,20
 450 581 450 581 461 515 c 1,21,-1
 538 515 l 1,22,-1
 522 446 l 1,23,-1
 463 446 l 1,24,25
 457 392 457 392 426 352 c 128,-1,26
 395 312 395 312 345 290 c 128,-1,27
 295 268 295 268 231 268 c 0,28,29
 225 268 225 268 218 268 c 1,30,-1
 538 0 l 1,31,-1
 413 0 l 1,32,-1
 76 285 l 1,0,-1
EndSplineSet
Validated: 1
EndChar

StartChar: colonmonetary
Encoding: 8353 8353 66
Width: 594
GlyphClass: 2
Flags: W
LayerCount: 2
Fore
SplineSet
131 -140 m 1,0,-1
 162 43 l 1,1,2
 111 86 111 86 83 161.5 c 128,-1,3
 55 237 55 237 55 339 c 0,4,5
 55 439 55 439 81 515 c 128,-1,6
 107 591 107 591 155.5 637.5 c 128,-1,7
 204 684 204 684 271 696 c 1,8,-1
 291 815 l 1,9,-1
 344 815 l 1,10,-1
 325 700 l 1,11,12
 363 699 363 699 397 687 c 1,13,-1
 418 815 l 1,14,-1
 471 815 l 1,15,-1
 445 663 l 1,16,17
 479 640 479 640 503.5 606 c 128,-1,18
 528 572 528 572 541 527 c 1,19,-1
 463 509 l 1,20,21
 451 546 451 546 430 573 c 1,22,-1
 345 65 l 1,23,24
 389 73 389 73 421 103 c 128,-1,25
 453 133 453 133 468 181 c 1,26,-1
 546 163 l 1,27,28
 531 113 531 113 500.5 75.5 c 128,-1,29
 470 38 470 38 427.5 16 c 128,-1,30
 385 -6 385 -6 333 -9 c 1,31,-1
 311 -140 l 1,32,-1
 258 -140 l 1,33,-1
 280 -8 l 1,34,35
 242 -3 242 -3 209 12 c 1,36,-1
 184 -140 l 1,37,-1
 131 -140 l 1,0,-1
315 628 m 0,38,39
 314 628 314 628 313 628 c 2,40,-1
 223 91 l 1,41,42
 253 68 253 68 292 63 c 1,43,-1
 384 612 l 1,44,45
 353 628 353 628 315 628 c 0,38,39
137 342 m 0,46,47
 137 214 137 214 178 142 c 1,48,-1
 258 618 l 1,49,50
 199 595 199 595 168 524 c 128,-1,51
 137 453 137 453 137 342 c 0,46,47
EndSplineSet
Validated: 1
EndChar

StartChar: uni20AA
Encoding: 8362 8362 67
Width: 902
GlyphClass: 2
Flags: W
LayerCount: 2
Fore
SplineSet
94 0 m 1,0,-1
 94 690 l 1,1,-1
 374 690 l 2,2,3
 441 690 441 690 490.5 662.5 c 128,-1,4
 540 635 540 635 567.5 584.5 c 128,-1,5
 595 534 595 534 595 467 c 2,6,-1
 595 198 l 1,7,-1
 520 198 l 1,8,-1
 520 465 l 2,9,10
 520 532 520 532 480 570 c 128,-1,11
 440 608 440 608 370 608 c 2,12,-1
 169 608 l 1,13,-1
 169 0 l 1,14,-1
 94 0 l 1,0,-1
307 0 m 1,15,-1
 307 491 l 1,16,-1
 382 491 l 1,17,-1
 382 82 l 1,18,-1
 583 82 l 2,19,20
 654 82 654 82 693.5 120 c 128,-1,21
 733 158 733 158 733 225 c 2,22,-1
 733 690 l 1,23,-1
 808 690 l 1,24,-1
 808 223 l 2,25,26
 808 156 808 156 780.5 105.5 c 128,-1,27
 753 55 753 55 703.5 27.5 c 128,-1,28
 654 0 654 0 587 0 c 2,29,-1
 307 0 l 1,15,-1
EndSplineSet
Validated: 1
EndChar

StartChar: uni20A9
Encoding: 8361 8361 68
Width: 929
GlyphClass: 2
Flags: W
LayerCount: 2
Fore
SplineSet
241 0 m 1,0,-1
 178 239 l 1,1,-1
 38 239 l 1,2,-1
 38 294 l 1,3,-1
 163 294 l 1,4,-1
 137 396 l 1,5,-1
 38 396 l 1,6,-1
 38 453 l 1,7,-1
 122 453 l 1,8,-1
 59 690 l 1,9,-1
 143 690 l 1,10,-1
 200 453 l 1,11,-1
 369 453 l 1,12,-1
 427 690 l 1,13,-1
 505 690 l 1,14,-1
 563 453 l 1,15,-1
 732 453 l 1,16,-1
 789 690 l 1,17,-1
 870 690 l 1,18,-1
 807 453 l 1,19,-1
 891 453 l 1,20,-1
 891 396 l 1,21,-1
 792 396 l 1,22,-1
 766 294 l 1,23,-1
 891 294 l 1,24,-1
 891 239 l 1,25,-1
 751 239 l 1,26,-1
 688 0 l 1,27,-1
 606 0 l 1,28,-1
 548 239 l 1,29,-1
 381 239 l 1,30,-1
 323 0 l 1,31,-1
 241 0 l 1,0,-1
433 453 m 1,32,-1
 496 453 l 1,33,-1
 464 581 l 1,34,-1
 433 453 l 1,32,-1
602 294 m 1,35,-1
 694 294 l 1,36,-1
 719 396 l 1,37,-1
 577 396 l 1,38,-1
 602 294 l 1,35,-1
238 294 m 1,39,-1
 331 294 l 1,40,-1
 355 396 l 1,41,-1
 214 396 l 1,42,-1
 238 294 l 1,39,-1
395 294 m 1,43,-1
 534 294 l 1,44,-1
 510 396 l 1,45,-1
 419 396 l 1,46,-1
 395 294 l 1,43,-1
615 239 m 1,47,-1
 649 102 l 1,48,-1
 681 239 l 1,49,-1
 615 239 l 1,47,-1
251 239 m 1,50,-1
 284 102 l 1,51,-1
 317 239 l 1,52,-1
 251 239 l 1,50,-1
EndSplineSet
Validated: 1
EndChar

StartChar: uni20AD
Encoding: 8365 8365 69
Width: 594
GlyphClass: 2
Flags: W
LayerCount: 2
Fore
SplineSet
101 0 m 1,0,-1
 101 329 l 1,1,-1
 27 329 l 1,2,-1
 27 397 l 1,3,-1
 101 397 l 1,4,-1
 101 690 l 1,5,-1
 181 690 l 1,6,-1
 181 379 l 1,7,-1
 448 690 l 1,8,-1
 545 690 l 1,9,-1
 282 397 l 1,10,-1
 499 397 l 1,11,-1
 499 329 l 1,12,-1
 284 329 l 1,13,-1
 581 0 l 1,14,-1
 474 0 l 1,15,-1
 181 339 l 1,16,-1
 181 0 l 1,17,-1
 101 0 l 1,0,-1
EndSplineSet
Validated: 1
EndChar

StartChar: uni20A8
Encoding: 8360 8360 70
Width: 1017
GlyphClass: 2
Flags: W
LayerCount: 2
Fore
SplineSet
77 0 m 1,0,-1
 77 690 l 1,1,-1
 258 690 l 2,2,3
 334 690 334 690 390 665 c 128,-1,4
 446 640 446 640 476 593 c 128,-1,5
 506 546 506 546 506 482 c 256,6,7
 506 418 506 418 472 368 c 128,-1,8
 438 318 438 318 376 292 c 1,9,-1
 541 0 l 1,10,-1
 449 0 l 1,11,-1
 303 272 l 1,12,13
 288 271 288 271 272.5 269.5 c 128,-1,14
 257 268 257 268 245 268 c 0,15,16
 227 268 227 268 204 270 c 128,-1,17
 181 272 181 272 157 275 c 1,18,-1
 157 0 l 1,19,-1
 77 0 l 1,0,-1
157 616 m 1,20,-1
 157 349 l 1,21,22
 178 346 178 346 202 344 c 128,-1,23
 226 342 226 342 248 342 c 0,24,25
 333 342 333 342 378.5 377.5 c 128,-1,26
 424 413 424 413 424 479 c 0,27,28
 424 543 424 543 380.5 579.5 c 128,-1,29
 337 616 337 616 259 616 c 2,30,-1
 157 616 l 1,20,-1
773 -15 m 0,31,32
 728 -15 728 -15 689 0 c 128,-1,33
 650 15 650 15 620.5 43 c 128,-1,34
 591 71 591 71 576 109 c 1,35,-1
 646 135 l 1,36,37
 666 97 666 97 698.5 76 c 128,-1,38
 731 55 731 55 772 55 c 0,39,40
 805 55 805 55 830.5 66 c 128,-1,41
 856 77 856 77 870 96.5 c 128,-1,42
 884 116 884 116 884 140 c 0,43,44
 884 205 884 205 790 224 c 2,45,-1
 751 232 l 2,46,47
 669 248 669 248 630 284.5 c 128,-1,48
 591 321 591 321 591 377 c 0,49,50
 591 422 591 422 614 457 c 128,-1,51
 637 492 637 492 678.5 511.5 c 128,-1,52
 720 531 720 531 773 531 c 0,53,54
 817 531 817 531 854 516.5 c 128,-1,55
 891 502 891 502 917.5 474 c 128,-1,56
 944 446 944 446 958 408 c 1,57,-1
 888 384 l 1,58,59
 872 421 872 421 842 441.5 c 128,-1,60
 812 462 812 462 773 462 c 0,61,62
 743 462 743 462 720 452 c 128,-1,63
 697 442 697 442 684 425 c 128,-1,64
 671 408 671 408 671 385 c 0,65,66
 671 353 671 353 695.5 334 c 128,-1,67
 720 315 720 315 775 304 c 2,68,-1
 814 296 l 2,69,70
 888 281 888 281 927 243.5 c 128,-1,71
 966 206 966 206 966 148 c 0,72,73
 966 112 966 112 951.5 82.5 c 128,-1,74
 937 53 937 53 911.5 31 c 128,-1,75
 886 9 886 9 850.5 -3 c 128,-1,76
 815 -15 815 -15 773 -15 c 0,31,32
EndSplineSet
Validated: 1
EndChar

StartChar: uni20B1
Encoding: 8369 8369 71
Width: 594
GlyphClass: 2
Flags: W
LayerCount: 2
Fore
SplineSet
96 0 m 1,0,-1
 96 363 l 1,1,-1
 20 363 l 1,2,-1
 20 418 l 1,3,-1
 96 418 l 1,4,-1
 96 496 l 1,5,-1
 21 496 l 1,6,-1
 21 551 l 1,7,-1
 96 551 l 1,8,-1
 96 690 l 1,9,-1
 268 690 l 2,10,11
 353 690 353 690 412 653 c 128,-1,12
 471 616 471 616 496 551 c 1,13,-1
 574 551 l 1,14,-1
 574 496 l 1,15,-1
 510 496 l 1,16,17
 513 476 513 476 513 455 c 0,18,19
 513 436 513 436 511 418 c 1,20,-1
 574 418 l 1,21,-1
 574 363 l 1,22,-1
 496 363 l 1,23,24
 479 319 479 319 445.5 287 c 128,-1,25
 412 255 412 255 364.5 237.5 c 128,-1,26
 317 220 317 220 258 220 c 0,27,28
 240 220 240 220 219 222 c 128,-1,29
 198 224 198 224 175 227 c 1,30,-1
 175 0 l 1,31,-1
 96 0 l 1,0,-1
175 620 m 1,32,-1
 175 551 l 1,33,-1
 409 551 l 1,34,35
 388 584 388 584 351.5 602 c 128,-1,36
 315 620 315 620 267 620 c 2,37,-1
 175 620 l 1,32,-1
435 455 m 0,38,39
 435 477 435 477 431 496 c 1,40,-1
 175 496 l 1,41,-1
 175 418 l 1,42,-1
 432 418 l 1,43,44
 435 436 435 436 435 455 c 0,38,39
253 290 m 0,45,46
 308 290 308 290 348 309 c 128,-1,47
 388 328 388 328 411 363 c 1,48,-1
 175 363 l 1,49,-1
 175 297 l 1,50,51
 217 290 217 290 253 290 c 0,45,46
EndSplineSet
Validated: 1
EndChar

StartChar: uni0E3F
Encoding: 3647 3647 72
Width: 594
GlyphClass: 2
Flags: W
LayerCount: 2
Fore
SplineSet
84 0 m 1,0,-1
 84 690 l 1,1,-1
 264 690 l 1,2,-1
 264 815 l 1,3,-1
 322 815 l 1,4,-1
 322 689 l 1,5,6
 382 686 382 686 425.5 664 c 128,-1,7
 469 642 469 642 492.5 603.5 c 128,-1,8
 516 565 516 565 516 514 c 0,9,10
 516 464 516 464 493 425.5 c 128,-1,11
 470 387 470 387 426 367 c 1,12,13
 483 347 483 347 514.5 302 c 128,-1,14
 546 257 546 257 546 193 c 0,15,16
 546 137 546 137 518.5 94.5 c 128,-1,17
 491 52 491 52 440.5 27.5 c 128,-1,18
 390 3 390 3 322 0 c 1,19,-1
 322 -140 l 1,20,-1
 264 -140 l 1,21,-1
 264 0 l 1,22,-1
 84 0 l 1,0,-1
163 620 m 1,23,-1
 163 395 l 1,24,-1
 264 395 l 1,25,-1
 264 620 l 1,26,-1
 163 620 l 1,23,-1
433 507 m 256,27,28
 433 556 433 556 403.5 585.5 c 128,-1,29
 374 615 374 615 322 619 c 1,30,-1
 322 396 l 1,31,32
 375 400 375 400 404 429 c 128,-1,33
 433 458 433 458 433 507 c 256,27,28
163 70 m 1,34,-1
 264 70 l 1,35,-1
 264 327 l 1,36,-1
 163 327 l 1,37,-1
 163 70 l 1,34,-1
463 198 m 0,38,39
 463 257 463 257 425.5 290.5 c 128,-1,40
 388 324 388 324 322 327 c 1,41,-1
 322 70 l 1,42,43
 387 73 387 73 425 107 c 128,-1,44
 463 141 463 141 463 198 c 0,38,39
EndSplineSet
Validated: 1
EndChar

StartChar: dong
Encoding: 8363 8363 73
Width: 594
GlyphClass: 2
Flags: W
LayerCount: 2
Fore
SplineSet
257 -15 m 0,0,1
 209 -15 209 -15 167.5 4.5 c 128,-1,2
 126 24 126 24 95.5 58.5 c 128,-1,3
 65 93 65 93 48 139.5 c 128,-1,4
 31 186 31 186 31 241 c 256,5,6
 31 296 31 296 48.5 342.5 c 128,-1,7
 66 389 66 389 97 424 c 128,-1,8
 128 459 128 459 170 478.5 c 128,-1,9
 212 498 212 498 261 498 c 0,10,11
 314 498 314 498 357 474 c 128,-1,12
 400 450 400 450 426 408 c 1,13,-1
 426 551 l 1,14,-1
 288 551 l 1,15,-1
 288 611 l 1,16,-1
 426 611 l 1,17,-1
 426 690 l 1,18,-1
 508 690 l 1,19,-1
 508 611 l 1,20,-1
 579 611 l 1,21,-1
 579 551 l 1,22,-1
 508 551 l 1,23,-1
 508 0 l 1,24,-1
 433 0 l 1,25,-1
 430 83 l 1,26,27
 403 37 403 37 358.5 11 c 128,-1,28
 314 -15 314 -15 257 -15 c 0,0,1
271 57 m 256,29,30
 317 57 317 57 352.5 80.5 c 128,-1,31
 388 104 388 104 408 146 c 128,-1,32
 428 188 428 188 428 241 c 256,33,34
 428 294 428 294 408 336 c 128,-1,35
 388 378 388 378 352.5 401.5 c 128,-1,36
 317 425 317 425 271 425 c 256,37,38
 225 425 225 425 189.5 401.5 c 128,-1,39
 154 378 154 378 134 336 c 128,-1,40
 114 294 114 294 114 241 c 256,41,42
 114 188 114 188 134 146 c 128,-1,43
 154 104 154 104 189.5 80.5 c 128,-1,44
 225 57 225 57 271 57 c 256,29,30
33 -142 m 1,45,-1
 33 -81 l 1,46,-1
 537 -81 l 1,47,-1
 537 -142 l 1,48,-1
 33 -142 l 1,45,-1
EndSplineSet
Validated: 1
EndChar

StartChar: currency
Encoding: 164 164 74
Width: 594
GlyphClass: 2
Flags: W
LayerCount: 2
Fore
SplineSet
59 166 m 1,0,-1
 136 246 l 1,1,2
 119 271 119 271 110 300.5 c 128,-1,3
 101 330 101 330 101 363 c 256,4,5
 101 396 101 396 110 425.5 c 128,-1,6
 119 455 119 455 136 480 c 1,7,-1
 59 560 l 1,8,-1
 107 608 l 1,9,-1
 183 529 l 1,10,11
 207 546 207 546 236 555.5 c 128,-1,12
 265 565 265 565 297 565 c 256,13,14
 329 565 329 565 358 555.5 c 128,-1,15
 387 546 387 546 411 529 c 1,16,-1
 487 608 l 1,17,-1
 535 560 l 1,18,-1
 458 480 l 1,19,20
 475 455 475 455 484 425.5 c 128,-1,21
 493 396 493 396 493 363 c 256,22,23
 493 330 493 330 484 300.5 c 128,-1,24
 475 271 475 271 458 246 c 1,25,-1
 535 166 l 1,26,-1
 487 118 l 1,27,-1
 411 197 l 1,28,29
 387 180 387 180 358 170.5 c 128,-1,30
 329 161 329 161 297 161 c 256,31,32
 265 161 265 161 236 170.5 c 128,-1,33
 207 180 207 180 183 197 c 1,34,-1
 107 118 l 1,35,-1
 59 166 l 1,0,-1
297 228 m 256,36,37
 332 228 332 228 360 245.5 c 128,-1,38
 388 263 388 263 403.5 293.5 c 128,-1,39
 419 324 419 324 419 363 c 256,40,41
 419 402 419 402 403.5 432.5 c 128,-1,42
 388 463 388 463 360 480.5 c 128,-1,43
 332 498 332 498 297 498 c 256,44,45
 262 498 262 498 234 480.5 c 128,-1,46
 206 463 206 463 190.5 432.5 c 128,-1,47
 175 402 175 402 175 363 c 256,48,49
 175 324 175 324 190.5 293.5 c 128,-1,50
 206 263 206 263 234 245.5 c 128,-1,51
 262 228 262 228 297 228 c 256,36,37
EndSplineSet
Validated: 1
EndChar

StartChar: asciicircum
Encoding: 94 94 75
Width: 594
GlyphClass: 2
Flags: W
LayerCount: 2
Fore
SplineSet
90 350 m 1,0,-1
 262 690 l 1,1,-1
 332 690 l 1,2,-1
 504 350 l 1,3,-1
 423 350 l 1,4,-1
 296 606 l 1,5,-1
 168 350 l 1,6,-1
 90 350 l 1,0,-1
EndSplineSet
Validated: 1
EndChar

StartChar: plus
Encoding: 43 43 76
Width: 594
GlyphClass: 2
Flags: W
LayerCount: 2
Fore
SplineSet
90 242 m 1,0,-1
 90 309 l 1,1,-1
 261 309 l 1,2,-1
 261 483 l 1,3,-1
 332 483 l 1,4,-1
 332 309 l 1,5,-1
 504 309 l 1,6,-1
 504 242 l 1,7,-1
 332 242 l 1,8,-1
 332 62 l 1,9,-1
 261 62 l 1,10,-1
 261 242 l 1,11,-1
 90 242 l 1,0,-1
EndSplineSet
Validated: 1
EndChar

StartChar: minus
Encoding: 8722 8722 77
Width: 594
GlyphClass: 2
Flags: W
LayerCount: 2
Fore
SplineSet
99 240 m 1,0,-1
 99 311 l 1,1,-1
 495 311 l 1,2,-1
 495 240 l 1,3,-1
 99 240 l 1,0,-1
EndSplineSet
Validated: 1
EndChar

StartChar: plusminus
Encoding: 177 177 78
Width: 594
GlyphClass: 2
Flags: W
LayerCount: 2
Fore
SplineSet
261 136 m 1,0,-1
 261 305 l 1,1,-1
 91 305 l 1,2,-1
 91 372 l 1,3,-1
 261 372 l 1,4,-1
 261 536 l 1,5,-1
 332 536 l 1,6,-1
 332 372 l 1,7,-1
 503 372 l 1,8,-1
 503 305 l 1,9,-1
 332 305 l 1,10,-1
 332 136 l 1,11,-1
 261 136 l 1,0,-1
101 0 m 1,12,-1
 101 71 l 1,13,-1
 493 71 l 1,14,-1
 493 0 l 1,15,-1
 101 0 l 1,12,-1
EndSplineSet
Validated: 1
EndChar

StartChar: equal
Encoding: 61 61 79
Width: 594
GlyphClass: 2
Flags: W
LayerCount: 2
Fore
SplineSet
94 353 m 1,0,-1
 94 424 l 1,1,-1
 500 424 l 1,2,-1
 500 353 l 1,3,-1
 94 353 l 1,0,-1
94 126 m 1,4,-1
 94 197 l 1,5,-1
 500 197 l 1,6,-1
 500 126 l 1,7,-1
 94 126 l 1,4,-1
EndSplineSet
Validated: 1
EndChar

StartChar: divide
Encoding: 247 247 80
Width: 594
GlyphClass: 2
Flags: W
LayerCount: 2
Fore
SplineSet
297 379 m 256,0,1
 276 379 276 379 261 394 c 128,-1,2
 246 409 246 409 246 430 c 256,3,4
 246 451 246 451 261 466 c 128,-1,5
 276 481 276 481 297 481 c 256,6,7
 318 481 318 481 333 466 c 128,-1,8
 348 451 348 451 348 430 c 256,9,10
 348 409 348 409 333 394 c 128,-1,11
 318 379 318 379 297 379 c 256,0,1
98 240 m 1,12,-1
 98 311 l 1,13,-1
 496 311 l 1,14,-1
 496 240 l 1,15,-1
 98 240 l 1,12,-1
297 70 m 256,16,17
 276 70 276 70 261 85 c 128,-1,18
 246 100 246 100 246 121 c 256,19,20
 246 142 246 142 261 157 c 128,-1,21
 276 172 276 172 297 172 c 256,22,23
 318 172 318 172 333 157 c 128,-1,24
 348 142 348 142 348 121 c 256,25,26
 348 100 348 100 333 85 c 128,-1,27
 318 70 318 70 297 70 c 256,16,17
EndSplineSet
Validated: 1
EndChar

StartChar: less
Encoding: 60 60 81
Width: 594
GlyphClass: 2
Flags: W
LayerCount: 2
Fore
SplineSet
462 472 m 1,0,-1
 462 398 l 1,1,-1
 184 276 l 1,2,-1
 462 155 l 1,3,-1
 462 78 l 1,4,-1
 104 242 l 1,5,-1
 104 308 l 1,6,-1
 462 472 l 1,0,-1
EndSplineSet
Validated: 1
EndChar

StartChar: greater
Encoding: 62 62 82
Width: 594
GlyphClass: 2
Flags: W
LayerCount: 2
Fore
SplineSet
132 78 m 1,0,-1
 132 152 l 1,1,-1
 410 274 l 1,2,-1
 132 395 l 1,3,-1
 132 472 l 1,4,-1
 490 308 l 1,5,-1
 490 242 l 1,6,-1
 132 78 l 1,0,-1
EndSplineSet
Validated: 1
EndChar

StartChar: asciitilde
Encoding: 126 126 83
Width: 594
GlyphClass: 2
Flags: W
LayerCount: 2
Fore
SplineSet
386 196 m 0,0,1
 361 196 361 196 341 204.5 c 128,-1,2
 321 213 321 213 304 225.5 c 128,-1,3
 287 238 287 238 272 250 c 128,-1,4
 257 262 257 262 242 270.5 c 128,-1,5
 227 279 227 279 211 279 c 0,6,7
 188 279 188 279 172 259 c 128,-1,8
 156 239 156 239 148 203 c 1,9,-1
 76 203 l 1,10,11
 88 276 88 276 123 315.5 c 128,-1,12
 158 355 158 355 208 355 c 0,13,14
 233 355 233 355 253 346.5 c 128,-1,15
 273 338 273 338 290 326 c 128,-1,16
 307 314 307 314 322 301.5 c 128,-1,17
 337 289 337 289 352 280.5 c 128,-1,18
 367 272 367 272 383 272 c 0,19,20
 406 272 406 272 422 292 c 128,-1,21
 438 312 438 312 446 348 c 1,22,-1
 518 348 l 1,23,24
 506 275 506 275 471 235.5 c 128,-1,25
 436 196 436 196 386 196 c 0,0,1
EndSplineSet
Validated: 1
EndChar

StartChar: logicalnot
Encoding: 172 172 84
Width: 594
GlyphClass: 2
Flags: W
LayerCount: 2
Fore
SplineSet
85 283 m 1,0,-1
 85 350 l 1,1,-1
 489 350 l 1,2,-1
 489 104 l 1,3,-1
 418 104 l 1,4,-1
 418 283 l 1,5,-1
 85 283 l 1,0,-1
EndSplineSet
Validated: 1
EndChar

StartChar: multiply
Encoding: 215 215 85
Width: 594
GlyphClass: 2
Flags: W
LayerCount: 2
Fore
SplineSet
150 84 m 1,0,-1
 104 130 l 1,1,-1
 251 277 l 1,2,-1
 111 417 l 1,3,-1
 157 463 l 1,4,-1
 297 323 l 1,5,-1
 437 463 l 1,6,-1
 483 417 l 1,7,-1
 343 277 l 1,8,-1
 490 130 l 1,9,-1
 444 84 l 1,10,-1
 297 231 l 1,11,-1
 150 84 l 1,0,-1
EndSplineSet
Validated: 1
EndChar

StartChar: underscore
Encoding: 95 95 86
Width: 546
GlyphClass: 2
Flags: W
LayerCount: 2
Fore
SplineSet
30 -132 m 1,0,-1
 30 -69 l 1,1,-1
 516 -69 l 1,2,-1
 516 -132 l 1,3,-1
 30 -132 l 1,0,-1
EndSplineSet
Validated: 1
EndChar

StartChar: section
Encoding: 167 167 87
Width: 494
GlyphClass: 2
Flags: W
LayerCount: 2
Fore
SplineSet
243 -95 m 0,0,1
 196 -95 196 -95 155.5 -80 c 128,-1,2
 115 -65 115 -65 84.5 -36.5 c 128,-1,3
 54 -8 54 -8 37 32 c 1,4,-1
 106 58 l 1,5,6
 152 -27 152 -27 246 -27 c 0,7,8
 281 -27 281 -27 307.5 -16 c 128,-1,9
 334 -5 334 -5 349 14.5 c 128,-1,10
 364 34 364 34 364 60 c 0,11,12
 364 93 364 93 336.5 118 c 128,-1,13
 309 143 309 143 257 151 c 2,14,-1
 209 159 l 2,15,16
 158 168 158 168 121 189 c 128,-1,17
 84 210 84 210 64.5 241 c 128,-1,18
 45 272 45 272 45 312 c 0,19,20
 45 360 45 360 70.5 396.5 c 128,-1,21
 96 433 96 433 141 451 c 1,22,23
 58 492 58 492 58 572 c 0,24,25
 58 617 58 617 82 651.5 c 128,-1,26
 106 686 106 686 149 705.5 c 128,-1,27
 192 725 192 725 248 725 c 0,28,29
 316 725 316 725 368 692 c 128,-1,30
 420 659 420 659 443 598 c 1,31,-1
 373 574 l 1,32,33
 354 614 354 614 321 635.5 c 128,-1,34
 288 657 288 657 245 657 c 0,35,36
 213 657 213 657 188.5 647 c 128,-1,37
 164 637 164 637 150.5 619.5 c 128,-1,38
 137 602 137 602 137 578 c 0,39,40
 137 546 137 546 164 523.5 c 128,-1,41
 191 501 191 501 247 492 c 2,42,-1
 295 484 l 2,43,44
 374 470 374 470 415.5 430.5 c 128,-1,45
 457 391 457 391 457 331 c 0,46,47
 457 282 457 282 430 245 c 128,-1,48
 403 208 403 208 357 191 c 1,49,50
 444 150 444 150 444 66 c 0,51,52
 444 31 444 31 429 1.5 c 128,-1,53
 414 -28 414 -28 387 -49.5 c 128,-1,54
 360 -71 360 -71 323.5 -83 c 128,-1,55
 287 -95 287 -95 243 -95 c 0,0,1
378 317 m 0,56,57
 378 354 378 354 352.5 378.5 c 128,-1,58
 327 403 327 403 274 413 c 2,59,-1
 246 418 l 2,60,61
 232 421 232 421 220 421 c 0,62,63
 193 421 193 421 171 408.5 c 128,-1,64
 149 396 149 396 136 374 c 128,-1,65
 123 352 123 352 123 325 c 0,66,67
 123 288 123 288 148.5 263.5 c 128,-1,68
 174 239 174 239 227 229 c 2,69,-1
 255 224 l 2,70,71
 268 221 268 221 281 221 c 0,72,73
 308 221 308 221 330 233.5 c 128,-1,74
 352 246 352 246 365 268 c 128,-1,75
 378 290 378 290 378 317 c 0,56,57
EndSplineSet
Validated: 1
EndChar

StartChar: paragraph
Encoding: 182 182 88
Width: 582
GlyphClass: 2
Flags: W
LayerCount: 2
Fore
SplineSet
286 -94 m 1,0,-1
 286 265 l 1,1,2
 212 270 212 270 158.5 298.5 c 128,-1,3
 105 327 105 327 76 375 c 128,-1,4
 47 423 47 423 47 487 c 0,5,6
 47 556 47 556 78.5 606 c 128,-1,7
 110 656 110 656 168 683 c 128,-1,8
 226 710 226 710 307 710 c 2,9,-1
 351 710 l 1,10,-1
 351 -94 l 1,11,-1
 286 -94 l 1,0,-1
432 -92 m 1,12,-1
 432 710 l 1,13,-1
 497 710 l 1,14,-1
 497 -92 l 1,15,-1
 432 -92 l 1,12,-1
EndSplineSet
Validated: 1
EndChar

StartChar: numbersign
Encoding: 35 35 89
Width: 657
GlyphClass: 2
Flags: W
LayerCount: 2
Fore
SplineSet
147 0 m 1,0,-1
 163 194 l 1,1,-1
 53 194 l 1,2,-1
 58 252 l 1,3,-1
 167 252 l 1,4,-1
 183 444 l 1,5,-1
 76 444 l 1,6,-1
 81 502 l 1,7,-1
 188 502 l 1,8,-1
 203 690 l 1,9,-1
 269 690 l 1,10,-1
 254 502 l 1,11,-1
 430 502 l 1,12,-1
 445 690 l 1,13,-1
 511 690 l 1,14,-1
 496 502 l 1,15,-1
 604 502 l 1,16,-1
 599 444 l 1,17,-1
 491 444 l 1,18,-1
 475 252 l 1,19,-1
 581 252 l 1,20,-1
 576 194 l 1,21,-1
 471 194 l 1,22,-1
 455 0 l 1,23,-1
 389 0 l 1,24,-1
 405 194 l 1,25,-1
 229 194 l 1,26,-1
 213 0 l 1,27,-1
 147 0 l 1,0,-1
233 252 m 1,28,-1
 409 252 l 1,29,-1
 425 444 l 1,30,-1
 249 444 l 1,31,-1
 233 252 l 1,28,-1
EndSplineSet
Validated: 1
EndChar

StartChar: bar
Encoding: 124 124 90
Width: 247
GlyphClass: 2
Flags: W
LayerCount: 2
Fore
SplineSet
88 -105 m 1,0,-1
 88 753 l 1,1,-1
 159 753 l 1,2,-1
 159 -105 l 1,3,-1
 88 -105 l 1,0,-1
EndSplineSet
Validated: 1
EndChar

StartChar: dagger
Encoding: 8224 8224 91
Width: 459
GlyphClass: 2
Flags: W
LayerCount: 2
Fore
SplineSet
193 -82 m 1,0,-1
 193 461 l 1,1,-1
 30 461 l 1,2,-1
 30 526 l 1,3,-1
 193 526 l 1,4,-1
 193 710 l 1,5,-1
 266 710 l 1,6,-1
 266 526 l 1,7,-1
 429 526 l 1,8,-1
 429 461 l 1,9,-1
 266 461 l 1,10,-1
 266 -82 l 1,11,-1
 193 -82 l 1,0,-1
EndSplineSet
Validated: 1
EndChar

StartChar: daggerdbl
Encoding: 8225 8225 92
Width: 514
GlyphClass: 2
Flags: W
LayerCount: 2
Fore
SplineSet
58 107 m 1,0,-1
 58 172 l 1,1,-1
 221 172 l 1,2,-1
 221 461 l 1,3,-1
 58 461 l 1,4,-1
 58 526 l 1,5,-1
 221 526 l 1,6,-1
 221 710 l 1,7,-1
 294 710 l 1,8,-1
 294 526 l 1,9,-1
 457 526 l 1,10,-1
 457 461 l 1,11,-1
 294 461 l 1,12,-1
 294 172 l 1,13,-1
 457 172 l 1,14,-1
 457 107 l 1,15,-1
 294 107 l 1,16,-1
 294 -82 l 1,17,-1
 221 -82 l 1,18,-1
 221 107 l 1,19,-1
 58 107 l 1,0,-1
EndSplineSet
Validated: 1
EndChar

StartChar: ampersand
Encoding: 38 38 93
Width: 686
GlyphClass: 2
Flags: W
LayerCount: 2
Fore
SplineSet
272 -20 m 0,0,1
 222 -20 222 -20 180 -5 c 128,-1,2
 138 10 138 10 107 37 c 128,-1,3
 76 64 76 64 59 100.5 c 128,-1,4
 42 137 42 137 42 181 c 0,5,6
 42 222 42 222 59 260 c 128,-1,7
 76 298 76 298 108 329.5 c 128,-1,8
 140 361 140 361 183 382 c 1,9,10
 138 429 138 429 116.5 471 c 128,-1,11
 95 513 95 513 95 556 c 0,12,13
 95 592 95 592 108.5 623 c 128,-1,14
 122 654 122 654 146 676.5 c 128,-1,15
 170 699 170 699 202 712 c 128,-1,16
 234 725 234 725 272 725 c 0,17,18
 322 725 322 725 361 704.5 c 128,-1,19
 400 684 400 684 422.5 648 c 128,-1,20
 445 612 445 612 445 566 c 0,21,22
 445 509 445 509 410 461 c 128,-1,23
 375 413 375 413 302 371 c 1,24,-1
 491 185 l 1,25,26
 514 225 514 225 528.5 275 c 128,-1,27
 543 325 543 325 548 384 c 1,28,-1
 624 377 l 1,29,30
 616 304 616 304 595.5 242.5 c 128,-1,31
 575 181 575 181 544 133 c 1,32,-1
 679 0 l 1,33,-1
 571 0 l 1,34,-1
 497 73 l 1,35,36
 453 28 453 28 396 4 c 128,-1,37
 339 -20 339 -20 272 -20 c 0,0,1
247 426 m 1,38,-1
 253 421 l 1,39,40
 367 478 367 478 367 563 c 0,41,42
 367 589 367 589 355 609.5 c 128,-1,43
 343 630 343 630 321.5 642 c 128,-1,44
 300 654 300 654 273 654 c 0,45,46
 245 654 245 654 223 640.5 c 128,-1,47
 201 627 201 627 188 604.5 c 128,-1,48
 175 582 175 582 175 554 c 0,49,50
 175 525 175 525 192 494.5 c 128,-1,51
 209 464 209 464 247 426 c 1,38,-1
126 186 m 0,52,53
 126 148 126 148 145.5 118 c 128,-1,54
 165 88 165 88 199.5 71.5 c 128,-1,55
 234 55 234 55 279 55 c 0,56,57
 327 55 327 55 369 73 c 128,-1,58
 411 91 411 91 445 124 c 1,59,-1
 232 335 l 1,60,61
 180 308 180 308 153 270 c 128,-1,62
 126 232 126 232 126 186 c 0,52,53
EndSplineSet
Validated: 1
EndChar

StartChar: asterisk
Encoding: 42 42 94
Width: 394
GlyphClass: 2
Flags: W
LayerCount: 2
Fore
SplineSet
113 354 m 1,0,-1
 59 394 l 1,1,-1
 152 512 l 1,2,-1
 13 551 l 1,3,-1
 33 615 l 1,4,-1
 170 564 l 1,5,-1
 163 710 l 1,6,-1
 231 710 l 1,7,-1
 224 564 l 1,8,-1
 361 615 l 1,9,-1
 381 551 l 1,10,-1
 242 512 l 1,11,-1
 335 394 l 1,12,-1
 281 354 l 1,13,-1
 197 481 l 1,14,-1
 113 354 l 1,0,-1
EndSplineSet
Validated: 1
EndChar

StartChar: hyphen
Encoding: 45 45 95
Width: 373
GlyphClass: 2
Flags: W
LayerCount: 2
Fore
SplineSet
49 239 m 1,0,-1
 49 312 l 1,1,-1
 324 312 l 1,2,-1
 324 239 l 1,3,-1
 49 239 l 1,0,-1
EndSplineSet
Validated: 1
Substitution2: "'case' Case-Sensitive Forms in Latin lookup 20 subtable" hyphen.aalt
Substitution2: "'aalt' Access All Alternates in Latin lookup 0 subtable" hyphen.aalt
EndChar

StartChar: endash
Encoding: 8211 8211 96
Width: 500
GlyphClass: 2
Flags: W
LayerCount: 2
Fore
SplineSet
0 243 m 1,0,-1
 0 308 l 1,1,-1
 500 308 l 1,2,-1
 500 243 l 1,3,-1
 0 243 l 1,0,-1
EndSplineSet
Validated: 1
Substitution2: "'case' Case-Sensitive Forms in Latin lookup 20 subtable" endash.aalt
Substitution2: "'aalt' Access All Alternates in Latin lookup 0 subtable" endash.aalt
EndChar

StartChar: emdash
Encoding: 8212 8212 97
Width: 1000
GlyphClass: 2
Flags: W
LayerCount: 2
Fore
SplineSet
0 243 m 1,0,-1
 0 308 l 1,1,-1
 1000 308 l 1,2,-1
 1000 243 l 1,3,-1
 0 243 l 1,0,-1
EndSplineSet
Validated: 1
Substitution2: "'case' Case-Sensitive Forms in Latin lookup 20 subtable" emdash.aalt
Substitution2: "'aalt' Access All Alternates in Latin lookup 0 subtable" emdash.aalt
EndChar

StartChar: parenleft
Encoding: 40 40 98
Width: 323
GlyphClass: 2
Flags: W
LayerCount: 2
Fore
SplineSet
305 -135 m 1,0,-1
 221 -135 l 1,1,2
 136 -38 136 -38 92.5 78.5 c 128,-1,3
 49 195 49 195 49 324 c 256,4,5
 49 453 49 453 92.5 569.5 c 128,-1,6
 136 686 136 686 221 783 c 1,7,-1
 305 783 l 1,8,9
 216 684 216 684 170 567 c 128,-1,10
 124 450 124 450 124 324 c 256,11,12
 124 198 124 198 170 81 c 128,-1,13
 216 -36 216 -36 305 -135 c 1,0,-1
EndSplineSet
Validated: 1
Substitution2: "'case' Case-Sensitive Forms in Latin lookup 20 subtable" parenleft.aalt
Substitution2: "'aalt' Access All Alternates in Latin lookup 0 subtable" parenleft.aalt
EndChar

StartChar: parenright
Encoding: 41 41 99
Width: 323
GlyphClass: 2
Flags: W
LayerCount: 2
Fore
SplineSet
18 783 m 1,0,-1
 102 783 l 1,1,2
 187 686 187 686 230.5 569.5 c 128,-1,3
 274 453 274 453 274 324 c 256,4,5
 274 195 274 195 230.5 78.5 c 128,-1,6
 187 -38 187 -38 102 -135 c 1,7,-1
 18 -135 l 1,8,9
 107 -36 107 -36 153 81 c 128,-1,10
 199 198 199 198 199 324 c 256,11,12
 199 450 199 450 153 567 c 128,-1,13
 107 684 107 684 18 783 c 1,0,-1
EndSplineSet
Validated: 1
Substitution2: "'case' Case-Sensitive Forms in Latin lookup 20 subtable" parenright.aalt
Substitution2: "'aalt' Access All Alternates in Latin lookup 0 subtable" parenright.aalt
EndChar

StartChar: slash
Encoding: 47 47 100
Width: 425
GlyphClass: 2
Flags: W
LayerCount: 2
Fore
SplineSet
13 -105 m 1,0,-1
 337 753 l 1,1,-1
 412 753 l 1,2,-1
 88 -105 l 1,3,-1
 13 -105 l 1,0,-1
EndSplineSet
Validated: 1
Substitution2: "'case' Case-Sensitive Forms in Latin lookup 20 subtable" slash.case
Substitution2: "Single Substitution lookup 18 subtable" fraction
Substitution2: "Single Substitution lookup 17 subtable" fraction
Substitution2: "Single Substitution lookup 16 subtable" fraction
AlternateSubs2: "'aalt' Access All Alternates in Latin lookup 1 subtable" fraction slash.case
EndChar

StartChar: backslash
Encoding: 92 92 101
Width: 425
GlyphClass: 2
Flags: W
LayerCount: 2
Fore
SplineSet
337 -105 m 1,0,-1
 13 753 l 1,1,-1
 88 753 l 1,2,-1
 412 -105 l 1,3,-1
 337 -105 l 1,0,-1
EndSplineSet
Validated: 1
Substitution2: "'case' Case-Sensitive Forms in Latin lookup 20 subtable" backslash.aalt
Substitution2: "'aalt' Access All Alternates in Latin lookup 0 subtable" backslash.aalt
EndChar

StartChar: bracketleft
Encoding: 91 91 102
Width: 340
GlyphClass: 2
Flags: W
LayerCount: 2
Fore
SplineSet
88 -135 m 1,0,-1
 88 783 l 1,1,-1
 300 783 l 1,2,-1
 300 721 l 1,3,-1
 159 721 l 1,4,-1
 159 -73 l 1,5,-1
 300 -73 l 1,6,-1
 300 -135 l 1,7,-1
 88 -135 l 1,0,-1
EndSplineSet
Validated: 1
Substitution2: "'case' Case-Sensitive Forms in Latin lookup 20 subtable" bracketleft.aalt
Substitution2: "'aalt' Access All Alternates in Latin lookup 0 subtable" bracketleft.aalt
EndChar

StartChar: bracketright
Encoding: 93 93 103
Width: 340
GlyphClass: 2
Flags: W
LayerCount: 2
Fore
SplineSet
40 -135 m 1,0,-1
 40 -73 l 1,1,-1
 181 -73 l 1,2,-1
 181 721 l 1,3,-1
 40 721 l 1,4,-1
 40 783 l 1,5,-1
 252 783 l 1,6,-1
 252 -135 l 1,7,-1
 40 -135 l 1,0,-1
EndSplineSet
Validated: 1
Substitution2: "'case' Case-Sensitive Forms in Latin lookup 20 subtable" bracketright.aalt
Substitution2: "'aalt' Access All Alternates in Latin lookup 0 subtable" bracketright.aalt
EndChar

StartChar: braceleft
Encoding: 123 123 104
Width: 346
GlyphClass: 2
Flags: W
LayerCount: 2
Fore
SplineSet
306 783 m 1,0,-1
 306 721 l 1,1,-1
 274 721 l 2,2,3
 230 721 230 721 205 696.5 c 128,-1,4
 180 672 180 672 180 623 c 0,5,6
 180 594 180 594 184 562.5 c 128,-1,7
 188 531 188 531 191.5 500 c 128,-1,8
 195 469 195 469 195 443 c 0,9,10
 195 412 195 412 186 387.5 c 128,-1,11
 177 363 177 363 162.5 346.5 c 128,-1,12
 148 330 148 330 130 324 c 1,13,14
 148 318 148 318 162.5 301.5 c 128,-1,15
 177 285 177 285 186 260.5 c 128,-1,16
 195 236 195 236 195 205 c 0,17,18
 195 179 195 179 191.5 148 c 128,-1,19
 188 117 188 117 184 85.5 c 128,-1,20
 180 54 180 54 180 25 c 0,21,22
 180 -24 180 -24 205 -48.5 c 128,-1,23
 230 -73 230 -73 274 -73 c 2,24,-1
 306 -73 l 1,25,-1
 306 -135 l 1,26,-1
 273 -135 l 2,27,28
 217 -135 217 -135 180 -115.5 c 128,-1,29
 143 -96 143 -96 125 -62 c 128,-1,30
 107 -28 107 -28 107 17 c 0,31,32
 107 51 107 51 110.5 86.5 c 128,-1,33
 114 122 114 122 118 154 c 128,-1,34
 122 186 122 186 122 211 c 0,35,36
 122 248 122 248 102 271 c 128,-1,37
 82 294 82 294 45 294 c 2,38,-1
 30 294 l 1,39,-1
 30 354 l 1,40,-1
 45 354 l 2,41,42
 82 354 82 354 102 377 c 128,-1,43
 122 400 122 400 122 437 c 0,44,45
 122 461 122 461 118 493.5 c 128,-1,46
 114 526 114 526 110.5 561.5 c 128,-1,47
 107 597 107 597 107 631 c 0,48,49
 107 676 107 676 125 710 c 128,-1,50
 143 744 143 744 180 763.5 c 128,-1,51
 217 783 217 783 273 783 c 2,52,-1
 306 783 l 1,0,-1
EndSplineSet
Validated: 1
Substitution2: "'case' Case-Sensitive Forms in Latin lookup 20 subtable" braceleft.aalt
Substitution2: "'aalt' Access All Alternates in Latin lookup 0 subtable" braceleft.aalt
EndChar

StartChar: braceright
Encoding: 125 125 105
Width: 346
GlyphClass: 2
Flags: W
LayerCount: 2
Fore
SplineSet
40 -135 m 1,0,-1
 40 -73 l 1,1,-1
 72 -73 l 2,2,3
 116 -73 116 -73 141 -48.5 c 128,-1,4
 166 -24 166 -24 166 25 c 0,5,6
 166 54 166 54 162 85.5 c 128,-1,7
 158 117 158 117 154.5 148 c 128,-1,8
 151 179 151 179 151 205 c 0,9,10
 151 236 151 236 160 260.5 c 128,-1,11
 169 285 169 285 183.5 301.5 c 128,-1,12
 198 318 198 318 216 324 c 1,13,14
 198 330 198 330 183.5 346.5 c 128,-1,15
 169 363 169 363 160 387.5 c 128,-1,16
 151 412 151 412 151 443 c 0,17,18
 151 469 151 469 154.5 500 c 128,-1,19
 158 531 158 531 162 562.5 c 128,-1,20
 166 594 166 594 166 623 c 0,21,22
 166 672 166 672 141 696.5 c 128,-1,23
 116 721 116 721 72 721 c 2,24,-1
 40 721 l 1,25,-1
 40 783 l 1,26,-1
 73 783 l 2,27,28
 129 783 129 783 166 763.5 c 128,-1,29
 203 744 203 744 221 710 c 128,-1,30
 239 676 239 676 239 631 c 0,31,32
 239 597 239 597 235.5 561.5 c 128,-1,33
 232 526 232 526 228 494 c 128,-1,34
 224 462 224 462 224 437 c 0,35,36
 224 400 224 400 244 377 c 128,-1,37
 264 354 264 354 301 354 c 2,38,-1
 316 354 l 1,39,-1
 316 294 l 1,40,-1
 301 294 l 2,41,42
 264 294 264 294 244 271 c 128,-1,43
 224 248 224 248 224 211 c 0,44,45
 224 187 224 187 228 154.5 c 128,-1,46
 232 122 232 122 235.5 86.5 c 128,-1,47
 239 51 239 51 239 17 c 0,48,49
 239 -28 239 -28 221 -62 c 128,-1,50
 203 -96 203 -96 166 -115.5 c 128,-1,51
 129 -135 129 -135 73 -135 c 2,52,-1
 40 -135 l 1,0,-1
EndSplineSet
Validated: 1
Substitution2: "'case' Case-Sensitive Forms in Latin lookup 20 subtable" braceright.aalt
Substitution2: "'aalt' Access All Alternates in Latin lookup 0 subtable" braceright.aalt
EndChar

StartChar: bullet
Encoding: 8226 8226 106
Width: 248
GlyphClass: 2
Flags: W
LayerCount: 2
Fore
SplineSet
124 197 m 256,0,1
 102 197 102 197 84 208 c 128,-1,2
 66 219 66 219 55 237 c 128,-1,3
 44 255 44 255 44 276 c 0,4,5
 44 298 44 298 55 315.5 c 128,-1,6
 66 333 66 333 84 344 c 128,-1,7
 102 355 102 355 124 355 c 256,8,9
 146 355 146 355 164 344 c 128,-1,10
 182 333 182 333 193 315.5 c 128,-1,11
 204 298 204 298 204 276 c 0,12,13
 204 255 204 255 193 237 c 128,-1,14
 182 219 182 219 164 208 c 128,-1,15
 146 197 146 197 124 197 c 256,0,1
EndSplineSet
Validated: 1
Substitution2: "'case' Case-Sensitive Forms in Latin lookup 20 subtable" bullet.aalt
Substitution2: "'aalt' Access All Alternates in Latin lookup 0 subtable" bullet.aalt
EndChar

StartChar: guilsinglleft
Encoding: 8249 8249 107
Width: 275
GlyphClass: 2
Flags: W
LayerCount: 2
Fore
SplineSet
159 97 m 1,0,-1
 20 285 l 1,1,-1
 159 473 l 1,2,-1
 240 473 l 1,3,-1
 104 285 l 1,4,-1
 240 97 l 1,5,-1
 159 97 l 1,0,-1
EndSplineSet
Validated: 1
Substitution2: "'case' Case-Sensitive Forms in Latin lookup 20 subtable" guilsinglleft.aalt
Substitution2: "'aalt' Access All Alternates in Latin lookup 0 subtable" guilsinglleft.aalt
EndChar

StartChar: guilsinglright
Encoding: 8250 8250 108
Width: 275
GlyphClass: 2
Flags: W
LayerCount: 2
Fore
SplineSet
35 97 m 1,0,-1
 171 285 l 1,1,-1
 35 473 l 1,2,-1
 116 473 l 1,3,-1
 255 285 l 1,4,-1
 116 97 l 1,5,-1
 35 97 l 1,0,-1
EndSplineSet
Validated: 1
Substitution2: "'case' Case-Sensitive Forms in Latin lookup 20 subtable" guilsinglright.aalt
Substitution2: "'aalt' Access All Alternates in Latin lookup 0 subtable" guilsinglright.aalt
EndChar

StartChar: at
Encoding: 64 64 111
Width: 1006
GlyphClass: 2
Flags: W
LayerCount: 2
Fore
SplineSet
486 26 m 0,0,1
 441 26 441 26 403 43.5 c 128,-1,2
 365 61 365 61 336.5 93 c 128,-1,3
 308 125 308 125 292 167.5 c 128,-1,4
 276 210 276 210 276 259 c 256,5,6
 276 308 276 308 292 351 c 128,-1,7
 308 394 308 394 336.5 426.5 c 128,-1,8
 365 459 365 459 402.5 477 c 128,-1,9
 440 495 440 495 484 495 c 0,10,11
 536 495 536 495 578 470 c 128,-1,12
 620 445 620 445 643 402 c 1,13,-1
 647 482 l 1,14,-1
 717 482 l 1,15,-1
 717 179 l 2,16,17
 717 139 717 139 735 116 c 128,-1,18
 753 93 753 93 781 93 c 0,19,20
 810 93 810 93 832 118 c 128,-1,21
 854 143 854 143 866.5 186 c 128,-1,22
 879 229 879 229 879 283 c 0,23,24
 879 362 879 362 852.5 427.5 c 128,-1,25
 826 493 826 493 777.5 540.5 c 128,-1,26
 729 588 729 588 663 614 c 128,-1,27
 597 640 597 640 518 640 c 0,28,29
 451 640 451 640 391.5 621 c 128,-1,30
 332 602 332 602 283.5 567 c 128,-1,31
 235 532 235 532 200.5 484.5 c 128,-1,32
 166 437 166 437 147 379 c 128,-1,33
 128 321 128 321 128 256 c 0,34,35
 128 192 128 192 146.5 134.5 c 128,-1,36
 165 77 165 77 199 29.5 c 128,-1,37
 233 -18 233 -18 280.5 -52.5 c 128,-1,38
 328 -87 328 -87 386 -105.5 c 128,-1,39
 444 -124 444 -124 510 -124 c 0,40,41
 568 -124 568 -124 625 -109 c 128,-1,42
 682 -94 682 -94 731 -65 c 1,43,-1
 764 -125 l 1,44,45
 652 -192 652 -192 503 -192 c 0,46,47
 426 -192 426 -192 358 -170 c 128,-1,48
 290 -148 290 -148 234 -107.5 c 128,-1,49
 178 -67 178 -67 137 -11.5 c 128,-1,50
 96 44 96 44 74 112 c 128,-1,51
 52 180 52 180 52 256 c 0,52,53
 52 333 52 333 74.5 401 c 128,-1,54
 97 469 97 469 139 525.5 c 128,-1,55
 181 582 181 582 239 623 c 128,-1,56
 297 664 297 664 367.5 686 c 128,-1,57
 438 708 438 708 518 708 c 0,58,59
 593 708 593 708 659.5 688 c 128,-1,60
 726 668 726 668 780 630.5 c 128,-1,61
 834 593 834 593 873 540.5 c 128,-1,62
 912 488 912 488 933 423.5 c 128,-1,63
 954 359 954 359 954 284 c 0,64,65
 954 227 954 227 941.5 179.5 c 128,-1,66
 929 132 929 132 906 98 c 128,-1,67
 883 64 883 64 850.5 45 c 128,-1,68
 818 26 818 26 778 26 c 0,69,70
 731 26 731 26 696.5 52.5 c 128,-1,71
 662 79 662 79 650 129 c 1,72,73
 627 80 627 80 584.5 53 c 128,-1,74
 542 26 542 26 486 26 c 0,0,1
498 97 m 256,75,76
 540 97 540 97 572.5 118 c 128,-1,77
 605 139 605 139 623.5 176 c 128,-1,78
 642 213 642 213 642 260 c 0,79,80
 642 308 642 308 623.5 345 c 128,-1,81
 605 382 605 382 572.5 403 c 128,-1,82
 540 424 540 424 498 424 c 256,83,84
 456 424 456 424 423.5 403 c 128,-1,85
 391 382 391 382 372.5 345 c 128,-1,86
 354 308 354 308 354 260 c 0,87,88
 354 213 354 213 372.5 176 c 128,-1,89
 391 139 391 139 423.5 118 c 128,-1,90
 456 97 456 97 498 97 c 256,75,76
EndSplineSet
Validated: 1
Substitution2: "'case' Case-Sensitive Forms in Latin lookup 20 subtable" at.aalt
Substitution2: "'aalt' Access All Alternates in Latin lookup 0 subtable" at.aalt
EndChar

StartChar: A
Encoding: 65 65 133
Width: 707
GlyphClass: 2
Flags: W
AnchorPoint: "Anchor-7" 353 760 basechar 0
AnchorPoint: "Anchor-4" 684 -50 basechar 0
LayerCount: 2
Fore
SplineSet
23 0 m 1,0,-1
 309 710 l 1,1,-1
 398 710 l 1,2,-1
 684 0 l 1,3,-1
 594 0 l 1,4,-1
 515 202 l 1,5,-1
 189 202 l 1,6,-1
 110 0 l 1,7,-1
 23 0 l 1,0,-1
219 279 m 1,8,-1
 484 279 l 1,9,-1
 352 617 l 1,10,-1
 219 279 l 1,8,-1
EndSplineSet
Validated: 1
Substitution2: "'ordn' Ordinals in Latin lookup 25 subtable" ordfeminine
Substitution2: "'aalt' Access All Alternates in Latin lookup 0 subtable" ordfeminine
Position2: "'case' Case-Sensitive Forms in Latin lookup 0 subtable" dx=10 dy=0 dh=20 dv=0
EndChar

StartChar: B
Encoding: 66 66 134
Width: 602
GlyphClass: 2
Flags: W
LayerCount: 2
Fore
SplineSet
78 0 m 1,0,-1
 78 710 l 1,1,-1
 305 710 l 2,2,3
 372 710 372 710 421 688 c 128,-1,4
 470 666 470 666 496.5 625 c 128,-1,5
 523 584 523 584 523 529 c 0,6,7
 523 477 523 477 498 438 c 128,-1,8
 473 399 473 399 427 377 c 1,9,10
 487 357 487 357 520 310 c 128,-1,11
 553 263 553 263 553 199 c 0,12,13
 553 138 553 138 523 93.5 c 128,-1,14
 493 49 493 49 438.5 24.5 c 128,-1,15
 384 0 384 0 310 0 c 2,16,-1
 78 0 l 1,0,-1
162 635 m 1,17,-1
 162 408 l 1,18,-1
 301 408 l 2,19,20
 367 408 367 408 402 437 c 128,-1,21
 437 466 437 466 437 521 c 256,22,23
 437 576 437 576 401 605.5 c 128,-1,24
 365 635 365 635 301 635 c 2,25,-1
 162 635 l 1,17,-1
162 75 m 1,26,-1
 308 75 l 2,27,28
 383 75 383 75 425 109 c 128,-1,29
 467 143 467 143 467 204 c 0,30,31
 467 266 467 266 425.5 300.5 c 128,-1,32
 384 335 384 335 308 335 c 2,33,-1
 162 335 l 1,34,-1
 162 75 l 1,26,-1
EndSplineSet
Validated: 1
Position2: "'case' Case-Sensitive Forms in Latin lookup 0 subtable" dx=10 dy=0 dh=20 dv=0
EndChar

StartChar: C
Encoding: 67 67 135
Width: 722
GlyphClass: 2
Flags: W
AnchorPoint: "Anchor-7" 388 760 basechar 0
AnchorPoint: "Anchor-1" 390 -50 basechar 0
LayerCount: 2
Fore
SplineSet
389 -20 m 0,0,1
 316 -20 316 -20 254.5 7.5 c 128,-1,2
 193 35 193 35 147.5 84.5 c 128,-1,3
 102 134 102 134 77 201.5 c 128,-1,4
 52 269 52 269 52 349 c 0,5,6
 52 414 52 414 68.5 471.5 c 128,-1,7
 85 529 85 529 115.5 576.5 c 128,-1,8
 146 624 146 624 187.5 658.5 c 128,-1,9
 229 693 229 693 280 711.5 c 128,-1,10
 331 730 331 730 388 730 c 0,11,12
 452 730 452 730 507.5 708 c 128,-1,13
 563 686 563 686 605.5 646 c 128,-1,14
 648 606 648 606 671 550 c 1,15,-1
 594 521 l 1,16,17
 563 584 563 584 509.5 618.5 c 128,-1,18
 456 653 456 653 389 653 c 0,19,20
 335 653 335 653 289.5 630 c 128,-1,21
 244 607 244 607 210 566 c 128,-1,22
 176 525 176 525 157 470 c 128,-1,23
 138 415 138 415 138 350 c 0,24,25
 138 286 138 286 156.5 232.5 c 128,-1,26
 175 179 175 179 209 139.5 c 128,-1,27
 243 100 243 100 289.5 78.5 c 128,-1,28
 336 57 336 57 391 57 c 0,29,30
 460 57 460 57 513.5 91 c 128,-1,31
 567 125 567 125 601 189 c 1,32,-1
 678 160 l 1,33,34
 654 104 654 104 611 63.5 c 128,-1,35
 568 23 568 23 511 1.5 c 128,-1,36
 454 -20 454 -20 389 -20 c 0,0,1
EndSplineSet
Validated: 1
Position2: "'case' Case-Sensitive Forms in Latin lookup 0 subtable" dx=10 dy=0 dh=20 dv=0
EndChar

StartChar: D
Encoding: 68 68 136
Width: 741
GlyphClass: 2
Flags: W
AnchorPoint: "Anchor-7" 344 760 basechar 0
LayerCount: 2
Fore
SplineSet
78 0 m 1,0,-1
 78 710 l 1,1,-1
 313 710 l 2,2,3
 398 710 398 710 467.5 685 c 128,-1,4
 537 660 537 660 586.5 613.5 c 128,-1,5
 636 567 636 567 662.5 502 c 128,-1,6
 689 437 689 437 689 357 c 0,7,8
 689 276 689 276 662.5 210.5 c 128,-1,9
 636 145 636 145 586.5 98 c 128,-1,10
 537 51 537 51 468 25.5 c 128,-1,11
 399 0 399 0 314 0 c 2,12,-1
 78 0 l 1,0,-1
162 77 m 1,13,-1
 311 77 l 2,14,15
 378 77 378 77 432 96.5 c 128,-1,16
 486 116 486 116 524 152.5 c 128,-1,17
 562 189 562 189 582.5 240 c 128,-1,18
 603 291 603 291 603 355 c 256,19,20
 603 419 603 419 582.5 470 c 128,-1,21
 562 521 562 521 523.5 557.5 c 128,-1,22
 485 594 485 594 431.5 613.5 c 128,-1,23
 378 633 378 633 311 633 c 2,24,-1
 162 633 l 1,25,-1
 162 77 l 1,13,-1
EndSplineSet
Validated: 1
Position2: "'case' Case-Sensitive Forms in Latin lookup 0 subtable" dx=10 dy=0 dh=20 dv=0
EndChar

StartChar: E
Encoding: 69 69 137
Width: 561
GlyphClass: 2
Flags: W
AnchorPoint: "Anchor-7" 282 760 basechar 0
AnchorPoint: "Anchor-4" 497 -50 basechar 0
LayerCount: 2
Fore
SplineSet
78 0 m 1,0,-1
 78 710 l 1,1,-1
 487 710 l 1,2,-1
 487 635 l 1,3,-1
 162 635 l 1,4,-1
 162 407 l 1,5,-1
 459 407 l 1,6,-1
 459 331 l 1,7,-1
 162 331 l 1,8,-1
 162 76 l 1,9,-1
 497 76 l 1,10,-1
 497 0 l 1,11,-1
 78 0 l 1,0,-1
EndSplineSet
Validated: 1
Position2: "'case' Case-Sensitive Forms in Latin lookup 0 subtable" dx=10 dy=0 dh=20 dv=0
EndChar

StartChar: F
Encoding: 70 70 138
Width: 530
GlyphClass: 2
Flags: W
LayerCount: 2
Fore
SplineSet
78 0 m 1,0,-1
 78 710 l 1,1,-1
 478 710 l 1,2,-1
 478 633 l 1,3,-1
 162 633 l 1,4,-1
 162 389 l 1,5,-1
 449 389 l 1,6,-1
 449 312 l 1,7,-1
 162 312 l 1,8,-1
 162 0 l 1,9,-1
 78 0 l 1,0,-1
EndSplineSet
Validated: 1
Position2: "'case' Case-Sensitive Forms in Latin lookup 0 subtable" dx=10 dy=0 dh=20 dv=0
EndChar

StartChar: G
Encoding: 71 71 139
Width: 781
GlyphClass: 2
Flags: W
AnchorPoint: "Anchor-7" 406 760 basechar 0
AnchorPoint: "Anchor-1" 402 -50 basechar 0
LayerCount: 2
Fore
SplineSet
404 -20 m 0,0,1
 327 -20 327 -20 262.5 7.5 c 128,-1,2
 198 35 198 35 151 85 c 128,-1,3
 104 135 104 135 78 203 c 128,-1,4
 52 271 52 271 52 351 c 0,5,6
 52 416 52 416 69 474 c 128,-1,7
 86 532 86 532 118 579 c 128,-1,8
 150 626 150 626 193.5 659.5 c 128,-1,9
 237 693 237 693 290 711.5 c 128,-1,10
 343 730 343 730 403 730 c 0,11,12
 467 730 467 730 523 709 c 128,-1,13
 579 688 579 688 621.5 649.5 c 128,-1,14
 664 611 664 611 690 558 c 1,15,-1
 612 526 l 1,16,17
 580 586 580 586 526.5 619.5 c 128,-1,18
 473 653 473 653 404 653 c 0,19,20
 347 653 347 653 298.5 630.5 c 128,-1,21
 250 608 250 608 214 567.5 c 128,-1,22
 178 527 178 527 158 472 c 128,-1,23
 138 417 138 417 138 352 c 0,24,25
 138 289 138 289 157.5 235 c 128,-1,26
 177 181 177 181 213 141 c 128,-1,27
 249 101 249 101 298 79 c 128,-1,28
 347 57 347 57 406 57 c 0,29,30
 457 57 457 57 499.5 74 c 128,-1,31
 542 91 542 91 574 122 c 128,-1,32
 606 153 606 153 624 196 c 128,-1,33
 642 239 642 239 643 292 c 1,34,-1
 426 292 l 1,35,-1
 426 366 l 1,36,-1
 729 366 l 1,37,-1
 729 309 l 2,38,39
 729 236 729 236 705 176 c 128,-1,40
 681 116 681 116 637.5 72 c 128,-1,41
 594 28 594 28 534.5 4 c 128,-1,42
 475 -20 475 -20 404 -20 c 0,0,1
EndSplineSet
Validated: 1
Position2: "'case' Case-Sensitive Forms in Latin lookup 0 subtable" dx=10 dy=0 dh=20 dv=0
EndChar

StartChar: H
Encoding: 72 72 140
Width: 718
GlyphClass: 2
Flags: W
AnchorPoint: "Anchor-1" 358 -50 basechar 0
LayerCount: 2
Fore
SplineSet
78 0 m 1,0,-1
 78 710 l 1,1,-1
 162 710 l 1,2,-1
 162 408 l 1,3,-1
 556 408 l 1,4,-1
 556 710 l 1,5,-1
 640 710 l 1,6,-1
 640 0 l 1,7,-1
 556 0 l 1,8,-1
 556 331 l 1,9,-1
 162 331 l 1,10,-1
 162 0 l 1,11,-1
 78 0 l 1,0,-1
EndSplineSet
Validated: 1
Position2: "'case' Case-Sensitive Forms in Latin lookup 0 subtable" dx=10 dy=0 dh=20 dv=0
EndChar

StartChar: I
Encoding: 73 73 141
Width: 240
GlyphClass: 2
Flags: W
AnchorPoint: "Anchor-7" 119 760 basechar 0
AnchorPoint: "Anchor-4" 162 -50 basechar 0
LayerCount: 2
Fore
SplineSet
78 0 m 1,0,-1
 78 710 l 1,1,-1
 162 710 l 1,2,-1
 162 0 l 1,3,-1
 78 0 l 1,0,-1
EndSplineSet
Validated: 1
Position2: "'case' Case-Sensitive Forms in Latin lookup 0 subtable" dx=10 dy=0 dh=20 dv=0
EndChar

StartChar: J
Encoding: 74 74 142
Width: 525
GlyphClass: 2
Flags: W
LayerCount: 2
Fore
SplineSet
239 -15 m 0,0,1
 188 -15 188 -15 145 4.5 c 128,-1,2
 102 24 102 24 70 60 c 128,-1,3
 38 96 38 96 21 147 c 1,4,-1
 101 171 l 1,5,6
 146 62 146 62 239 62 c 0,7,8
 280 62 280 62 310 81.5 c 128,-1,9
 340 101 340 101 356.5 137.5 c 128,-1,10
 373 174 373 174 373 223 c 2,11,-1
 373 710 l 1,12,-1
 457 710 l 1,13,-1
 457 224 l 2,14,15
 457 152 457 152 430 98 c 128,-1,16
 403 44 403 44 353.5 14.5 c 128,-1,17
 304 -15 304 -15 239 -15 c 0,0,1
EndSplineSet
Validated: 1
Position2: "'case' Case-Sensitive Forms in Latin lookup 0 subtable" dx=10 dy=0 dh=20 dv=0
EndChar

StartChar: K
Encoding: 75 75 143
Width: 647
GlyphClass: 2
Flags: W
AnchorPoint: "Anchor-1" 328 -50 basechar 0
LayerCount: 2
Fore
SplineSet
78 0 m 1,0,-1
 78 710 l 1,1,-1
 162 710 l 1,2,-1
 162 389 l 1,3,-1
 488 710 l 1,4,-1
 598 710 l 1,5,-1
 254 375 l 1,6,-1
 634 0 l 1,7,-1
 513 0 l 1,8,-1
 162 349 l 1,9,-1
 162 0 l 1,10,-1
 78 0 l 1,0,-1
EndSplineSet
Validated: 1
Position2: "'case' Case-Sensitive Forms in Latin lookup 0 subtable" dx=10 dy=0 dh=20 dv=0
EndChar

StartChar: L
Encoding: 76 76 144
Width: 525
GlyphClass: 2
Flags: W
AnchorPoint: "Anchor-8" 162 790 basechar 0
AnchorPoint: "Anchor-7" 120 760 basechar 0
AnchorPoint: "Anchor-1" 277 -50 basechar 0
LayerCount: 2
Fore
SplineSet
78 0 m 1,0,-1
 78 710 l 1,1,-1
 162 710 l 1,2,-1
 162 77 l 1,3,-1
 478 77 l 1,4,-1
 478 0 l 1,5,-1
 78 0 l 1,0,-1
EndSplineSet
Validated: 1
Position2: "'case' Case-Sensitive Forms in Latin lookup 0 subtable" dx=10 dy=0 dh=20 dv=0
EndChar

StartChar: M
Encoding: 77 77 145
Width: 832
GlyphClass: 2
Flags: W
LayerCount: 2
Fore
SplineSet
78 0 m 1,0,-1
 78 710 l 1,1,-1
 157 710 l 1,2,-1
 417 234 l 1,3,-1
 678 710 l 1,4,-1
 754 710 l 1,5,-1
 754 0 l 1,6,-1
 672 0 l 1,7,-1
 672 554 l 1,8,-1
 449 148 l 1,9,-1
 383 148 l 1,10,-1
 160 554 l 1,11,-1
 160 0 l 1,12,-1
 78 0 l 1,0,-1
EndSplineSet
Validated: 1
Position2: "'case' Case-Sensitive Forms in Latin lookup 0 subtable" dx=10 dy=0 dh=20 dv=0
EndChar

StartChar: N
Encoding: 78 78 146
Width: 708
GlyphClass: 2
Flags: W
AnchorPoint: "Anchor-7" 353 760 basechar 0
AnchorPoint: "Anchor-1" 353 -50 basechar 0
LayerCount: 2
Fore
SplineSet
78 0 m 1,0,-1
 78 710 l 1,1,-1
 152 710 l 1,2,-1
 548 141 l 1,3,-1
 548 710 l 1,4,-1
 630 710 l 1,5,-1
 630 0 l 1,6,-1
 556 0 l 1,7,-1
 160 569 l 1,8,-1
 160 0 l 1,9,-1
 78 0 l 1,0,-1
EndSplineSet
Validated: 1
Position2: "'case' Case-Sensitive Forms in Latin lookup 0 subtable" dx=10 dy=0 dh=20 dv=0
EndChar

StartChar: O
Encoding: 79 79 147
Width: 798
GlyphClass: 2
Flags: W
AnchorPoint: "Anchor-7" 399 760 basechar 0
LayerCount: 2
Fore
SplineSet
52 354 m 0,0,1
 52 419 52 419 69 476 c 128,-1,2
 86 533 86 533 117 580 c 128,-1,3
 148 627 148 627 191 660.5 c 128,-1,4
 234 694 234 694 287 712 c 128,-1,5
 340 730 340 730 401 730 c 0,6,7
 476 730 476 730 539 702.5 c 128,-1,8
 602 675 602 675 648.5 624.5 c 128,-1,9
 695 574 695 574 720.5 505.5 c 128,-1,10
 746 437 746 437 746 355 c 0,11,12
 746 290 746 290 729 233 c 128,-1,13
 712 176 712 176 681 129 c 128,-1,14
 650 82 650 82 607 48.5 c 128,-1,15
 564 15 564 15 511 -3 c 128,-1,16
 458 -21 458 -21 397 -21 c 0,17,18
 322 -21 322 -21 259 6.5 c 128,-1,19
 196 34 196 34 149.5 84.5 c 128,-1,20
 103 135 103 135 77.5 203.5 c 128,-1,21
 52 272 52 272 52 354 c 0,0,1
138 355 m 256,22,23
 138 290 138 290 157.5 235 c 128,-1,24
 177 180 177 180 212 140 c 128,-1,25
 247 100 247 100 294.5 78 c 128,-1,26
 342 56 342 56 399 56 c 256,27,28
 456 56 456 56 503.5 78 c 128,-1,29
 551 100 551 100 586 140 c 128,-1,30
 621 180 621 180 640.5 235 c 128,-1,31
 660 290 660 290 660 355 c 256,32,33
 660 420 660 420 640.5 474.5 c 128,-1,34
 621 529 621 529 586 569 c 128,-1,35
 551 609 551 609 503.5 631 c 128,-1,36
 456 653 456 653 399 653 c 256,37,38
 342 653 342 653 294.5 631 c 128,-1,39
 247 609 247 609 212 569 c 128,-1,40
 177 529 177 529 157.5 474.5 c 128,-1,41
 138 420 138 420 138 355 c 256,22,23
EndSplineSet
Validated: 1
Substitution2: "'ordn' Ordinals in Latin lookup 25 subtable" ordmasculine
Substitution2: "'aalt' Access All Alternates in Latin lookup 0 subtable" ordmasculine
Position2: "'case' Case-Sensitive Forms in Latin lookup 0 subtable" dx=10 dy=0 dh=20 dv=0
EndChar

StartChar: P
Encoding: 80 80 148
Width: 571
GlyphClass: 2
Flags: W
LayerCount: 2
Fore
SplineSet
78 0 m 1,0,-1
 78 710 l 1,1,-1
 274 710 l 2,2,3
 355 710 355 710 413.5 683 c 128,-1,4
 472 656 472 656 503 606 c 128,-1,5
 534 556 534 556 534 486 c 0,6,7
 534 418 534 418 501 368 c 128,-1,8
 468 318 468 318 407 291 c 128,-1,9
 346 264 346 264 263 264 c 0,10,11
 241 264 241 264 215.5 266 c 128,-1,12
 190 268 190 268 162 272 c 1,13,-1
 162 0 l 1,14,-1
 78 0 l 1,0,-1
162 635 m 1,15,-1
 162 347 l 1,16,17
 186 343 186 343 212.5 341 c 128,-1,18
 239 339 239 339 261 339 c 0,19,20
 350 339 350 339 399 377.5 c 128,-1,21
 448 416 448 416 448 487 c 0,22,23
 448 533 448 533 427 566 c 128,-1,24
 406 599 406 599 367 617 c 128,-1,25
 328 635 328 635 273 635 c 2,26,-1
 162 635 l 1,15,-1
EndSplineSet
Validated: 1
Position2: "'case' Case-Sensitive Forms in Latin lookup 0 subtable" dx=10 dy=0 dh=20 dv=0
EndChar

StartChar: Q
Encoding: 81 81 149
Width: 798
GlyphClass: 2
Flags: W
LayerCount: 2
Fore
SplineSet
52 354 m 0,0,1
 52 419 52 419 69 476 c 128,-1,2
 86 533 86 533 117 580 c 128,-1,3
 148 627 148 627 191 660.5 c 128,-1,4
 234 694 234 694 287 712 c 128,-1,5
 340 730 340 730 401 730 c 0,6,7
 476 730 476 730 539 702.5 c 128,-1,8
 602 675 602 675 648.5 624.5 c 128,-1,9
 695 574 695 574 720.5 505.5 c 128,-1,10
 746 437 746 437 746 355 c 0,11,12
 746 269 746 269 716.5 196.5 c 128,-1,13
 687 124 687 124 635 73 c 1,14,-1
 725 -38 l 1,15,-1
 666 -86 l 1,16,-1
 575 27 l 1,17,18
 536 4 536 4 491.5 -8.5 c 128,-1,19
 447 -21 447 -21 397 -21 c 0,20,21
 322 -21 322 -21 259 6.5 c 128,-1,22
 196 34 196 34 149.5 84.5 c 128,-1,23
 103 135 103 135 77.5 203.5 c 128,-1,24
 52 272 52 272 52 354 c 0,0,1
138 355 m 256,25,26
 138 290 138 290 157.5 235 c 128,-1,27
 177 180 177 180 212 140 c 128,-1,28
 247 100 247 100 294.5 78 c 128,-1,29
 342 56 342 56 399 56 c 0,30,31
 434 56 434 56 465.5 64.5 c 128,-1,32
 497 73 497 73 525 89 c 1,33,-1
 393 251 l 1,34,-1
 452 299 l 1,35,-1
 583 137 l 1,36,37
 619 177 619 177 639.5 233 c 128,-1,38
 660 289 660 289 660 355 c 0,39,40
 660 420 660 420 640.5 474.5 c 128,-1,41
 621 529 621 529 586 569 c 128,-1,42
 551 609 551 609 503.5 631 c 128,-1,43
 456 653 456 653 399 653 c 256,44,45
 342 653 342 653 294.5 631 c 128,-1,46
 247 609 247 609 212 569 c 128,-1,47
 177 529 177 529 157.5 474.5 c 128,-1,48
 138 420 138 420 138 355 c 256,25,26
EndSplineSet
Validated: 1
Position2: "'case' Case-Sensitive Forms in Latin lookup 0 subtable" dx=10 dy=0 dh=20 dv=0
EndChar

StartChar: R
Encoding: 82 82 150
Width: 600
GlyphClass: 2
Flags: W
AnchorPoint: "Anchor-7" 266 760 basechar 0
LayerCount: 2
Fore
SplineSet
78 0 m 1,0,-1
 78 710 l 1,1,-1
 271 710 l 2,2,3
 352 710 352 710 411.5 684 c 128,-1,4
 471 658 471 658 503 610 c 128,-1,5
 535 562 535 562 535 497 c 0,6,7
 535 430 535 430 498.5 379 c 128,-1,8
 462 328 462 328 397 302 c 1,9,-1
 569 0 l 1,10,-1
 471 0 l 1,11,-1
 317 280 l 1,12,13
 304 279 304 279 288.5 278 c 128,-1,14
 273 277 273 277 257 277 c 0,15,16
 237 277 237 277 212.5 279 c 128,-1,17
 188 281 188 281 162 285 c 1,18,-1
 162 0 l 1,19,-1
 78 0 l 1,0,-1
162 635 m 1,20,-1
 162 360 l 1,21,22
 185 356 185 356 211.5 354 c 128,-1,23
 238 352 238 352 260 352 c 0,24,25
 351 352 351 352 400 389 c 128,-1,26
 449 426 449 426 449 493 c 256,27,28
 449 560 449 560 402 597.5 c 128,-1,29
 355 635 355 635 271 635 c 2,30,-1
 162 635 l 1,20,-1
EndSplineSet
Validated: 1
Position2: "'case' Case-Sensitive Forms in Latin lookup 0 subtable" dx=10 dy=0 dh=20 dv=0
EndChar

StartChar: S
Encoding: 83 83 151
Width: 551
GlyphClass: 2
Flags: W
AnchorPoint: "Anchor-7" 274 760 basechar 0
AnchorPoint: "Anchor-1" 272 -50 basechar 0
LayerCount: 2
Fore
SplineSet
274 -15 m 0,0,1
 218 -15 218 -15 170 4.5 c 128,-1,2
 122 24 122 24 87 60 c 128,-1,3
 52 96 52 96 36 145 c 1,4,-1
 115 170 l 1,5,6
 135 118 135 118 176.5 89 c 128,-1,7
 218 60 218 60 273 60 c 0,8,9
 316 60 316 60 350.5 77.5 c 128,-1,10
 385 95 385 95 404.5 125.5 c 128,-1,11
 424 156 424 156 424 194 c 0,12,13
 424 243 424 243 390.5 274.5 c 128,-1,14
 357 306 357 306 294 320 c 2,15,-1
 250 330 l 2,16,17
 152 352 152 352 103 402 c 128,-1,18
 54 452 54 452 54 525 c 0,19,20
 54 569 54 569 70.5 605.5 c 128,-1,21
 87 642 87 642 117 669 c 128,-1,22
 147 696 147 696 186.5 710.5 c 128,-1,23
 226 725 226 725 272 725 c 0,24,25
 326 725 326 725 371.5 705.5 c 128,-1,26
 417 686 417 686 450 650 c 128,-1,27
 483 614 483 614 498 566 c 1,28,-1
 419 541 l 1,29,30
 399 594 399 594 361 622 c 128,-1,31
 323 650 323 650 272 650 c 0,32,33
 233 650 233 650 203 634.5 c 128,-1,34
 173 619 173 619 156 592.5 c 128,-1,35
 139 566 139 566 139 531 c 0,36,37
 139 485 139 485 172 455.5 c 128,-1,38
 205 426 205 426 277 409 c 2,39,-1
 321 399 l 2,40,41
 416 377 416 377 462.5 325 c 128,-1,42
 509 273 509 273 509 199 c 0,43,44
 509 152 509 152 491.5 112.5 c 128,-1,45
 474 73 474 73 442.5 44.5 c 128,-1,46
 411 16 411 16 368 0.5 c 128,-1,47
 325 -15 325 -15 274 -15 c 0,0,1
EndSplineSet
Validated: 1
Position2: "'case' Case-Sensitive Forms in Latin lookup 0 subtable" dx=10 dy=0 dh=20 dv=0
EndChar

StartChar: T
Encoding: 84 84 152
Width: 614
GlyphClass: 2
Flags: W
AnchorPoint: "Anchor-7" 307 760 basechar 0
AnchorPoint: "Anchor-1" 307 -50 basechar 0
LayerCount: 2
Fore
SplineSet
265 0 m 1,0,-1
 265 633 l 1,1,-1
 48 633 l 1,2,-1
 48 710 l 1,3,-1
 566 710 l 1,4,-1
 566 633 l 1,5,-1
 349 633 l 1,6,-1
 349 0 l 1,7,-1
 265 0 l 1,0,-1
EndSplineSet
Validated: 1
Position2: "'case' Case-Sensitive Forms in Latin lookup 0 subtable" dx=10 dy=0 dh=20 dv=0
EndChar

StartChar: U
Encoding: 85 85 153
Width: 698
GlyphClass: 2
Flags: W
AnchorPoint: "Anchor-7" 348 760 basechar 0
AnchorPoint: "Anchor-5" 538 -50 basechar 0
LayerCount: 2
Fore
SplineSet
348 -20 m 256,0,1
 284 -20 284 -20 232.5 0.5 c 128,-1,2
 181 21 181 21 144 60 c 128,-1,3
 107 99 107 99 87.5 153.5 c 128,-1,4
 68 208 68 208 68 275 c 2,5,-1
 68 710 l 1,6,-1
 152 710 l 1,7,-1
 152 278 l 2,8,9
 152 210 152 210 176 160.5 c 128,-1,10
 200 111 200 111 244 84 c 128,-1,11
 288 57 288 57 349 57 c 256,12,13
 410 57 410 57 454 84 c 128,-1,14
 498 111 498 111 522 160.5 c 128,-1,15
 546 210 546 210 546 278 c 2,16,-1
 546 710 l 1,17,-1
 630 710 l 1,18,-1
 630 275 l 2,19,20
 630 208 630 208 610 154 c 128,-1,21
 590 100 590 100 553 61 c 128,-1,22
 516 22 516 22 464 1 c 128,-1,23
 412 -20 412 -20 348 -20 c 256,0,1
EndSplineSet
Validated: 1
Position2: "'case' Case-Sensitive Forms in Latin lookup 0 subtable" dx=10 dy=0 dh=20 dv=0
EndChar

StartChar: V
Encoding: 86 86 154
Width: 683
GlyphClass: 2
Flags: W
LayerCount: 2
Fore
SplineSet
297 0 m 1,0,-1
 23 710 l 1,1,-1
 115 710 l 1,2,-1
 344 98 l 1,3,-1
 572 710 l 1,4,-1
 660 710 l 1,5,-1
 386 0 l 1,6,-1
 297 0 l 1,0,-1
EndSplineSet
Validated: 1
Position2: "'case' Case-Sensitive Forms in Latin lookup 0 subtable" dx=10 dy=0 dh=20 dv=0
EndChar

StartChar: W
Encoding: 87 87 155
Width: 1008
GlyphClass: 2
Flags: W
AnchorPoint: "Anchor-7" 503 760 basechar 0
LayerCount: 2
Fore
SplineSet
974 710 m 1,0,-1
 761 0 l 1,1,-1
 675 0 l 1,2,-1
 504 604 l 1,3,-1
 334 0 l 1,4,-1
 247 0 l 1,5,-1
 34 710 l 1,6,-1
 125 710 l 1,7,-1
 292 108 l 1,8,-1
 462 710 l 1,9,-1
 548 710 l 1,10,-1
 720 108 l 1,11,-1
 887 710 l 1,12,-1
 974 710 l 1,0,-1
EndSplineSet
Validated: 1
Position2: "'case' Case-Sensitive Forms in Latin lookup 0 subtable" dx=10 dy=0 dh=20 dv=0
EndChar

StartChar: X
Encoding: 88 88 156
Width: 640
GlyphClass: 2
Flags: W
LayerCount: 2
Fore
SplineSet
14 0 m 1,0,-1
 273 375 l 1,1,-1
 42 710 l 1,2,-1
 141 710 l 1,3,-1
 322 437 l 1,4,-1
 502 710 l 1,5,-1
 598 710 l 1,6,-1
 367 375 l 1,7,-1
 626 0 l 1,8,-1
 522 0 l 1,9,-1
 318 308 l 1,10,-1
 114 0 l 1,11,-1
 14 0 l 1,0,-1
EndSplineSet
Validated: 1
Position2: "'case' Case-Sensitive Forms in Latin lookup 0 subtable" dx=10 dy=0 dh=20 dv=0
EndChar

StartChar: Y
Encoding: 89 89 157
Width: 620
GlyphClass: 2
Flags: W
AnchorPoint: "Anchor-7" 310 760 basechar 0
LayerCount: 2
Fore
SplineSet
268 0 m 1,0,-1
 268 286 l 1,1,-1
 18 710 l 1,2,-1
 114 710 l 1,3,-1
 311 362 l 1,4,-1
 508 710 l 1,5,-1
 602 710 l 1,6,-1
 352 286 l 1,7,-1
 352 0 l 1,8,-1
 268 0 l 1,0,-1
EndSplineSet
Validated: 1
Position2: "'case' Case-Sensitive Forms in Latin lookup 0 subtable" dx=10 dy=0 dh=20 dv=0
EndChar

StartChar: Z
Encoding: 90 90 158
Width: 616
GlyphClass: 2
Flags: W
AnchorPoint: "Anchor-7" 305 760 basechar 0
LayerCount: 2
Fore
SplineSet
47 0 m 1,0,-1
 47 64 l 1,1,-1
 440 634 l 1,2,-1
 62 634 l 1,3,-1
 62 710 l 1,4,-1
 547 710 l 1,5,-1
 547 646 l 1,6,-1
 154 76 l 1,7,-1
 569 76 l 1,8,-1
 569 0 l 1,9,-1
 47 0 l 1,0,-1
EndSplineSet
Validated: 1
Position2: "'case' Case-Sensitive Forms in Latin lookup 0 subtable" dx=10 dy=0 dh=20 dv=0
EndChar

StartChar: a
Encoding: 97 97 159
Width: 540
GlyphClass: 2
Flags: W
AnchorPoint: "Anchor-6" 268 562 basechar 0
AnchorPoint: "Anchor-2" 474 -50 basechar 0
LayerCount: 2
Fore
SplineSet
230 -15 m 0,0,1
 176 -15 176 -15 134 5.5 c 128,-1,2
 92 26 92 26 68.5 62 c 128,-1,3
 45 98 45 98 45 145 c 0,4,5
 45 196 45 196 71.5 233 c 128,-1,6
 98 270 98 270 146 290.5 c 128,-1,7
 194 311 194 311 258 311 c 0,8,9
 294 311 294 311 331 303 c 128,-1,10
 368 295 368 295 397 282 c 1,11,-1
 397 320 l 2,12,13
 397 362 397 362 380.5 393.5 c 128,-1,14
 364 425 364 425 335 442.5 c 128,-1,15
 306 460 306 460 267 460 c 0,16,17
 220 460 220 460 185.5 438 c 128,-1,18
 151 416 151 416 134 376 c 1,19,-1
 64 400 l 1,20,21
 78 440 78 440 107.5 469 c 128,-1,22
 137 498 137 498 178.5 514 c 128,-1,23
 220 530 220 530 268 530 c 0,24,25
 330 530 330 530 376.5 503.5 c 128,-1,26
 423 477 423 477 448.5 429.5 c 128,-1,27
 474 382 474 382 474 318 c 2,28,-1
 474 0 l 1,29,-1
 404 0 l 1,30,-1
 399 80 l 1,31,32
 377 37 377 37 332.5 11 c 128,-1,33
 288 -15 288 -15 230 -15 c 0,0,1
126 148 m 0,34,35
 126 119 126 119 141 97.5 c 128,-1,36
 156 76 156 76 183 64 c 128,-1,37
 210 52 210 52 245 52 c 0,38,39
 288 52 288 52 322.5 71.5 c 128,-1,40
 357 91 357 91 377 124.5 c 128,-1,41
 397 158 397 158 397 201 c 2,42,-1
 397 220 l 1,43,44
 364 233 364 233 330.5 240.5 c 128,-1,45
 297 248 297 248 267 248 c 0,46,47
 201 248 201 248 163.5 221 c 128,-1,48
 126 194 126 194 126 148 c 0,34,35
EndSplineSet
Validated: 1
Substitution2: "'ordn' Ordinals in Latin lookup 25 subtable" ordfeminine
Substitution2: "'ss01' Style Set 1 in Latin lookup 14 subtable" a.ss01
Substitution2: "'aalt' Access All Alternates in Latin lookup 0 subtable" ordfeminine
EndChar

StartChar: b
Encoding: 98 98 160
Width: 622
GlyphClass: 2
Flags: W
LayerCount: 2
Fore
SplineSet
70 0 m 1,0,-1
 70 742 l 1,1,-1
 150 742 l 1,2,-1
 150 425 l 1,3,4
 178 474 178 474 226.5 502.5 c 128,-1,5
 275 531 275 531 336 531 c 0,6,7
 387 531 387 531 431 510.5 c 128,-1,8
 475 490 475 490 508 453 c 128,-1,9
 541 416 541 416 559.5 366.5 c 128,-1,10
 578 317 578 317 578 259 c 256,11,12
 578 201 578 201 559.5 151 c 128,-1,13
 541 101 541 101 507.5 64 c 128,-1,14
 474 27 474 27 429 6 c 128,-1,15
 384 -15 384 -15 332 -15 c 0,16,17
 272 -15 272 -15 223 14 c 128,-1,18
 174 43 174 43 146 94 c 1,19,-1
 142 0 l 1,20,-1
 70 0 l 1,0,-1
322 58 m 256,21,22
 360 58 360 58 391.5 73 c 128,-1,23
 423 88 423 88 446.5 114.5 c 128,-1,24
 470 141 470 141 483 177.5 c 128,-1,25
 496 214 496 214 496 258 c 256,26,27
 496 302 496 302 483 338.5 c 128,-1,28
 470 375 470 375 446.5 401.5 c 128,-1,29
 423 428 423 428 391.5 443 c 128,-1,30
 360 458 360 458 322 458 c 256,31,32
 284 458 284 458 252.5 443 c 128,-1,33
 221 428 221 428 197.5 401.5 c 128,-1,34
 174 375 174 375 161 338.5 c 128,-1,35
 148 302 148 302 148 258 c 256,36,37
 148 214 148 214 161 177.5 c 128,-1,38
 174 141 174 141 197.5 114.5 c 128,-1,39
 221 88 221 88 252.5 73 c 128,-1,40
 284 58 284 58 322 58 c 256,21,22
EndSplineSet
Validated: 1
EndChar

StartChar: c
Encoding: 99 99 161
Width: 546
GlyphClass: 2
Flags: W
AnchorPoint: "Anchor-6" 294 562 basechar 0
AnchorPoint: "Anchor-0" 293 -50 basechar 0
LayerCount: 2
Fore
SplineSet
292 -15 m 0,0,1
 239 -15 239 -15 194 5 c 128,-1,2
 149 25 149 25 115 61.5 c 128,-1,3
 81 98 81 98 62.5 147 c 128,-1,4
 44 196 44 196 44 254 c 256,5,6
 44 312 44 312 63 362.5 c 128,-1,7
 82 413 82 413 116 451 c 128,-1,8
 150 489 150 489 196 510 c 128,-1,9
 242 531 242 531 296 531 c 0,10,11
 346 531 346 531 386.5 513 c 128,-1,12
 427 495 427 495 456.5 464 c 128,-1,13
 486 433 486 433 502 393 c 1,14,-1
 429 368 l 1,15,16
 407 410 407 410 372 434 c 128,-1,17
 337 458 337 458 293 458 c 0,18,19
 257 458 257 458 227 442.5 c 128,-1,20
 197 427 197 427 174 400 c 128,-1,21
 151 373 151 373 138.5 335.5 c 128,-1,22
 126 298 126 298 126 255 c 256,23,24
 126 212 126 212 138.5 176 c 128,-1,25
 151 140 151 140 173 113.5 c 128,-1,26
 195 87 195 87 225.5 72.5 c 128,-1,27
 256 58 256 58 292 58 c 0,28,29
 338 58 338 58 376.5 81.5 c 128,-1,30
 415 105 415 105 435 147 c 1,31,-1
 508 122 l 1,32,33
 492 80 492 80 459.5 49.5 c 128,-1,34
 427 19 427 19 383.5 2 c 128,-1,35
 340 -15 340 -15 292 -15 c 0,0,1
EndSplineSet
Validated: 1
EndChar

StartChar: d
Encoding: 100 100 162
Width: 622
GlyphClass: 2
Flags: W
AnchorPoint: "Anchor-8" 552 790 basechar 0
LayerCount: 2
Fore
SplineSet
286 -15 m 0,0,1
 235 -15 235 -15 191 5.5 c 128,-1,2
 147 26 147 26 114 63 c 128,-1,3
 81 100 81 100 62.5 149.5 c 128,-1,4
 44 199 44 199 44 257 c 256,5,6
 44 315 44 315 62.5 365 c 128,-1,7
 81 415 81 415 114.5 452 c 128,-1,8
 148 489 148 489 193 510 c 128,-1,9
 238 531 238 531 290 531 c 0,10,11
 349 531 349 531 396.5 504 c 128,-1,12
 444 477 444 477 472 428 c 1,13,-1
 472 742 l 1,14,-1
 552 742 l 1,15,-1
 552 0 l 1,16,-1
 480 0 l 1,17,-1
 476 98 l 1,18,19
 448 45 448 45 398.5 15 c 128,-1,20
 349 -15 349 -15 286 -15 c 0,0,1
300 58 m 256,21,22
 338 58 338 58 369.5 73 c 128,-1,23
 401 88 401 88 424.5 114.5 c 128,-1,24
 448 141 448 141 461 177.5 c 128,-1,25
 474 214 474 214 474 258 c 256,26,27
 474 302 474 302 461 338.5 c 128,-1,28
 448 375 448 375 424.5 401.5 c 128,-1,29
 401 428 401 428 369.5 443 c 128,-1,30
 338 458 338 458 300 458 c 256,31,32
 262 458 262 458 230.5 443 c 128,-1,33
 199 428 199 428 175.5 401.5 c 128,-1,34
 152 375 152 375 139 338.5 c 128,-1,35
 126 302 126 302 126 258 c 256,36,37
 126 214 126 214 139 177.5 c 128,-1,38
 152 141 152 141 175.5 114.5 c 128,-1,39
 199 88 199 88 230.5 73 c 128,-1,40
 262 58 262 58 300 58 c 256,21,22
EndSplineSet
Validated: 1
EndChar

StartChar: e
Encoding: 101 101 163
Width: 572
GlyphClass: 2
Flags: W
AnchorPoint: "Anchor-6" 291 562 basechar 0
AnchorPoint: "Anchor-3" 460 -50 basechar 0
LayerCount: 2
Fore
SplineSet
304 -15 m 0,0,1
 247 -15 247 -15 199.5 5 c 128,-1,2
 152 25 152 25 117 61.5 c 128,-1,3
 82 98 82 98 63 147.5 c 128,-1,4
 44 197 44 197 44 257 c 0,5,6
 44 316 44 316 62.5 365.5 c 128,-1,7
 81 415 81 415 114.5 452 c 128,-1,8
 148 489 148 489 193 509.5 c 128,-1,9
 238 530 238 530 291 530 c 0,10,11
 342 530 342 530 385.5 511 c 128,-1,12
 429 492 429 492 461 458 c 128,-1,13
 493 424 493 424 510.5 377 c 128,-1,14
 528 330 528 330 528 275 c 2,15,-1
 528 242 l 1,16,-1
 127 242 l 1,17,18
 131 186 131 186 153.5 144 c 128,-1,19
 176 102 176 102 214 79 c 128,-1,20
 252 56 252 56 302 56 c 0,21,22
 351 56 351 56 387.5 76.5 c 128,-1,23
 424 97 424 97 450 137 c 1,24,-1
 518 106 l 1,25,26
 498 68 498 68 466 41 c 128,-1,27
 434 14 434 14 392.5 -0.5 c 128,-1,28
 351 -15 351 -15 304 -15 c 0,0,1
291 462 m 256,29,30
 250 462 250 462 216.5 442 c 128,-1,31
 183 422 183 422 160.5 386.5 c 128,-1,32
 138 351 138 351 131 304 c 1,33,-1
 444 304 l 1,34,35
 440 351 440 351 419 386.5 c 128,-1,36
 398 422 398 422 365 442 c 128,-1,37
 332 462 332 462 291 462 c 256,29,30
EndSplineSet
Validated: 1
EndChar

StartChar: f
Encoding: 102 102 164
Width: 378
GlyphClass: 2
Flags: W
LayerCount: 2
Fore
SplineSet
111 0 m 1,0,-1
 111 448 l 1,1,-1
 16 448 l 1,2,-1
 16 516 l 1,3,-1
 111 516 l 1,4,-1
 111 564 l 2,5,6
 111 621 111 621 132 663.5 c 128,-1,7
 153 706 153 706 191.5 729 c 128,-1,8
 230 752 230 752 281 752 c 0,9,10
 335 752 335 752 378 726 c 1,11,-1
 355 664 l 1,12,13
 340 672 340 672 322 677 c 128,-1,14
 304 682 304 682 286 682 c 0,15,16
 239 682 239 682 215 651 c 128,-1,17
 191 620 191 620 191 562 c 2,18,-1
 191 516 l 1,19,-1
 354 516 l 1,20,-1
 354 448 l 1,21,-1
 191 448 l 1,22,-1
 191 0 l 1,23,-1
 111 0 l 1,0,-1
EndSplineSet
Validated: 1
EndChar

StartChar: g
Encoding: 103 103 165
Width: 616
GlyphClass: 2
Flags: W
AnchorPoint: "Anchor-6" 300 562 basechar 0
LayerCount: 2
Fore
SplineSet
283 5 m 0,0,1
 232 5 232 5 188.5 25 c 128,-1,2
 145 45 145 45 112.5 80.5 c 128,-1,3
 80 116 80 116 62 164 c 128,-1,4
 44 212 44 212 44 267 c 0,5,6
 44 323 44 323 62.5 371 c 128,-1,7
 81 419 81 419 114 455 c 128,-1,8
 147 491 147 491 191.5 511 c 128,-1,9
 236 531 236 531 287 531 c 0,10,11
 346 531 346 531 394.5 503 c 128,-1,12
 443 475 443 475 470 426 c 1,13,-1
 474 516 l 1,14,-1
 546 516 l 1,15,-1
 546 44 l 2,16,17
 546 -15 546 -15 528 -63.5 c 128,-1,18
 510 -112 510 -112 477 -147 c 128,-1,19
 444 -182 444 -182 398 -200.5 c 128,-1,20
 352 -219 352 -219 296 -219 c 0,21,22
 247 -219 247 -219 204 -204.5 c 128,-1,23
 161 -190 161 -190 127.5 -162.5 c 128,-1,24
 94 -135 94 -135 72 -97 c 1,25,-1
 139 -63 l 1,26,27
 168 -105 168 -105 207.5 -127.5 c 128,-1,28
 247 -150 247 -150 296 -150 c 0,29,30
 348 -150 348 -150 386.5 -126.5 c 128,-1,31
 425 -103 425 -103 445.5 -60 c 128,-1,32
 466 -17 466 -17 466 41 c 2,33,-1
 466 107 l 1,34,35
 438 59 438 59 390 32 c 128,-1,36
 342 5 342 5 283 5 c 0,0,1
297 78 m 256,37,38
 334 78 334 78 365.5 92 c 128,-1,39
 397 106 397 106 420 131.5 c 128,-1,40
 443 157 443 157 455.5 192 c 128,-1,41
 468 227 468 227 468 268 c 256,42,43
 468 309 468 309 455.5 344 c 128,-1,44
 443 379 443 379 420 404.5 c 128,-1,45
 397 430 397 430 365.5 444 c 128,-1,46
 334 458 334 458 297 458 c 256,47,48
 260 458 260 458 228.5 444 c 128,-1,49
 197 430 197 430 174 404.5 c 128,-1,50
 151 379 151 379 138.5 344 c 128,-1,51
 126 309 126 309 126 268 c 256,52,53
 126 227 126 227 138.5 192 c 128,-1,54
 151 157 151 157 174 131.5 c 128,-1,55
 197 106 197 106 228.5 92 c 128,-1,56
 260 78 260 78 297 78 c 256,37,38
EndSplineSet
Validated: 1
EndChar

StartChar: h
Encoding: 104 104 166
Width: 573
GlyphClass: 2
Flags: W
AnchorPoint: "Anchor-0" 288 -50 basechar 0
LayerCount: 2
Fore
SplineSet
70 0 m 1,0,-1
 70 742 l 1,1,-1
 150 742 l 1,2,-1
 150 441 l 1,3,4
 173 482 173 482 216 506.5 c 128,-1,5
 259 531 259 531 313 531 c 0,6,7
 372 531 372 531 416 503 c 128,-1,8
 460 475 460 475 483.5 423.5 c 128,-1,9
 507 372 507 372 507 302 c 2,10,-1
 507 0 l 1,11,-1
 427 0 l 1,12,-1
 427 297 l 2,13,14
 427 374 427 374 393.5 416 c 128,-1,15
 360 458 360 458 298 458 c 0,16,17
 255 458 255 458 221.5 438.5 c 128,-1,18
 188 419 188 419 169 384.5 c 128,-1,19
 150 350 150 350 150 306 c 2,20,-1
 150 0 l 1,21,-1
 70 0 l 1,0,-1
EndSplineSet
Validated: 1
EndChar

StartChar: i
Encoding: 105 105 167
Width: 220
GlyphClass: 2
Flags: W
AnchorPoint: "Anchor-2" 150 -50 basechar 0
LayerCount: 2
Fore
SplineSet
165 667 m 256,0,1
 165 652 165 652 157.5 639.5 c 128,-1,2
 150 627 150 627 137.5 619.5 c 128,-1,3
 125 612 125 612 110 612 c 256,4,5
 95 612 95 612 82.5 619.5 c 128,-1,6
 70 627 70 627 62.5 639.5 c 128,-1,7
 55 652 55 652 55 667 c 256,8,9
 55 682 55 682 62.5 694.5 c 128,-1,10
 70 707 70 707 82.5 714.5 c 128,-1,11
 95 722 95 722 110 722 c 256,12,13
 125 722 125 722 137.5 714.5 c 128,-1,14
 150 707 150 707 157.5 694.5 c 128,-1,15
 165 682 165 682 165 667 c 256,0,1
70 0 m 1,16,-1
 70 516 l 1,17,-1
 150 516 l 1,18,-1
 150 0 l 1,19,-1
 70 0 l 1,16,-1
EndSplineSet
Validated: 1
EndChar

StartChar: j
Encoding: 106 106 168
Width: 225
GlyphClass: 2
Flags: W
LayerCount: 2
Fore
SplineSet
170 667 m 256,0,1
 170 652 170 652 162.5 639.5 c 128,-1,2
 155 627 155 627 142.5 619.5 c 128,-1,3
 130 612 130 612 115 612 c 256,4,5
 100 612 100 612 87.5 619.5 c 128,-1,6
 75 627 75 627 67.5 639.5 c 128,-1,7
 60 652 60 652 60 667 c 256,8,9
 60 682 60 682 67.5 694.5 c 128,-1,10
 75 707 75 707 87.5 714.5 c 128,-1,11
 100 722 100 722 115 722 c 256,12,13
 130 722 130 722 142.5 714.5 c 128,-1,14
 155 707 155 707 162.5 694.5 c 128,-1,15
 170 682 170 682 170 667 c 256,0,1
9 -214 m 0,16,17
 -14 -214 -14 -214 -36 -208 c 128,-1,18
 -58 -202 -58 -202 -75 -191 c 1,19,-1
 -50 -129 l 1,20,21
 -40 -134 -40 -134 -26.5 -138.5 c 128,-1,22
 -13 -143 -13 -143 2 -143 c 0,23,24
 35 -143 35 -143 55 -119 c 128,-1,25
 75 -95 75 -95 75 -53 c 2,26,-1
 75 516 l 1,27,-1
 155 516 l 1,28,-1
 155 -55 l 2,29,30
 155 -102 155 -102 136.5 -138 c 128,-1,31
 118 -174 118 -174 85 -194 c 128,-1,32
 52 -214 52 -214 9 -214 c 0,16,17
EndSplineSet
Validated: 1
EndChar

StartChar: k
Encoding: 107 107 169
Width: 529
GlyphClass: 2
Flags: W
AnchorPoint: "Anchor-0" 278 -50 basechar 0
LayerCount: 2
Fore
SplineSet
70 0 m 1,0,-1
 70 742 l 1,1,-1
 150 742 l 1,2,-1
 150 300 l 1,3,-1
 394 516 l 1,4,-1
 497 516 l 1,5,-1
 233 285 l 1,6,-1
 521 0 l 1,7,-1
 411 0 l 1,8,-1
 150 264 l 1,9,-1
 150 0 l 1,10,-1
 70 0 l 1,0,-1
EndSplineSet
Validated: 1
EndChar

StartChar: l
Encoding: 108 108 170
Width: 220
GlyphClass: 2
Flags: W
AnchorPoint: "Anchor-8" 150 790 basechar 0
AnchorPoint: "Anchor-6" 109 762 basechar 0
AnchorPoint: "Anchor-0" 109 -50 basechar 0
LayerCount: 2
Fore
SplineSet
70 0 m 1,0,-1
 70 742 l 1,1,-1
 150 742 l 1,2,-1
 150 0 l 1,3,-1
 70 0 l 1,0,-1
EndSplineSet
Validated: 1
EndChar

StartChar: m
Encoding: 109 109 171
Width: 902
GlyphClass: 2
Flags: W
LayerCount: 2
Fore
SplineSet
70 0 m 1,0,-1
 70 516 l 1,1,-1
 142 516 l 1,2,-1
 146 437 l 1,3,4
 168 480 168 480 210 505.5 c 128,-1,5
 252 531 252 531 306 531 c 0,6,7
 364 531 364 531 407 501 c 128,-1,8
 450 471 450 471 471 417 c 1,9,10
 484 451 484 451 510 476.5 c 128,-1,11
 536 502 536 502 571.5 516.5 c 128,-1,12
 607 531 607 531 648 531 c 0,13,14
 706 531 706 531 748.5 503.5 c 128,-1,15
 791 476 791 476 813.5 426 c 128,-1,16
 836 376 836 376 836 306 c 2,17,-1
 836 0 l 1,18,-1
 756 0 l 1,19,-1
 756 301 l 2,20,21
 756 377 756 377 725 417.5 c 128,-1,22
 694 458 694 458 635 458 c 0,23,24
 594 458 594 458 562 438.5 c 128,-1,25
 530 419 530 419 511.5 385.5 c 128,-1,26
 493 352 493 352 493 310 c 2,27,-1
 493 0 l 1,28,-1
 413 0 l 1,29,-1
 413 301 l 2,30,31
 413 377 413 377 381 417.5 c 128,-1,32
 349 458 349 458 290 458 c 0,33,34
 250 458 250 458 218 438.5 c 128,-1,35
 186 419 186 419 168 385.5 c 128,-1,36
 150 352 150 352 150 310 c 2,37,-1
 150 0 l 1,38,-1
 70 0 l 1,0,-1
EndSplineSet
Validated: 1
EndChar

StartChar: n
Encoding: 110 110 172
Width: 573
GlyphClass: 2
Flags: W
AnchorPoint: "Anchor-6" 288 562 basechar 0
AnchorPoint: "Anchor-0" 288 -50 basechar 0
LayerCount: 2
Fore
SplineSet
70 0 m 1,0,-1
 70 516 l 1,1,-1
 142 516 l 1,2,-1
 146 434 l 1,3,4
 169 478 169 478 212.5 504.5 c 128,-1,5
 256 531 256 531 313 531 c 0,6,7
 372 531 372 531 416 503 c 128,-1,8
 460 475 460 475 483.5 423.5 c 128,-1,9
 507 372 507 372 507 302 c 2,10,-1
 507 0 l 1,11,-1
 427 0 l 1,12,-1
 427 297 l 2,13,14
 427 374 427 374 393.5 416 c 128,-1,15
 360 458 360 458 298 458 c 0,16,17
 255 458 255 458 221.5 438.5 c 128,-1,18
 188 419 188 419 169 384.5 c 128,-1,19
 150 350 150 350 150 306 c 2,20,-1
 150 0 l 1,21,-1
 70 0 l 1,0,-1
EndSplineSet
Validated: 1
EndChar

StartChar: o
Encoding: 111 111 173
Width: 600
GlyphClass: 2
Flags: W
AnchorPoint: "Anchor-6" 300 562 basechar 0
LayerCount: 2
Fore
SplineSet
299 -15 m 256,0,1
 244 -15 244 -15 197.5 5.5 c 128,-1,2
 151 26 151 26 116.5 62.5 c 128,-1,3
 82 99 82 99 63 149 c 128,-1,4
 44 199 44 199 44 258 c 256,5,6
 44 317 44 317 63.5 367 c 128,-1,7
 83 417 83 417 117.5 453.5 c 128,-1,8
 152 490 152 490 199 510.5 c 128,-1,9
 246 531 246 531 301 531 c 256,10,11
 356 531 356 531 402.5 510.5 c 128,-1,12
 449 490 449 490 483.5 453.5 c 128,-1,13
 518 417 518 417 537 367 c 128,-1,14
 556 317 556 317 556 258 c 256,15,16
 556 199 556 199 536.5 149 c 128,-1,17
 517 99 517 99 482.5 62.5 c 128,-1,18
 448 26 448 26 401 5.5 c 128,-1,19
 354 -15 354 -15 299 -15 c 256,0,1
300 58 m 256,20,21
 338 58 338 58 369.5 73 c 128,-1,22
 401 88 401 88 424.5 114.5 c 128,-1,23
 448 141 448 141 461 177.5 c 128,-1,24
 474 214 474 214 474 258 c 256,25,26
 474 302 474 302 461 338.5 c 128,-1,27
 448 375 448 375 424.5 401.5 c 128,-1,28
 401 428 401 428 369.5 443 c 128,-1,29
 338 458 338 458 300 458 c 256,30,31
 262 458 262 458 230.5 443 c 128,-1,32
 199 428 199 428 175.5 401.5 c 128,-1,33
 152 375 152 375 139 338.5 c 128,-1,34
 126 302 126 302 126 258 c 256,35,36
 126 214 126 214 139 177.5 c 128,-1,37
 152 141 152 141 175.5 114.5 c 128,-1,38
 199 88 199 88 230.5 73 c 128,-1,39
 262 58 262 58 300 58 c 256,20,21
EndSplineSet
Validated: 1
Substitution2: "'ordn' Ordinals in Latin lookup 25 subtable" ordmasculine
Substitution2: "'aalt' Access All Alternates in Latin lookup 0 subtable" ordmasculine
EndChar

StartChar: p
Encoding: 112 112 174
Width: 622
GlyphClass: 2
Flags: W
LayerCount: 2
Fore
SplineSet
70 -204 m 1,0,-1
 70 516 l 1,1,-1
 142 516 l 1,2,-1
 146 418 l 1,3,4
 174 471 174 471 223.5 501 c 128,-1,5
 273 531 273 531 336 531 c 0,6,7
 387 531 387 531 431 510.5 c 128,-1,8
 475 490 475 490 508 453 c 128,-1,9
 541 416 541 416 559.5 366.5 c 128,-1,10
 578 317 578 317 578 259 c 256,11,12
 578 201 578 201 559.5 151 c 128,-1,13
 541 101 541 101 507.5 64 c 128,-1,14
 474 27 474 27 429 6 c 128,-1,15
 384 -15 384 -15 332 -15 c 0,16,17
 273 -15 273 -15 225.5 12 c 128,-1,18
 178 39 178 39 150 88 c 1,19,-1
 150 -204 l 1,20,-1
 70 -204 l 1,0,-1
322 58 m 256,21,22
 360 58 360 58 391.5 73 c 128,-1,23
 423 88 423 88 446.5 114.5 c 128,-1,24
 470 141 470 141 483 177.5 c 128,-1,25
 496 214 496 214 496 258 c 256,26,27
 496 302 496 302 483 338.5 c 128,-1,28
 470 375 470 375 446.5 401.5 c 128,-1,29
 423 428 423 428 391.5 443 c 128,-1,30
 360 458 360 458 322 458 c 256,31,32
 284 458 284 458 252.5 443 c 128,-1,33
 221 428 221 428 197.5 401.5 c 128,-1,34
 174 375 174 375 161 338.5 c 128,-1,35
 148 302 148 302 148 258 c 256,36,37
 148 214 148 214 161 177.5 c 128,-1,38
 174 141 174 141 197.5 114.5 c 128,-1,39
 221 88 221 88 252.5 73 c 128,-1,40
 284 58 284 58 322 58 c 256,21,22
EndSplineSet
Validated: 1
EndChar

StartChar: q
Encoding: 113 113 175
Width: 622
GlyphClass: 2
Flags: W
LayerCount: 2
Fore
SplineSet
286 -15 m 0,0,1
 235 -15 235 -15 191 5.5 c 128,-1,2
 147 26 147 26 114 63 c 128,-1,3
 81 100 81 100 62.5 149.5 c 128,-1,4
 44 199 44 199 44 257 c 256,5,6
 44 315 44 315 62.5 365 c 128,-1,7
 81 415 81 415 114.5 452 c 128,-1,8
 148 489 148 489 193 510 c 128,-1,9
 238 531 238 531 290 531 c 0,10,11
 350 531 350 531 399 502 c 128,-1,12
 448 473 448 473 476 422 c 1,13,-1
 480 516 l 1,14,-1
 552 516 l 1,15,-1
 552 -204 l 1,16,-1
 472 -204 l 1,17,-1
 472 91 l 1,18,19
 444 42 444 42 395.5 13.5 c 128,-1,20
 347 -15 347 -15 286 -15 c 0,0,1
300 58 m 256,21,22
 338 58 338 58 369.5 73 c 128,-1,23
 401 88 401 88 424.5 114.5 c 128,-1,24
 448 141 448 141 461 177.5 c 128,-1,25
 474 214 474 214 474 258 c 256,26,27
 474 302 474 302 461 338.5 c 128,-1,28
 448 375 448 375 424.5 401.5 c 128,-1,29
 401 428 401 428 369.5 443 c 128,-1,30
 338 458 338 458 300 458 c 256,31,32
 262 458 262 458 230.5 443 c 128,-1,33
 199 428 199 428 175.5 401.5 c 128,-1,34
 152 375 152 375 139 338.5 c 128,-1,35
 126 302 126 302 126 258 c 256,36,37
 126 214 126 214 139 177.5 c 128,-1,38
 152 141 152 141 175.5 114.5 c 128,-1,39
 199 88 199 88 230.5 73 c 128,-1,40
 262 58 262 58 300 58 c 256,21,22
EndSplineSet
Validated: 1
EndChar

StartChar: r
Encoding: 114 114 176
Width: 375
GlyphClass: 2
Flags: W
AnchorPoint: "Anchor-6" 208 562 basechar 0
LayerCount: 2
Fore
SplineSet
70 0 m 1,0,-1
 70 516 l 1,1,-1
 142 516 l 1,2,-1
 147 420 l 1,3,4
 166 468 166 468 204 495.5 c 128,-1,5
 242 523 242 523 293 523 c 0,6,7
 310 523 310 523 323.5 520.5 c 128,-1,8
 337 518 337 518 347 514 c 1,9,-1
 337 438 l 1,10,11
 326 442 326 442 314 443.5 c 128,-1,12
 302 445 302 445 290 445 c 0,13,14
 248 445 248 445 216.5 424 c 128,-1,15
 185 403 185 403 167.5 364.5 c 128,-1,16
 150 326 150 326 150 274 c 2,17,-1
 150 0 l 1,18,-1
 70 0 l 1,0,-1
EndSplineSet
Validated: 1
EndChar

StartChar: s
Encoding: 115 115 177
Width: 462
GlyphClass: 2
Flags: W
AnchorPoint: "Anchor-6" 231 562 basechar 0
AnchorPoint: "Anchor-0" 232 -50 basechar 0
LayerCount: 2
Fore
SplineSet
233 -15 m 0,0,1
 188 -15 188 -15 148.5 0 c 128,-1,2
 109 15 109 15 80 43 c 128,-1,3
 51 71 51 71 36 109 c 1,4,-1
 108 135 l 1,5,6
 128 97 128 97 160 76 c 128,-1,7
 192 55 192 55 233 55 c 0,8,9
 266 55 266 55 291 66 c 128,-1,10
 316 77 316 77 330 96.5 c 128,-1,11
 344 116 344 116 344 140 c 0,12,13
 344 205 344 205 250 224 c 2,14,-1
 211 232 l 2,15,16
 129 248 129 248 90 284.5 c 128,-1,17
 51 321 51 321 51 377 c 0,18,19
 51 422 51 422 74 457 c 128,-1,20
 97 492 97 492 138.5 511.5 c 128,-1,21
 180 531 180 531 233 531 c 0,22,23
 277 531 277 531 314 516.5 c 128,-1,24
 351 502 351 502 377.5 474 c 128,-1,25
 404 446 404 446 418 408 c 1,26,-1
 346 384 l 1,27,28
 330 421 330 421 300.5 441.5 c 128,-1,29
 271 462 271 462 232 462 c 0,30,31
 202 462 202 462 179.5 452 c 128,-1,32
 157 442 157 442 144 425 c 128,-1,33
 131 408 131 408 131 385 c 0,34,35
 131 353 131 353 155.5 334 c 128,-1,36
 180 315 180 315 235 304 c 2,37,-1
 274 296 l 2,38,39
 348 281 348 281 387 243.5 c 128,-1,40
 426 206 426 206 426 148 c 0,41,42
 426 112 426 112 411.5 82.5 c 128,-1,43
 397 53 397 53 371.5 31 c 128,-1,44
 346 9 346 9 310.5 -3 c 128,-1,45
 275 -15 275 -15 233 -15 c 0,0,1
EndSplineSet
Validated: 1
EndChar

StartChar: t
Encoding: 116 116 178
Width: 408
GlyphClass: 2
Flags: W
AnchorPoint: "Anchor-9" 206 790 basechar 0
AnchorPoint: "Anchor-0" 239 -50 basechar 0
LayerCount: 2
Fore
SplineSet
263 -15 m 0,0,1
 216 -15 216 -15 182 4 c 128,-1,2
 148 23 148 23 129.5 60 c 128,-1,3
 111 97 111 97 111 150 c 2,4,-1
 111 448 l 1,5,-1
 16 448 l 1,6,-1
 16 516 l 1,7,-1
 111 516 l 1,8,-1
 111 689 l 1,9,-1
 191 689 l 1,10,-1
 191 516 l 1,11,-1
 353 516 l 1,12,-1
 353 448 l 1,13,-1
 191 448 l 1,14,-1
 191 154 l 2,15,16
 191 108 191 108 210.5 82.5 c 128,-1,17
 230 57 230 57 270 57 c 0,18,19
 291 57 291 57 312.5 63.5 c 128,-1,20
 334 70 334 70 351 81 c 1,21,-1
 375 19 l 1,22,23
 354 4 354 4 326 -5.5 c 128,-1,24
 298 -15 298 -15 263 -15 c 0,0,1
EndSplineSet
Validated: 1
EndChar

StartChar: u
Encoding: 117 117 179
Width: 564
GlyphClass: 2
Flags: W
AnchorPoint: "Anchor-6" 282 562 basechar 0
AnchorPoint: "Anchor-3" 429 -50 basechar 0
LayerCount: 2
Fore
SplineSet
280 -15 m 256,0,1
 214 -15 214 -15 166 14 c 128,-1,2
 118 43 118 43 92 96.5 c 128,-1,3
 66 150 66 150 66 224 c 2,4,-1
 66 516 l 1,5,-1
 146 516 l 1,6,-1
 146 223 l 2,7,8
 146 172 146 172 162.5 135 c 128,-1,9
 179 98 179 98 209.5 78 c 128,-1,10
 240 58 240 58 282 58 c 256,11,12
 324 58 324 58 354.5 78 c 128,-1,13
 385 98 385 98 401.5 135 c 128,-1,14
 418 172 418 172 418 223 c 2,15,-1
 418 516 l 1,16,-1
 498 516 l 1,17,-1
 498 224 l 2,18,19
 498 152 498 152 471 98 c 128,-1,20
 444 44 444 44 395 14.5 c 128,-1,21
 346 -15 346 -15 280 -15 c 256,0,1
EndSplineSet
Validated: 1
EndChar

StartChar: v
Encoding: 118 118 180
Width: 523
GlyphClass: 2
Flags: W
LayerCount: 2
Fore
SplineSet
220 0 m 1,0,-1
 18 516 l 1,1,-1
 106 516 l 1,2,-1
 263 86 l 1,3,-1
 420 516 l 1,4,-1
 505 516 l 1,5,-1
 303 0 l 1,6,-1
 220 0 l 1,0,-1
EndSplineSet
Validated: 1
EndChar

StartChar: w
Encoding: 119 119 181
Width: 797
GlyphClass: 2
Flags: W
AnchorPoint: "Anchor-6" 398 562 basechar 0
LayerCount: 2
Fore
SplineSet
192 0 m 1,0,-1
 18 516 l 1,1,-1
 102 516 l 1,2,-1
 231 98 l 1,3,-1
 364 516 l 1,4,-1
 436 516 l 1,5,-1
 568 98 l 1,6,-1
 697 516 l 1,7,-1
 779 516 l 1,8,-1
 605 0 l 1,9,-1
 528 0 l 1,10,-1
 399 413 l 1,11,-1
 269 0 l 1,12,-1
 192 0 l 1,0,-1
EndSplineSet
Validated: 1
EndChar

StartChar: x
Encoding: 120 120 182
Width: 521
GlyphClass: 2
Flags: W
LayerCount: 2
Fore
SplineSet
15 0 m 1,0,-1
 214 272 l 1,1,-1
 37 516 l 1,2,-1
 132 516 l 1,3,-1
 263 323 l 1,4,-1
 394 516 l 1,5,-1
 484 516 l 1,6,-1
 307 272 l 1,7,-1
 506 0 l 1,8,-1
 408 0 l 1,9,-1
 258 219 l 1,10,-1
 110 0 l 1,11,-1
 15 0 l 1,0,-1
EndSplineSet
Validated: 1
EndChar

StartChar: y
Encoding: 121 121 183
Width: 523
GlyphClass: 2
Flags: W
AnchorPoint: "Anchor-6" 261 562 basechar 0
LayerCount: 2
Fore
SplineSet
114 -214 m 0,0,1
 93 -214 93 -214 75 -209.5 c 128,-1,2
 57 -205 57 -205 38 -195 c 1,3,-1
 61 -131 l 1,4,5
 71 -137 71 -137 83.5 -140 c 128,-1,6
 96 -143 96 -143 110 -143 c 0,7,8
 141 -143 141 -143 164.5 -123.5 c 128,-1,9
 188 -104 188 -104 205 -62 c 2,10,-1
 232 5 l 1,11,-1
 18 516 l 1,12,-1
 106 516 l 1,13,-1
 271 92 l 1,14,-1
 420 516 l 1,15,-1
 505 516 l 1,16,-1
 275 -81 l 2,17,18
 249 -149 249 -149 209 -181.5 c 128,-1,19
 169 -214 169 -214 114 -214 c 0,0,1
EndSplineSet
Validated: 1
EndChar

StartChar: z
Encoding: 122 122 184
Width: 496
GlyphClass: 2
Flags: W
AnchorPoint: "Anchor-6" 242 562 basechar 0
LayerCount: 2
Fore
SplineSet
44 0 m 1,0,-1
 44 56 l 1,1,-1
 336 448 l 1,2,-1
 51 448 l 1,3,-1
 51 516 l 1,4,-1
 435 516 l 1,5,-1
 435 461 l 1,6,-1
 141 68 l 1,7,-1
 452 68 l 1,8,-1
 452 0 l 1,9,-1
 44 0 l 1,0,-1
EndSplineSet
Validated: 1
EndChar

StartChar: a.ss01
Encoding: 65567 -1 185
Width: 622
Flags: W
AnchorPoint: "Anchor-6" 305 562 basechar 0
AnchorPoint: "Anchor-2" 552 -50 basechar 0
LayerCount: 2
Fore
SplineSet
286 -15 m 0,0,1
 235 -15 235 -15 191 5.5 c 128,-1,2
 147 26 147 26 114 63 c 128,-1,3
 81 100 81 100 62.5 149.5 c 128,-1,4
 44 199 44 199 44 257 c 256,5,6
 44 315 44 315 62.5 365 c 128,-1,7
 81 415 81 415 114.5 452 c 128,-1,8
 148 489 148 489 193 510 c 128,-1,9
 238 531 238 531 290 531 c 0,10,11
 350 531 350 531 399 502 c 128,-1,12
 448 473 448 473 476 422 c 1,13,-1
 480 516 l 1,14,-1
 552 516 l 1,15,-1
 552 0 l 1,16,-1
 480 0 l 1,17,-1
 476 98 l 1,18,19
 448 45 448 45 398.5 15 c 128,-1,20
 349 -15 349 -15 286 -15 c 0,0,1
300 58 m 256,21,22
 338 58 338 58 369.5 73 c 128,-1,23
 401 88 401 88 424.5 114.5 c 128,-1,24
 448 141 448 141 461 177.5 c 128,-1,25
 474 214 474 214 474 258 c 256,26,27
 474 302 474 302 461 338.5 c 128,-1,28
 448 375 448 375 424.5 401.5 c 128,-1,29
 401 428 401 428 369.5 443 c 128,-1,30
 338 458 338 458 300 458 c 256,31,32
 262 458 262 458 230.5 443 c 128,-1,33
 199 428 199 428 175.5 401.5 c 128,-1,34
 152 375 152 375 139 338.5 c 128,-1,35
 126 302 126 302 126 258 c 256,36,37
 126 214 126 214 139 177.5 c 128,-1,38
 152 141 152 141 175.5 114.5 c 128,-1,39
 199 88 199 88 230.5 73 c 128,-1,40
 262 58 262 58 300 58 c 256,21,22
EndSplineSet
Validated: 1
Substitution2: "'ordn' Ordinals in Latin lookup 25 subtable" ordfeminine.ss01
Substitution2: "'aalt' Access All Alternates in Latin lookup 0 subtable" ordfeminine.ss01
EndChar

StartChar: trademark
Encoding: 8482 8482 186
Width: 780
GlyphClass: 2
Flags: W
LayerCount: 2
Fore
SplineSet
134 359 m 1,0,-1
 134 654 l 1,1,-1
 29 654 l 1,2,-1
 29 710 l 1,3,-1
 302 710 l 1,4,-1
 302 654 l 1,5,-1
 197 654 l 1,6,-1
 197 359 l 1,7,-1
 134 359 l 1,0,-1
368 359 m 1,8,-1
 368 710 l 1,9,-1
 431 710 l 1,10,-1
 543 493 l 1,11,-1
 656 710 l 1,12,-1
 717 710 l 1,13,-1
 717 359 l 1,14,-1
 656 359 l 1,15,-1
 656 610 l 1,16,-1
 564 432 l 1,17,-1
 521 432 l 1,18,-1
 429 610 l 1,19,-1
 429 359 l 1,20,-1
 368 359 l 1,8,-1
EndSplineSet
Validated: 1
EndChar

StartChar: ordfeminine.ss01
Encoding: 65568 -1 187
Width: 430
Flags: W
LayerCount: 2
Fore
SplineSet
326 326 m 1,0,-1
 322 386 l 1,1,2
 301 354 301 354 268 336 c 128,-1,3
 235 318 235 318 195 318 c 0,4,5
 159 318 159 318 128 332.5 c 128,-1,6
 97 347 97 347 74 372.5 c 128,-1,7
 51 398 51 398 38.5 432.5 c 128,-1,8
 26 467 26 467 26 507 c 0,9,10
 26 548 26 548 39 583 c 128,-1,11
 52 618 52 618 75.5 644 c 128,-1,12
 99 670 99 670 130.5 685 c 128,-1,13
 162 700 162 700 199 700 c 0,14,15
 240 700 240 700 271.5 682 c 128,-1,16
 303 664 303 664 323 632 c 1,17,-1
 326 692 l 1,18,-1
 392 692 l 1,19,-1
 392 326 l 1,20,-1
 326 326 l 1,0,-1
210 383 m 256,21,22
 242 383 242 383 267.5 399.5 c 128,-1,23
 293 416 293 416 307 444 c 128,-1,24
 321 472 321 472 321 509 c 256,25,26
 321 546 321 546 307 574 c 128,-1,27
 293 602 293 602 267.5 618.5 c 128,-1,28
 242 635 242 635 210 635 c 256,29,30
 178 635 178 635 152.5 618.5 c 128,-1,31
 127 602 127 602 113 574 c 128,-1,32
 99 546 99 546 99 509 c 256,33,34
 99 472 99 472 113 444 c 128,-1,35
 127 416 127 416 152.5 399.5 c 128,-1,36
 178 383 178 383 210 383 c 256,21,22
EndSplineSet
Validated: 1
EndChar

StartChar: ordfeminine
Encoding: 170 170 188
Width: 375
GlyphClass: 2
Flags: W
LayerCount: 2
Fore
SplineSet
157 318 m 0,0,1
 120 318 120 318 90.5 332.5 c 128,-1,2
 61 347 61 347 44 372.5 c 128,-1,3
 27 398 27 398 27 432 c 0,4,5
 27 467 27 467 45.5 493 c 128,-1,6
 64 519 64 519 97 533 c 128,-1,7
 130 547 130 547 174 547 c 0,8,9
 201 547 201 547 225 542 c 128,-1,10
 249 537 249 537 268 527 c 1,11,-1
 268 552 l 2,12,13
 268 592 268 592 245.5 616.5 c 128,-1,14
 223 641 223 641 186 641 c 0,15,16
 156 641 156 641 134 627.5 c 128,-1,17
 112 614 112 614 102 589 c 1,18,-1
 40 605 l 1,19,20
 50 634 50 634 71 655 c 128,-1,21
 92 676 92 676 122 688 c 128,-1,22
 152 700 152 700 187 700 c 0,23,24
 232 700 232 700 265.5 681 c 128,-1,25
 299 662 299 662 318 628 c 128,-1,26
 337 594 337 594 337 549 c 2,27,-1
 337 326 l 1,28,-1
 274 326 l 1,29,-1
 271 377 l 1,30,31
 255 349 255 349 225 333.5 c 128,-1,32
 195 318 195 318 157 318 c 0,0,1
97 434 m 0,33,34
 97 406 97 406 118 389.5 c 128,-1,35
 139 373 139 373 171 373 c 0,36,37
 199 373 199 373 221 385.5 c 128,-1,38
 243 398 243 398 255.5 420 c 128,-1,39
 268 442 268 442 268 470 c 2,40,-1
 268 479 l 1,41,42
 248 487 248 487 227 491.5 c 128,-1,43
 206 496 206 496 185 496 c 0,44,45
 145 496 145 496 121 479.5 c 128,-1,46
 97 463 97 463 97 434 c 0,33,34
EndSplineSet
Validated: 1
Substitution2: "'ss01' Style Set 1 in Latin lookup 14 subtable" ordfeminine.ss01
EndChar

StartChar: ordmasculine
Encoding: 186 186 189
Width: 420
GlyphClass: 2
Flags: W
LayerCount: 2
Fore
SplineSet
210 318 m 256,0,1
 170 318 170 318 136.5 332.5 c 128,-1,2
 103 347 103 347 78 373 c 128,-1,3
 53 399 53 399 39.5 433.5 c 128,-1,4
 26 468 26 468 26 509 c 256,5,6
 26 550 26 550 39.5 584.5 c 128,-1,7
 53 619 53 619 78 645 c 128,-1,8
 103 671 103 671 136.5 685.5 c 128,-1,9
 170 700 170 700 210 700 c 256,10,11
 250 700 250 700 283.5 685.5 c 128,-1,12
 317 671 317 671 342 645 c 128,-1,13
 367 619 367 619 380.5 584.5 c 128,-1,14
 394 550 394 550 394 509 c 256,15,16
 394 468 394 468 380.5 433.5 c 128,-1,17
 367 399 367 399 342 373 c 128,-1,18
 317 347 317 347 283.5 332.5 c 128,-1,19
 250 318 250 318 210 318 c 256,0,1
210 383 m 256,20,21
 242 383 242 383 267.5 399.5 c 128,-1,22
 293 416 293 416 307 444 c 128,-1,23
 321 472 321 472 321 509 c 256,24,25
 321 546 321 546 307 574 c 128,-1,26
 293 602 293 602 267.5 618.5 c 128,-1,27
 242 635 242 635 210 635 c 256,28,29
 178 635 178 635 152.5 618.5 c 128,-1,30
 127 602 127 602 113 574 c 128,-1,31
 99 546 99 546 99 509 c 256,32,33
 99 472 99 472 113 444 c 128,-1,34
 127 416 127 416 152.5 399.5 c 128,-1,35
 178 383 178 383 210 383 c 256,20,21
EndSplineSet
Validated: 1
EndChar

StartChar: degree
Encoding: 176 176 190
Width: 364
GlyphClass: 2
Flags: W
LayerCount: 2
Fore
SplineSet
337 597 m 256,0,1
 337 566 337 566 325 537.5 c 128,-1,2
 313 509 313 509 291.5 488 c 128,-1,3
 270 467 270 467 242 454.5 c 128,-1,4
 214 442 214 442 182 442 c 256,5,6
 150 442 150 442 122 454.5 c 128,-1,7
 94 467 94 467 72.5 488 c 128,-1,8
 51 509 51 509 39 537.5 c 128,-1,9
 27 566 27 566 27 597 c 256,10,11
 27 628 27 628 39 656.5 c 128,-1,12
 51 685 51 685 72.5 706 c 128,-1,13
 94 727 94 727 122 739.5 c 128,-1,14
 150 752 150 752 182 752 c 256,15,16
 214 752 214 752 242 739.5 c 128,-1,17
 270 727 270 727 291.5 706 c 128,-1,18
 313 685 313 685 325 656.5 c 128,-1,19
 337 628 337 628 337 597 c 256,0,1
269 597 m 256,20,21
 269 623 269 623 257.5 644 c 128,-1,22
 246 665 246 665 226 677.5 c 128,-1,23
 206 690 206 690 182 690 c 256,24,25
 158 690 158 690 138 677.5 c 128,-1,26
 118 665 118 665 106.5 644 c 128,-1,27
 95 623 95 623 95 597 c 256,28,29
 95 571 95 571 106.5 550 c 128,-1,30
 118 529 118 529 138 516.5 c 128,-1,31
 158 504 158 504 182 504 c 256,32,33
 206 504 206 504 226 516.5 c 128,-1,34
 246 529 246 529 257.5 550 c 128,-1,35
 269 571 269 571 269 597 c 256,20,21
EndSplineSet
Validated: 1
EndChar

StartChar: copyright
Encoding: 169 169 191
Width: 866
GlyphClass: 2
Flags: W
LayerCount: 2
Fore
SplineSet
433 -21 m 256,0,1
 369 -21 369 -21 312 -2.5 c 128,-1,2
 255 16 255 16 208.5 50 c 128,-1,3
 162 84 162 84 128 130.5 c 128,-1,4
 94 177 94 177 75.5 234 c 128,-1,5
 57 291 57 291 57 355 c 256,6,7
 57 419 57 419 75.5 475.5 c 128,-1,8
 94 532 94 532 128 579 c 128,-1,9
 162 626 162 626 208.5 659.5 c 128,-1,10
 255 693 255 693 312 711.5 c 128,-1,11
 369 730 369 730 433 730 c 256,12,13
 497 730 497 730 554 711.5 c 128,-1,14
 611 693 611 693 657.5 659.5 c 128,-1,15
 704 626 704 626 738 579 c 128,-1,16
 772 532 772 532 790.5 475.5 c 128,-1,17
 809 419 809 419 809 355 c 256,18,19
 809 291 809 291 790.5 234 c 128,-1,20
 772 177 772 177 738 130.5 c 128,-1,21
 704 84 704 84 657.5 50 c 128,-1,22
 611 16 611 16 554 -2.5 c 128,-1,23
 497 -21 497 -21 433 -21 c 256,0,1
433 39 m 256,24,25
 485 39 485 39 531.5 55 c 128,-1,26
 578 71 578 71 617 100 c 128,-1,27
 656 129 656 129 684.5 168.5 c 128,-1,28
 713 208 713 208 729 255 c 128,-1,29
 745 302 745 302 745 355 c 0,30,31
 745 407 745 407 729 454.5 c 128,-1,32
 713 502 713 502 684.5 541.5 c 128,-1,33
 656 581 656 581 617 609.5 c 128,-1,34
 578 638 578 638 531.5 654 c 128,-1,35
 485 670 485 670 433 670 c 256,36,37
 381 670 381 670 334.5 654 c 128,-1,38
 288 638 288 638 249 609.5 c 128,-1,39
 210 581 210 581 181.5 541.5 c 128,-1,40
 153 502 153 502 137 455 c 128,-1,41
 121 408 121 408 121 355 c 256,42,43
 121 302 121 302 137 255 c 128,-1,44
 153 208 153 208 181.5 168.5 c 128,-1,45
 210 129 210 129 249 100 c 128,-1,46
 288 71 288 71 334.5 55 c 128,-1,47
 381 39 381 39 433 39 c 256,24,25
438 149 m 0,48,49
 396 149 396 149 361 164.5 c 128,-1,50
 326 180 326 180 300.5 208 c 128,-1,51
 275 236 275 236 260.5 274 c 128,-1,52
 246 312 246 312 246 357 c 256,53,54
 246 402 246 402 260.5 440 c 128,-1,55
 275 478 275 478 301.5 507 c 128,-1,56
 328 536 328 536 363 552 c 128,-1,57
 398 568 398 568 438 568 c 0,58,59
 476 568 476 568 508 554.5 c 128,-1,60
 540 541 540 541 564 516.5 c 128,-1,61
 588 492 588 492 601 457 c 1,62,-1
 538 436 l 1,63,64
 522 468 522 468 496 486 c 128,-1,65
 470 504 470 504 438 504 c 0,66,67
 404 504 404 504 376.5 485 c 128,-1,68
 349 466 349 466 333 432.5 c 128,-1,69
 317 399 317 399 317 357 c 256,70,71
 317 315 317 315 332.5 282.5 c 128,-1,72
 348 250 348 250 375 231.5 c 128,-1,73
 402 213 402 213 438 213 c 0,74,75
 471 213 471 213 499 231.5 c 128,-1,76
 527 250 527 250 542 281 c 1,77,-1
 605 260 l 1,78,79
 592 227 592 227 567 202 c 128,-1,80
 542 177 542 177 508.5 163 c 128,-1,81
 475 149 475 149 438 149 c 0,48,49
EndSplineSet
Validated: 1
EndChar

StartChar: registered
Encoding: 174 174 192
Width: 536
GlyphClass: 2
Flags: W
LayerCount: 2
Fore
SplineSet
268 269 m 256,0,1
 220 269 220 269 178.5 286 c 128,-1,2
 137 303 137 303 106 334 c 128,-1,3
 75 365 75 365 57.5 406 c 128,-1,4
 40 447 40 447 40 495 c 256,5,6
 40 543 40 543 57.5 584 c 128,-1,7
 75 625 75 625 106 655.5 c 128,-1,8
 137 686 137 686 178.5 703 c 128,-1,9
 220 720 220 720 268 720 c 256,10,11
 316 720 316 720 357.5 703 c 128,-1,12
 399 686 399 686 430 655.5 c 128,-1,13
 461 625 461 625 478.5 584 c 128,-1,14
 496 543 496 543 496 495 c 256,15,16
 496 447 496 447 478.5 406 c 128,-1,17
 461 365 461 365 430 334 c 128,-1,18
 399 303 399 303 357.5 286 c 128,-1,19
 316 269 316 269 268 269 c 256,0,1
268 312 m 256,20,21
 306 312 306 312 339 326 c 128,-1,22
 372 340 372 340 396.5 365 c 128,-1,23
 421 390 421 390 435 423.5 c 128,-1,24
 449 457 449 457 449 495 c 256,25,26
 449 533 449 533 435 566 c 128,-1,27
 421 599 421 599 396.5 624 c 128,-1,28
 372 649 372 649 339 663 c 128,-1,29
 306 677 306 677 268 677 c 256,30,31
 230 677 230 677 197 663 c 128,-1,32
 164 649 164 649 139.5 624 c 128,-1,33
 115 599 115 599 101 566 c 128,-1,34
 87 533 87 533 87 495 c 256,35,36
 87 457 87 457 101 423.5 c 128,-1,37
 115 390 115 390 139.5 365 c 128,-1,38
 164 340 164 340 197 326 c 128,-1,39
 230 312 230 312 268 312 c 256,20,21
189 377 m 1,40,-1
 189 617 l 1,41,-1
 268 617 l 2,42,43
 312 617 312 617 337.5 596.5 c 128,-1,44
 363 576 363 576 363 541 c 0,45,46
 363 519 363 519 352 501 c 128,-1,47
 341 483 341 483 321 473 c 1,48,-1
 376 377 l 1,49,-1
 324 377 l 1,50,-1
 280 460 l 1,51,52
 275 460 275 460 271 460 c 128,-1,53
 267 460 267 460 264 460 c 0,54,55
 259 460 259 460 251.5 460.5 c 128,-1,56
 244 461 244 461 236 462 c 1,57,-1
 236 377 l 1,58,-1
 189 377 l 1,40,-1
236 577 m 1,59,-1
 236 502 l 1,60,61
 249 500 249 500 264 500 c 0,62,63
 289 500 289 500 302 510.5 c 128,-1,64
 315 521 315 521 315 539 c 0,65,66
 315 556 315 556 301.5 566.5 c 128,-1,67
 288 577 288 577 265 577 c 2,68,-1
 236 577 l 1,59,-1
EndSplineSet
Validated: 1
EndChar

StartChar: quoteleft
Encoding: 8216 8216 193
Width: 228
GlyphClass: 2
Flags: W
LayerCount: 2
Fore
SplineSet
122 455 m 256,0,1
 100 455 100 455 81.5 469.5 c 128,-1,2
 63 484 63 484 52.5 509 c 128,-1,3
 42 534 42 534 42 565 c 0,4,5
 42 616 42 616 72 657.5 c 128,-1,6
 102 699 102 699 155 723 c 1,7,-1
 176 677 l 1,8,9
 140 660 140 660 119.5 632 c 128,-1,10
 99 604 99 604 99 572 c 0,11,12
 99 553 99 553 105 538 c 1,13,14
 115 548 115 548 130 548 c 0,15,16
 149 548 149 548 162 535 c 128,-1,17
 175 522 175 522 175 502 c 256,18,19
 175 482 175 482 159.5 468.5 c 128,-1,20
 144 455 144 455 122 455 c 256,0,1
EndSplineSet
Validated: 1
EndChar

StartChar: quoteright
Encoding: 8217 8217 194
Width: 228
GlyphClass: 2
Flags: W
LayerCount: 2
Fore
SplineSet
106 713 m 256,0,1
 128 713 128 713 146.5 698.5 c 128,-1,2
 165 684 165 684 175.5 659 c 128,-1,3
 186 634 186 634 186 603 c 0,4,5
 186 552 186 552 156 510.5 c 128,-1,6
 126 469 126 469 73 445 c 1,7,-1
 52 491 l 1,8,9
 88 508 88 508 108.5 536 c 128,-1,10
 129 564 129 564 129 596 c 0,11,12
 129 615 129 615 123 630 c 1,13,14
 113 620 113 620 98 620 c 0,15,16
 79 620 79 620 66 633 c 128,-1,17
 53 646 53 646 53 666 c 256,18,19
 53 686 53 686 68.5 699.5 c 128,-1,20
 84 713 84 713 106 713 c 256,0,1
EndSplineSet
Validated: 1
EndChar

StartChar: glyph199
Encoding: 65569 -1 199
Width: 78
GlyphClass: 2
Flags: W
LayerCount: 2
Fore
SplineSet
39 322 m 256,0,1
 24 322 24 322 12 329.5 c 128,-1,2
 0 337 0 337 -7.5 349.5 c 128,-1,3
 -15 362 -15 362 -15 376 c 256,4,5
 -15 390 -15 390 -7.5 402.5 c 128,-1,6
 0 415 0 415 12 422.5 c 128,-1,7
 24 430 24 430 39 430 c 256,8,9
 54 430 54 430 66 422.5 c 128,-1,10
 78 415 78 415 85.5 402.5 c 128,-1,11
 93 390 93 390 93 376 c 256,12,13
 93 362 93 362 85.5 349.5 c 128,-1,14
 78 337 78 337 66 329.5 c 128,-1,15
 54 322 54 322 39 322 c 256,0,1
EndSplineSet
Validated: 1
EndChar

StartChar: glyph200
Encoding: 65570 -1 200
Width: 0
GlyphClass: 2
Flags: W
LayerCount: 2
Fore
SplineSet
-149 325 m 256,0,1
 -164 325 -164 325 -177 332.5 c 128,-1,2
 -190 340 -190 340 -198 353 c 128,-1,3
 -206 366 -206 366 -206 381 c 256,4,5
 -206 396 -206 396 -198 409 c 128,-1,6
 -190 422 -190 422 -177 429.5 c 128,-1,7
 -164 437 -164 437 -149 437 c 256,8,9
 -134 437 -134 437 -121 429.5 c 128,-1,10
 -108 422 -108 422 -100 409 c 128,-1,11
 -92 396 -92 396 -92 381 c 256,12,13
 -92 366 -92 366 -100 353 c 128,-1,14
 -108 340 -108 340 -121 332.5 c 128,-1,15
 -134 325 -134 325 -149 325 c 256,0,1
EndSplineSet
Validated: 1
EndChar

StartChar: dotlessi
Encoding: 305 305 201
Width: 220
GlyphClass: 2
Flags: W
AnchorPoint: "Anchor-6" 109 562 basechar 0
LayerCount: 2
Fore
SplineSet
70 0 m 1,0,-1
 70 516 l 1,1,-1
 150 516 l 1,2,-1
 150 0 l 1,3,-1
 70 0 l 1,0,-1
EndSplineSet
Validated: 1
EndChar

StartChar: uni0237
Encoding: 567 567 202
Width: 225
GlyphClass: 2
Flags: W
LayerCount: 2
Fore
SplineSet
9 -214 m 0,0,1
 -14 -214 -14 -214 -36 -208 c 128,-1,2
 -58 -202 -58 -202 -75 -191 c 1,3,-1
 -50 -129 l 1,4,5
 -40 -134 -40 -134 -26.5 -138.5 c 128,-1,6
 -13 -143 -13 -143 2 -143 c 0,7,8
 35 -143 35 -143 55 -119 c 128,-1,9
 75 -95 75 -95 75 -53 c 2,10,-1
 75 516 l 1,11,-1
 155 516 l 1,12,-1
 155 -55 l 2,13,14
 155 -102 155 -102 136.5 -138 c 128,-1,15
 118 -174 118 -174 85 -194 c 128,-1,16
 52 -214 52 -214 9 -214 c 0,0,1
EndSplineSet
Validated: 1
EndChar

StartChar: IJ
Encoding: 306 306 203
Width: 672
GlyphClass: 2
Flags: W
AnchorPoint: "Anchor-11" 110 760 baselig 0
AnchorPoint: "Anchor-11" 562 760 baselig 1
LayerCount: 2
Fore
SplineSet
68 291 m 1,0,-1
 68 710 l 1,1,-1
 152 710 l 1,2,-1
 152 291 l 1,3,-1
 68 291 l 1,0,-1
331 -20 m 256,4,5
 269 -20 269 -20 217.5 1 c 128,-1,6
 166 22 166 22 129 61.5 c 128,-1,7
 92 101 92 101 71 157 c 1,8,-1
 150 181 l 1,9,10
 176 120 176 120 222 88.5 c 128,-1,11
 268 57 268 57 330 57 c 0,12,13
 388 57 388 57 430.5 84 c 128,-1,14
 473 111 473 111 496.5 160.5 c 128,-1,15
 520 210 520 210 520 278 c 2,16,-1
 520 710 l 1,17,-1
 604 710 l 1,18,-1
 604 278 l 2,19,20
 604 210 604 210 584.5 155 c 128,-1,21
 565 100 565 100 529 61 c 128,-1,22
 493 22 493 22 443 1 c 128,-1,23
 393 -20 393 -20 331 -20 c 256,4,5
EndSplineSet
Validated: 1
Ligature2: "Ligature Substitution lookup 8 subtable" I J
Position2: "'case' Case-Sensitive Forms in Latin lookup 0 subtable" dx=10 dy=0 dh=20 dv=0
EndChar

StartChar: ij
Encoding: 307 307 204
Width: 573
GlyphClass: 2
Flags: W
LayerCount: 2
Fore
SplineSet
161 667 m 256,0,1
 161 652 161 652 153.5 639.5 c 128,-1,2
 146 627 146 627 133.5 619.5 c 128,-1,3
 121 612 121 612 106 612 c 256,4,5
 91 612 91 612 78.5 619.5 c 128,-1,6
 66 627 66 627 58.5 639.5 c 128,-1,7
 51 652 51 652 51 667 c 256,8,9
 51 682 51 682 58.5 694.5 c 128,-1,10
 66 707 66 707 78.5 714.5 c 128,-1,11
 91 722 91 722 106 722 c 256,12,13
 121 722 121 722 133.5 714.5 c 128,-1,14
 146 707 146 707 153.5 694.5 c 128,-1,15
 161 682 161 682 161 667 c 256,0,1
518 667 m 256,16,17
 518 652 518 652 510.5 639.5 c 128,-1,18
 503 627 503 627 490.5 619.5 c 128,-1,19
 478 612 478 612 463 612 c 256,20,21
 448 612 448 612 435.5 619.5 c 128,-1,22
 423 627 423 627 415.5 639.5 c 128,-1,23
 408 652 408 652 408 667 c 256,24,25
 408 682 408 682 415.5 694.5 c 128,-1,26
 423 707 423 707 435.5 714.5 c 128,-1,27
 448 722 448 722 463 722 c 256,28,29
 478 722 478 722 490.5 714.5 c 128,-1,30
 503 707 503 707 510.5 694.5 c 128,-1,31
 518 682 518 682 518 667 c 256,16,17
260 5 m 0,32,33
 200 5 200 5 156.5 33 c 128,-1,34
 113 61 113 61 89.5 112.5 c 128,-1,35
 66 164 66 164 66 234 c 2,36,-1
 66 516 l 1,37,-1
 146 516 l 1,38,-1
 146 239 l 2,39,40
 146 162 146 162 180 120 c 128,-1,41
 214 78 214 78 275 78 c 0,42,43
 318 78 318 78 351.5 97.5 c 128,-1,44
 385 117 385 117 404 151.5 c 128,-1,45
 423 186 423 186 423 230 c 2,46,-1
 423 516 l 1,47,-1
 503 516 l 1,48,-1
 503 26 l 2,49,50
 503 -48 503 -48 474.5 -103.5 c 128,-1,51
 446 -159 446 -159 394 -189 c 128,-1,52
 342 -219 342 -219 274 -219 c 256,53,54
 206 -219 206 -219 152 -189.5 c 128,-1,55
 98 -160 98 -160 69 -107 c 1,56,-1
 136 -73 l 1,57,58
 161 -110 161 -110 195.5 -130 c 128,-1,59
 230 -150 230 -150 274 -150 c 0,60,61
 320 -150 320 -150 353 -129 c 128,-1,62
 386 -108 386 -108 404.5 -69 c 128,-1,63
 423 -30 423 -30 423 23 c 2,64,-1
 423 95 l 1,65,66
 400 54 400 54 357 29.5 c 128,-1,67
 314 5 314 5 260 5 c 0,32,33
EndSplineSet
Validated: 1
Ligature2: "Ligature Substitution lookup 7 subtable" i j
EndChar

StartChar: glyph205
Encoding: 65571 -1 205
Width: 573
GlyphClass: 2
Flags: W
AnchorPoint: "Anchor-10" 106 562 baselig 0
AnchorPoint: "Anchor-10" 463 562 baselig 1
LayerCount: 2
Fore
SplineSet
260 5 m 0,0,1
 200 5 200 5 156.5 33 c 128,-1,2
 113 61 113 61 89.5 112.5 c 128,-1,3
 66 164 66 164 66 234 c 2,4,-1
 66 516 l 1,5,-1
 146 516 l 1,6,-1
 146 239 l 2,7,8
 146 162 146 162 180 120 c 128,-1,9
 214 78 214 78 275 78 c 0,10,11
 318 78 318 78 351.5 97.5 c 128,-1,12
 385 117 385 117 404 151.5 c 128,-1,13
 423 186 423 186 423 230 c 2,14,-1
 423 516 l 1,15,-1
 503 516 l 1,16,-1
 503 26 l 2,17,18
 503 -48 503 -48 474.5 -103.5 c 128,-1,19
 446 -159 446 -159 394 -189 c 128,-1,20
 342 -219 342 -219 274 -219 c 256,21,22
 206 -219 206 -219 152 -189.5 c 128,-1,23
 98 -160 98 -160 69 -107 c 1,24,-1
 136 -73 l 1,25,26
 161 -110 161 -110 195.5 -130 c 128,-1,27
 230 -150 230 -150 274 -150 c 0,28,29
 320 -150 320 -150 353 -129 c 128,-1,30
 386 -108 386 -108 404.5 -69 c 128,-1,31
 423 -30 423 -30 423 23 c 2,32,-1
 423 95 l 1,33,34
 400 54 400 54 357 29.5 c 128,-1,35
 314 5 314 5 260 5 c 0,0,1
EndSplineSet
Validated: 1
EndChar

StartChar: Thorn
Encoding: 222 222 206
Width: 571
GlyphClass: 2
Flags: W
LayerCount: 2
Fore
SplineSet
78 0 m 1,0,-1
 78 710 l 1,1,-1
 162 710 l 1,2,-1
 162 581 l 1,3,-1
 274 581 l 2,4,5
 355 581 355 581 413.5 554 c 128,-1,6
 472 527 472 527 503 477 c 128,-1,7
 534 427 534 427 534 357 c 0,8,9
 534 289 534 289 501 239 c 128,-1,10
 468 189 468 189 407 162 c 128,-1,11
 346 135 346 135 263 135 c 0,12,13
 241 135 241 135 215.5 137 c 128,-1,14
 190 139 190 139 162 143 c 1,15,-1
 162 0 l 1,16,-1
 78 0 l 1,0,-1
162 506 m 1,17,-1
 162 218 l 1,18,19
 186 214 186 214 212.5 212 c 128,-1,20
 239 210 239 210 261 210 c 0,21,22
 350 210 350 210 399 248.5 c 128,-1,23
 448 287 448 287 448 358 c 0,24,25
 448 404 448 404 427 437 c 128,-1,26
 406 470 406 470 367 488 c 128,-1,27
 328 506 328 506 273 506 c 2,28,-1
 162 506 l 1,17,-1
EndSplineSet
Validated: 1
Position2: "'case' Case-Sensitive Forms in Latin lookup 0 subtable" dx=10 dy=0 dh=20 dv=0
EndChar

StartChar: AE
Encoding: 198 198 207
Width: 999
GlyphClass: 2
Flags: W
LayerCount: 2
Fore
SplineSet
23 0 m 1,0,-1
 205 277 l 1,1,-1
 205 279 l 1,2,-1
 207 279 l 1,3,-1
 490 710 l 1,4,-1
 925 710 l 1,5,-1
 925 635 l 1,6,-1
 610 635 l 1,7,-1
 610 407 l 1,8,-1
 897 407 l 1,9,-1
 897 331 l 1,10,-1
 610 331 l 1,11,-1
 610 76 l 1,12,-1
 935 76 l 1,13,-1
 935 0 l 1,14,-1
 526 0 l 1,15,-1
 526 202 l 1,16,-1
 248 202 l 1,17,-1
 118 0 l 1,18,-1
 23 0 l 1,0,-1
297 279 m 1,19,-1
 526 279 l 1,20,-1
 526 635 l 1,21,-1
 297 279 l 1,19,-1
EndSplineSet
Validated: 1
Position2: "'case' Case-Sensitive Forms in Latin lookup 0 subtable" dx=10 dy=0 dh=20 dv=0
EndChar

StartChar: OE
Encoding: 338 338 208
Width: 1037
GlyphClass: 2
Flags: W
LayerCount: 2
Fore
SplineSet
428 0 m 2,0,1
 342 0 342 0 273 25 c 128,-1,2
 204 50 204 50 154.5 96.5 c 128,-1,3
 105 143 105 143 78.5 208 c 128,-1,4
 52 273 52 273 52 353 c 0,5,6
 52 434 52 434 78.5 499.5 c 128,-1,7
 105 565 105 565 154.5 612 c 128,-1,8
 204 659 204 659 273 684.5 c 128,-1,9
 342 710 342 710 427 710 c 2,10,-1
 963 710 l 1,11,-1
 963 635 l 1,12,-1
 648 635 l 1,13,-1
 648 407 l 1,14,-1
 935 407 l 1,15,-1
 935 331 l 1,16,-1
 648 331 l 1,17,-1
 648 76 l 1,18,-1
 973 76 l 1,19,-1
 973 0 l 1,20,-1
 428 0 l 2,0,1
430 77 m 2,21,-1
 564 77 l 1,22,-1
 564 633 l 1,23,-1
 430 633 l 2,24,25
 363 633 363 633 309 613.5 c 128,-1,26
 255 594 255 594 217 557.5 c 128,-1,27
 179 521 179 521 158.5 470 c 128,-1,28
 138 419 138 419 138 355 c 256,29,30
 138 291 138 291 158.5 240 c 128,-1,31
 179 189 179 189 217.5 152.5 c 128,-1,32
 256 116 256 116 309.5 96.5 c 128,-1,33
 363 77 363 77 430 77 c 2,21,-1
EndSplineSet
Validated: 1
Position2: "'case' Case-Sensitive Forms in Latin lookup 0 subtable" dx=10 dy=0 dh=20 dv=0
EndChar

StartChar: uni1E9E
Encoding: 7838 7838 209
Width: 627
GlyphClass: 2
Flags: W
LayerCount: 2
Fore
SplineSet
359 -15 m 0,0,1
 322 -15 322 -15 288.5 -5.5 c 128,-1,2
 255 4 255 4 224 23 c 1,3,-1
 253 90 l 1,4,5
 272 77 272 77 300.5 68.5 c 128,-1,6
 329 60 329 60 358 60 c 0,7,8
 401 60 401 60 434.5 79 c 128,-1,9
 468 98 468 98 487.5 131 c 128,-1,10
 507 164 507 164 507 207 c 0,11,12
 507 252 507 252 486.5 285.5 c 128,-1,13
 466 319 466 319 430 338.5 c 128,-1,14
 394 358 394 358 346 359 c 1,15,-1
 335 410 l 1,16,-1
 475 585 l 1,17,18
 448 614 448 614 410.5 631 c 128,-1,19
 373 648 373 648 332 648 c 0,20,21
 278 648 278 648 238 622 c 128,-1,22
 198 596 198 596 175.5 548 c 128,-1,23
 153 500 153 500 153 435 c 2,24,-1
 153 0 l 1,25,-1
 69 0 l 1,26,-1
 69 435 l 2,27,28
 69 500 69 500 87.5 553 c 128,-1,29
 106 606 106 606 141 644.5 c 128,-1,30
 176 683 176 683 224 704 c 128,-1,31
 272 725 272 725 330 725 c 0,32,33
 404 725 404 725 467 691.5 c 128,-1,34
 530 658 530 658 574 594 c 1,35,-1
 430 414 l 1,36,37
 479 403 479 403 516 374 c 128,-1,38
 553 345 553 345 573.5 302.5 c 128,-1,39
 594 260 594 260 594 208 c 0,40,41
 594 160 594 160 576.5 119 c 128,-1,42
 559 78 559 78 527.5 48 c 128,-1,43
 496 18 496 18 453 1.5 c 128,-1,44
 410 -15 410 -15 359 -15 c 0,0,1
EndSplineSet
Validated: 1
Position2: "'case' Case-Sensitive Forms in Latin lookup 0 subtable" dx=10 dy=0 dh=20 dv=0
EndChar

StartChar: thorn
Encoding: 254 254 210
Width: 622
GlyphClass: 2
Flags: W
LayerCount: 2
Fore
SplineSet
70 -204 m 1,0,-1
 70 742 l 1,1,-1
 150 742 l 1,2,-1
 150 425 l 1,3,4
 178 474 178 474 226.5 502.5 c 128,-1,5
 275 531 275 531 336 531 c 0,6,7
 387 531 387 531 431 510.5 c 128,-1,8
 475 490 475 490 508 453 c 128,-1,9
 541 416 541 416 559.5 366.5 c 128,-1,10
 578 317 578 317 578 259 c 256,11,12
 578 201 578 201 559.5 151 c 128,-1,13
 541 101 541 101 507.5 64 c 128,-1,14
 474 27 474 27 429 6 c 128,-1,15
 384 -15 384 -15 332 -15 c 0,16,17
 273 -15 273 -15 225.5 12 c 128,-1,18
 178 39 178 39 150 88 c 1,19,-1
 150 -204 l 1,20,-1
 70 -204 l 1,0,-1
322 58 m 256,21,22
 360 58 360 58 391.5 73 c 128,-1,23
 423 88 423 88 446.5 114.5 c 128,-1,24
 470 141 470 141 483 177.5 c 128,-1,25
 496 214 496 214 496 258 c 256,26,27
 496 302 496 302 483 338.5 c 128,-1,28
 470 375 470 375 446.5 401.5 c 128,-1,29
 423 428 423 428 391.5 443 c 128,-1,30
 360 458 360 458 322 458 c 256,31,32
 284 458 284 458 252.5 443 c 128,-1,33
 221 428 221 428 197.5 401.5 c 128,-1,34
 174 375 174 375 161 338.5 c 128,-1,35
 148 302 148 302 148 258 c 256,36,37
 148 214 148 214 161 177.5 c 128,-1,38
 174 141 174 141 197.5 114.5 c 128,-1,39
 221 88 221 88 252.5 73 c 128,-1,40
 284 58 284 58 322 58 c 256,21,22
EndSplineSet
Validated: 1
EndChar

StartChar: f_i.liga
Encoding: 65572 -1 211
Width: 593
GlyphClass: 3
Flags: W
LayerCount: 2
Fore
SplineSet
111 0 m 1,0,-1
 111 448 l 1,1,-1
 16 448 l 1,2,-1
 16 516 l 1,3,-1
 111 516 l 1,4,-1
 111 564 l 2,5,6
 111 621 111 621 131.5 663.5 c 128,-1,7
 152 706 152 706 188.5 729 c 128,-1,8
 225 752 225 752 273 752 c 256,9,10
 321 752 321 752 358 729 c 1,11,-1
 335 667 l 1,12,13
 323 674 323 674 308.5 678 c 128,-1,14
 294 682 294 682 278 682 c 0,15,16
 236 682 236 682 213.5 651.5 c 128,-1,17
 191 621 191 621 191 562 c 2,18,-1
 191 516 l 1,19,-1
 523 516 l 1,20,-1
 523 0 l 1,21,-1
 443 0 l 1,22,-1
 443 448 l 1,23,-1
 191 448 l 1,24,-1
 191 0 l 1,25,-1
 111 0 l 1,0,-1
538 667 m 256,26,27
 538 652 538 652 530.5 639.5 c 128,-1,28
 523 627 523 627 510.5 619.5 c 128,-1,29
 498 612 498 612 483 612 c 256,30,31
 468 612 468 612 455.5 619.5 c 128,-1,32
 443 627 443 627 435.5 639.5 c 128,-1,33
 428 652 428 652 428 667 c 256,34,35
 428 682 428 682 435.5 694.5 c 128,-1,36
 443 707 443 707 455.5 714.5 c 128,-1,37
 468 722 468 722 483 722 c 256,38,39
 498 722 498 722 510.5 714.5 c 128,-1,40
 523 707 523 707 530.5 694.5 c 128,-1,41
 538 682 538 682 538 667 c 256,26,27
EndSplineSet
Validated: 1
Ligature2: "'liga' Standard Ligatures in Latin lookup 23 subtable" f i
EndChar

StartChar: f_f.liga
Encoding: 65573 -1 212
Width: 710
GlyphClass: 3
Flags: W
LayerCount: 2
Fore
SplineSet
111 0 m 1,0,-1
 111 448 l 1,1,-1
 16 448 l 1,2,-1
 16 516 l 1,3,-1
 111 516 l 1,4,-1
 111 564 l 2,5,6
 111 621 111 621 132 663.5 c 128,-1,7
 153 706 153 706 191.5 729 c 128,-1,8
 230 752 230 752 281 752 c 0,9,10
 335 752 335 752 378 726 c 1,11,-1
 355 664 l 1,12,13
 340 672 340 672 322 677 c 128,-1,14
 304 682 304 682 286 682 c 0,15,16
 239 682 239 682 215 651 c 128,-1,17
 191 620 191 620 191 562 c 2,18,-1
 191 516 l 1,19,-1
 443 516 l 1,20,-1
 443 564 l 2,21,22
 443 621 443 621 464.5 663.5 c 128,-1,23
 486 706 486 706 524 729 c 128,-1,24
 562 752 562 752 613 752 c 0,25,26
 667 752 667 752 710 726 c 1,27,-1
 687 664 l 1,28,29
 672 672 672 672 654 677 c 128,-1,30
 636 682 636 682 618 682 c 0,31,32
 571 682 571 682 547 651 c 128,-1,33
 523 620 523 620 523 562 c 2,34,-1
 523 516 l 1,35,-1
 686 516 l 1,36,-1
 686 448 l 1,37,-1
 523 448 l 1,38,-1
 523 0 l 1,39,-1
 443 0 l 1,40,-1
 443 448 l 1,41,-1
 191 448 l 1,42,-1
 191 0 l 1,43,-1
 111 0 l 1,0,-1
EndSplineSet
Validated: 1
Ligature2: "'liga' Standard Ligatures in Latin lookup 23 subtable" f f
EndChar

StartChar: f_f_i.liga
Encoding: 65574 -1 213
Width: 925
GlyphClass: 3
Flags: W
LayerCount: 2
Fore
SplineSet
111 0 m 1,0,-1
 111 448 l 1,1,-1
 16 448 l 1,2,-1
 16 516 l 1,3,-1
 111 516 l 1,4,-1
 111 564 l 2,5,6
 111 621 111 621 132 663.5 c 128,-1,7
 153 706 153 706 191.5 729 c 128,-1,8
 230 752 230 752 281 752 c 0,9,10
 335 752 335 752 378 726 c 1,11,-1
 355 664 l 1,12,13
 340 672 340 672 322 677 c 128,-1,14
 304 682 304 682 286 682 c 0,15,16
 239 682 239 682 215 651 c 128,-1,17
 191 620 191 620 191 562 c 2,18,-1
 191 516 l 1,19,-1
 443 516 l 1,20,-1
 443 564 l 2,21,22
 443 621 443 621 463.5 663.5 c 128,-1,23
 484 706 484 706 520.5 729 c 128,-1,24
 557 752 557 752 605 752 c 256,25,26
 653 752 653 752 690 729 c 1,27,-1
 667 667 l 1,28,29
 655 674 655 674 640.5 678 c 128,-1,30
 626 682 626 682 610 682 c 0,31,32
 568 682 568 682 545.5 651.5 c 128,-1,33
 523 621 523 621 523 562 c 2,34,-1
 523 516 l 1,35,-1
 855 516 l 1,36,-1
 855 0 l 1,37,-1
 775 0 l 1,38,-1
 775 448 l 1,39,-1
 523 448 l 1,40,-1
 523 0 l 1,41,-1
 443 0 l 1,42,-1
 443 448 l 1,43,-1
 191 448 l 1,44,-1
 191 0 l 1,45,-1
 111 0 l 1,0,-1
870 667 m 256,46,47
 870 652 870 652 862.5 639.5 c 128,-1,48
 855 627 855 627 842.5 619.5 c 128,-1,49
 830 612 830 612 815 612 c 256,50,51
 800 612 800 612 787.5 619.5 c 128,-1,52
 775 627 775 627 767.5 639.5 c 128,-1,53
 760 652 760 652 760 667 c 256,54,55
 760 682 760 682 767.5 694.5 c 128,-1,56
 775 707 775 707 787.5 714.5 c 128,-1,57
 800 722 800 722 815 722 c 256,58,59
 830 722 830 722 842.5 714.5 c 128,-1,60
 855 707 855 707 862.5 694.5 c 128,-1,61
 870 682 870 682 870 667 c 256,46,47
EndSplineSet
Validated: 1
Ligature2: "'liga' Standard Ligatures in Latin lookup 23 subtable" f f i
EndChar

StartChar: ae.ss01
Encoding: 65575 -1 214
Width: 976
Flags: W
LayerCount: 2
Fore
SplineSet
281 -15 m 0,0,1
 231 -15 231 -15 187.5 5.5 c 128,-1,2
 144 26 144 26 112 63 c 128,-1,3
 80 100 80 100 62 149.5 c 128,-1,4
 44 199 44 199 44 257 c 256,5,6
 44 315 44 315 62.5 365 c 128,-1,7
 81 415 81 415 113.5 452 c 128,-1,8
 146 489 146 489 189.5 510 c 128,-1,9
 233 531 233 531 284 531 c 0,10,11
 324 531 324 531 359.5 517 c 128,-1,12
 395 503 395 503 422 476.5 c 128,-1,13
 449 450 449 450 466 413 c 1,14,-1
 467 516 l 1,15,-1
 533 516 l 1,16,-1
 534 433 l 1,17,18
 564 479 564 479 608.5 504.5 c 128,-1,19
 653 530 653 530 709 530 c 0,20,21
 756 530 756 530 796.5 511 c 128,-1,22
 837 492 837 492 867.5 458 c 128,-1,23
 898 424 898 424 915 377 c 128,-1,24
 932 330 932 330 932 275 c 2,25,-1
 932 242 l 1,26,-1
 541 242 l 1,27,28
 544 186 544 186 566.5 144 c 128,-1,29
 589 102 589 102 626 79 c 128,-1,30
 663 56 663 56 712 56 c 0,31,32
 758 56 758 56 793.5 76.5 c 128,-1,33
 829 97 829 97 854 137 c 1,34,-1
 922 106 l 1,35,36
 903 66 903 66 871 39.5 c 128,-1,37
 839 13 839 13 798.5 -1 c 128,-1,38
 758 -15 758 -15 716 -15 c 0,39,40
 656 -15 656 -15 610 8.5 c 128,-1,41
 564 32 564 32 534 78 c 1,42,-1
 533 0 l 1,43,-1
 467 0 l 1,44,-1
 466 105 l 1,45,46
 440 50 440 50 391.5 17.5 c 128,-1,47
 343 -15 343 -15 281 -15 c 0,0,1
700 462 m 256,48,49
 660 462 660 462 627.5 442 c 128,-1,50
 595 422 595 422 573.5 386.5 c 128,-1,51
 552 351 552 351 545 304 c 1,52,-1
 848 304 l 1,53,54
 844 351 844 351 824 386.5 c 128,-1,55
 804 422 804 422 772 442 c 128,-1,56
 740 462 740 462 700 462 c 256,48,49
295 58 m 256,57,58
 332 58 332 58 363 73 c 128,-1,59
 394 88 394 88 416.5 114.5 c 128,-1,60
 439 141 439 141 451.5 177.5 c 128,-1,61
 464 214 464 214 464 258 c 256,62,63
 464 302 464 302 451.5 338.5 c 128,-1,64
 439 375 439 375 416.5 401.5 c 128,-1,65
 394 428 394 428 363 443 c 128,-1,66
 332 458 332 458 295 458 c 256,67,68
 258 458 258 458 227 443 c 128,-1,69
 196 428 196 428 173.5 401.5 c 128,-1,70
 151 375 151 375 138.5 338.5 c 128,-1,71
 126 302 126 302 126 258 c 256,72,73
 126 214 126 214 138.5 177.5 c 128,-1,74
 151 141 151 141 173.5 114.5 c 128,-1,75
 196 88 196 88 227 73 c 128,-1,76
 258 58 258 58 295 58 c 256,57,58
EndSplineSet
Validated: 1
EndChar

StartChar: ae
Encoding: 230 230 215
Width: 899
GlyphClass: 2
Flags: W
LayerCount: 2
Fore
SplineSet
233 -15 m 0,0,1
 193 -15 193 -15 158.5 -3 c 128,-1,2
 124 9 124 9 98.5 30.5 c 128,-1,3
 73 52 73 52 59 82 c 128,-1,4
 45 112 45 112 45 148 c 0,5,6
 45 196 45 196 70.5 233 c 128,-1,7
 96 270 96 270 142 290.5 c 128,-1,8
 188 311 188 311 248 311 c 0,9,10
 286 311 286 311 322.5 303 c 128,-1,11
 359 295 359 295 387 282 c 1,12,-1
 387 320 l 2,13,14
 387 362 387 362 371.5 393.5 c 128,-1,15
 356 425 356 425 328 442.5 c 128,-1,16
 300 460 300 460 262 460 c 0,17,18
 217 460 217 460 183.5 438 c 128,-1,19
 150 416 150 416 134 376 c 1,20,-1
 64 400 l 1,21,22
 77 440 77 440 106 469 c 128,-1,23
 135 498 135 498 175 514 c 128,-1,24
 215 530 215 530 263 530 c 0,25,26
 323 530 323 530 367.5 502 c 128,-1,27
 412 474 412 474 435 425 c 1,28,29
 466 474 466 474 514.5 502 c 128,-1,30
 563 530 563 530 624 530 c 0,31,32
 674 530 674 530 716 511 c 128,-1,33
 758 492 758 492 789 458 c 128,-1,34
 820 424 820 424 837.5 377 c 128,-1,35
 855 330 855 330 855 275 c 2,36,-1
 855 242 l 1,37,-1
 464 242 l 1,38,39
 467 186 467 186 489.5 144 c 128,-1,40
 512 102 512 102 549 79 c 128,-1,41
 586 56 586 56 635 56 c 0,42,43
 681 56 681 56 716.5 76.5 c 128,-1,44
 752 97 752 97 777 137 c 1,45,-1
 845 106 l 1,46,47
 826 68 826 68 794.5 41 c 128,-1,48
 763 14 763 14 722.5 -0.5 c 128,-1,49
 682 -15 682 -15 636 -15 c 0,50,51
 566 -15 566 -15 511 17.5 c 128,-1,52
 456 50 456 50 424 106 c 1,53,54
 412 72 412 72 385 44.5 c 128,-1,55
 358 17 358 17 319 1 c 128,-1,56
 280 -15 280 -15 233 -15 c 0,0,1
623 462 m 256,57,58
 583 462 583 462 550.5 442 c 128,-1,59
 518 422 518 422 496.5 386.5 c 128,-1,60
 475 351 475 351 468 304 c 1,61,-1
 771 304 l 1,62,63
 767 351 767 351 747 386.5 c 128,-1,64
 727 422 727 422 695 442 c 128,-1,65
 663 462 663 462 623 462 c 256,57,58
126 148 m 0,66,67
 126 119 126 119 140.5 97.5 c 128,-1,68
 155 76 155 76 180.5 64 c 128,-1,69
 206 52 206 52 239 52 c 0,70,71
 282 52 282 52 315.5 71.5 c 128,-1,72
 349 91 349 91 368 124.5 c 128,-1,73
 387 158 387 158 387 201 c 2,74,-1
 387 220 l 1,75,76
 356 233 356 233 323 240.5 c 128,-1,77
 290 248 290 248 259 248 c 0,78,79
 219 248 219 248 189 236 c 128,-1,80
 159 224 159 224 142.5 201.5 c 128,-1,81
 126 179 126 179 126 148 c 0,66,67
EndSplineSet
Validated: 1
Substitution2: "'ss01' Style Set 1 in Latin lookup 14 subtable" ae.ss01
EndChar

StartChar: oe
Encoding: 339 339 216
Width: 981
GlyphClass: 2
Flags: W
LayerCount: 2
Fore
SplineSet
293 -15 m 0,0,1
 239 -15 239 -15 193.5 5.5 c 128,-1,2
 148 26 148 26 114.5 62.5 c 128,-1,3
 81 99 81 99 62.5 149 c 128,-1,4
 44 199 44 199 44 258 c 256,5,6
 44 317 44 317 63 367 c 128,-1,7
 82 417 82 417 115.5 453.5 c 128,-1,8
 149 490 149 490 194.5 510.5 c 128,-1,9
 240 531 240 531 294 531 c 0,10,11
 362 531 362 531 416.5 498.5 c 128,-1,12
 471 466 471 466 504 411 c 1,13,14
 535 466 535 466 587 498 c 128,-1,15
 639 530 639 530 705 530 c 0,16,17
 755 530 755 530 797.5 511 c 128,-1,18
 840 492 840 492 871 458 c 128,-1,19
 902 424 902 424 919.5 377 c 128,-1,20
 937 330 937 330 937 275 c 2,21,-1
 937 242 l 1,22,-1
 546 242 l 1,23,24
 549 186 549 186 571.5 144 c 128,-1,25
 594 102 594 102 631 79 c 128,-1,26
 668 56 668 56 717 56 c 0,27,28
 763 56 763 56 798.5 76.5 c 128,-1,29
 834 97 834 97 859 137 c 1,30,-1
 927 106 l 1,31,32
 908 68 908 68 876.5 41 c 128,-1,33
 845 14 845 14 804.5 -0.5 c 128,-1,34
 764 -15 764 -15 717 -15 c 0,35,36
 669 -15 669 -15 628 0 c 128,-1,37
 587 15 587 15 555.5 41.5 c 128,-1,38
 524 68 524 68 503 104 c 1,39,40
 470 49 470 49 415.5 17 c 128,-1,41
 361 -15 361 -15 293 -15 c 0,0,1
705 462 m 256,42,43
 665 462 665 462 632.5 442 c 128,-1,44
 600 422 600 422 578.5 386.5 c 128,-1,45
 557 351 557 351 550 304 c 1,46,-1
 853 304 l 1,47,48
 849 351 849 351 829 386.5 c 128,-1,49
 809 422 809 422 777 442 c 128,-1,50
 745 462 745 462 705 462 c 256,42,43
295 58 m 256,51,52
 332 58 332 58 363 73 c 128,-1,53
 394 88 394 88 416.5 114.5 c 128,-1,54
 439 141 439 141 451.5 177.5 c 128,-1,55
 464 214 464 214 464 258 c 256,56,57
 464 302 464 302 451.5 338.5 c 128,-1,58
 439 375 439 375 416.5 401.5 c 128,-1,59
 394 428 394 428 363 443 c 128,-1,60
 332 458 332 458 295 458 c 256,61,62
 258 458 258 458 227 443 c 128,-1,63
 196 428 196 428 173.5 401.5 c 128,-1,64
 151 375 151 375 138.5 338.5 c 128,-1,65
 126 302 126 302 126 258 c 256,66,67
 126 214 126 214 138.5 177.5 c 128,-1,68
 151 141 151 141 173.5 114.5 c 128,-1,69
 196 88 196 88 227 73 c 128,-1,70
 258 58 258 58 295 58 c 256,51,52
EndSplineSet
Validated: 1
EndChar

StartChar: germandbls
Encoding: 223 223 217
Width: 584
GlyphClass: 2
Flags: W
LayerCount: 2
Fore
SplineSet
318 -10 m 0,0,1
 292 -10 292 -10 265.5 -5 c 128,-1,2
 239 0 239 0 219 9 c 1,3,-1
 235 78 l 1,4,5
 250 71 250 71 272 67 c 128,-1,6
 294 63 294 63 313 63 c 0,7,8
 354 63 354 63 387 82.5 c 128,-1,9
 420 102 420 102 438.5 135 c 128,-1,10
 457 168 457 168 457 210 c 0,11,12
 457 254 457 254 436.5 288 c 128,-1,13
 416 322 416 322 380.5 341 c 128,-1,14
 345 360 345 360 300 360 c 2,15,-1
 267 360 l 1,16,-1
 267 429 l 1,17,-1
 290 429 l 2,18,19
 326 429 326 429 355.5 445.5 c 128,-1,20
 385 462 385 462 402 491 c 128,-1,21
 419 520 419 520 419 555 c 256,22,23
 419 590 419 590 402 618 c 128,-1,24
 385 646 385 646 355 662.5 c 128,-1,25
 325 679 325 679 287 679 c 0,26,27
 247 679 247 679 216 660 c 128,-1,28
 185 641 185 641 167.5 607.5 c 128,-1,29
 150 574 150 574 150 530 c 2,30,-1
 150 0 l 1,31,-1
 70 0 l 1,32,-1
 70 527 l 2,33,34
 70 576 70 576 86 617.5 c 128,-1,35
 102 659 102 659 131 689 c 128,-1,36
 160 719 160 719 200 735.5 c 128,-1,37
 240 752 240 752 288 752 c 0,38,39
 333 752 333 752 372 737.5 c 128,-1,40
 411 723 411 723 440 697 c 128,-1,41
 469 671 469 671 485 636.5 c 128,-1,42
 501 602 501 602 501 561 c 0,43,44
 501 510 501 510 475.5 467.5 c 128,-1,45
 450 425 450 425 404 402 c 1,46,47
 445 388 445 388 475 360.5 c 128,-1,48
 505 333 505 333 522 294.5 c 128,-1,49
 539 256 539 256 539 209 c 0,50,51
 539 163 539 163 522.5 123 c 128,-1,52
 506 83 506 83 476 53 c 128,-1,53
 446 23 446 23 405.5 6.5 c 128,-1,54
 365 -10 365 -10 318 -10 c 0,0,1
EndSplineSet
Validated: 1
EndChar

StartChar: kgreenlandic
Encoding: 312 312 218
Width: 529
GlyphClass: 2
Flags: W
LayerCount: 2
Fore
SplineSet
70 0 m 1,0,-1
 70 516 l 1,1,-1
 150 516 l 1,2,-1
 150 288 l 1,3,-1
 394 516 l 1,4,-1
 497 516 l 1,5,-1
 233 274 l 1,6,-1
 521 0 l 1,7,-1
 411 0 l 1,8,-1
 150 252 l 1,9,-1
 150 0 l 1,10,-1
 70 0 l 1,0,-1
EndSplineSet
Validated: 1
EndChar

StartChar: Eng
Encoding: 330 330 219
Width: 708
GlyphClass: 2
Flags: W
LayerCount: 2
Fore
SplineSet
78 0 m 1,0,-1
 78 710 l 1,1,-1
 152 710 l 1,2,-1
 548 141 l 1,3,-1
 548 710 l 1,4,-1
 630 710 l 1,5,-1
 630 -26 l 2,6,7
 630 -84 630 -84 607.5 -127.5 c 128,-1,8
 585 -171 585 -171 544.5 -194.5 c 128,-1,9
 504 -218 504 -218 450 -218 c 0,10,11
 418 -218 418 -218 387 -207.5 c 128,-1,12
 356 -197 356 -197 334 -180 c 1,13,-1
 364 -117 l 1,14,15
 381 -130 381 -130 403 -137 c 128,-1,16
 425 -144 425 -144 445 -144 c 0,17,18
 492 -144 492 -144 520 -112 c 128,-1,19
 548 -80 548 -80 548 -25 c 2,20,-1
 548 11 l 1,21,-1
 160 569 l 1,22,-1
 160 0 l 1,23,-1
 78 0 l 1,0,-1
EndSplineSet
Validated: 1
EndChar

StartChar: eng
Encoding: 331 331 220
Width: 573
GlyphClass: 2
Flags: W
LayerCount: 2
Fore
SplineSet
70 0 m 1,0,-1
 70 516 l 1,1,-1
 142 516 l 1,2,-1
 146 434 l 1,3,4
 169 478 169 478 212.5 504.5 c 128,-1,5
 256 531 256 531 313 531 c 0,6,7
 372 531 372 531 416 503 c 128,-1,8
 460 475 460 475 483.5 423.5 c 128,-1,9
 507 372 507 372 507 302 c 2,10,-1
 507 -55 l 2,11,12
 507 -102 507 -102 488.5 -138 c 128,-1,13
 470 -174 470 -174 436 -194 c 128,-1,14
 402 -214 402 -214 358 -214 c 0,15,16
 334 -214 334 -214 311.5 -208 c 128,-1,17
 289 -202 289 -202 272 -191 c 1,18,-1
 297 -129 l 1,19,20
 308 -134 308 -134 321.5 -138.5 c 128,-1,21
 335 -143 335 -143 351 -143 c 0,22,23
 386 -143 386 -143 406.5 -119 c 128,-1,24
 427 -95 427 -95 427 -53 c 2,25,-1
 427 297 l 2,26,27
 427 374 427 374 393.5 416 c 128,-1,28
 360 458 360 458 298 458 c 0,29,30
 255 458 255 458 221.5 438.5 c 128,-1,31
 188 419 188 419 169 384.5 c 128,-1,32
 150 350 150 350 150 306 c 2,33,-1
 150 0 l 1,34,-1
 70 0 l 1,0,-1
EndSplineSet
Validated: 1
EndChar

StartChar: Eth
Encoding: 208 208 221
Width: 751
GlyphClass: 2
Flags: W
LayerCount: 2
Fore
SplineSet
88 0 m 1,0,-1
 88 336 l 1,1,-1
 -1 336 l 1,2,-1
 -1 403 l 1,3,-1
 88 403 l 1,4,-1
 88 710 l 1,5,-1
 323 710 l 2,6,7
 408 710 408 710 477.5 685 c 128,-1,8
 547 660 547 660 596.5 613.5 c 128,-1,9
 646 567 646 567 672.5 502 c 128,-1,10
 699 437 699 437 699 357 c 0,11,12
 699 276 699 276 672.5 210.5 c 128,-1,13
 646 145 646 145 596.5 98 c 128,-1,14
 547 51 547 51 478 25.5 c 128,-1,15
 409 0 409 0 324 0 c 2,16,-1
 88 0 l 1,0,-1
172 77 m 1,17,-1
 321 77 l 2,18,19
 388 77 388 77 442 96.5 c 128,-1,20
 496 116 496 116 534 152.5 c 128,-1,21
 572 189 572 189 592.5 240 c 128,-1,22
 613 291 613 291 613 355 c 256,23,24
 613 419 613 419 592.5 470 c 128,-1,25
 572 521 572 521 533.5 557.5 c 128,-1,26
 495 594 495 594 441.5 613.5 c 128,-1,27
 388 633 388 633 321 633 c 2,28,-1
 172 633 l 1,29,-1
 172 403 l 1,30,-1
 341 403 l 1,31,-1
 341 336 l 1,32,-1
 172 336 l 1,33,-1
 172 77 l 1,17,-1
EndSplineSet
Validated: 1
Position2: "'case' Case-Sensitive Forms in Latin lookup 0 subtable" dx=10 dy=0 dh=20 dv=0
EndChar

StartChar: Hbar
Encoding: 294 294 223
Width: 738
GlyphClass: 2
Flags: W
LayerCount: 2
Fore
SplineSet
88 0 m 1,0,-1
 88 540 l 1,1,-1
 -1 540 l 1,2,-1
 -1 604 l 1,3,-1
 88 604 l 1,4,-1
 88 710 l 1,5,-1
 172 710 l 1,6,-1
 172 604 l 1,7,-1
 566 604 l 1,8,-1
 566 710 l 1,9,-1
 650 710 l 1,10,-1
 650 604 l 1,11,-1
 739 604 l 1,12,-1
 739 540 l 1,13,-1
 650 540 l 1,14,-1
 650 0 l 1,15,-1
 566 0 l 1,16,-1
 566 326 l 1,17,-1
 172 326 l 1,18,-1
 172 0 l 1,19,-1
 88 0 l 1,0,-1
172 403 m 1,20,-1
 566 403 l 1,21,-1
 566 540 l 1,22,-1
 172 540 l 1,23,-1
 172 403 l 1,20,-1
EndSplineSet
Validated: 1
Position2: "'case' Case-Sensitive Forms in Latin lookup 0 subtable" dx=10 dy=0 dh=20 dv=0
EndChar

StartChar: Tbar
Encoding: 358 358 224
Width: 614
GlyphClass: 2
Flags: W
LayerCount: 2
Fore
SplineSet
265 0 m 1,0,-1
 265 314 l 1,1,-1
 135 314 l 1,2,-1
 135 381 l 1,3,-1
 265 381 l 1,4,-1
 265 633 l 1,5,-1
 48 633 l 1,6,-1
 48 710 l 1,7,-1
 566 710 l 1,8,-1
 566 633 l 1,9,-1
 349 633 l 1,10,-1
 349 381 l 1,11,-1
 479 381 l 1,12,-1
 479 314 l 1,13,-1
 349 314 l 1,14,-1
 349 0 l 1,15,-1
 265 0 l 1,0,-1
EndSplineSet
Validated: 1
Position2: "'case' Case-Sensitive Forms in Latin lookup 0 subtable" dx=10 dy=0 dh=20 dv=0
EndChar

StartChar: Lslash
Encoding: 321 321 225
Width: 535
GlyphClass: 2
Flags: W
LayerCount: 2
Fore
SplineSet
88 0 m 1,0,-1
 88 250 l 1,1,-1
 -1 184 l 1,2,-1
 -1 264 l 1,3,-1
 88 330 l 1,4,-1
 88 710 l 1,5,-1
 172 710 l 1,6,-1
 172 393 l 1,7,-1
 307 493 l 1,8,-1
 307 413 l 1,9,-1
 172 313 l 1,10,-1
 172 77 l 1,11,-1
 488 77 l 1,12,-1
 488 0 l 1,13,-1
 88 0 l 1,0,-1
EndSplineSet
Validated: 1
Position2: "'case' Case-Sensitive Forms in Latin lookup 0 subtable" dx=10 dy=0 dh=20 dv=0
EndChar

StartChar: Oslash
Encoding: 216 216 226
Width: 799
GlyphClass: 2
Flags: W
LayerCount: 2
Fore
SplineSet
150 -35 m 1,0,-1
 62 -35 l 1,1,-1
 151 83 l 1,2,3
 104 133 104 133 78 202.5 c 128,-1,4
 52 272 52 272 52 354 c 0,5,6
 52 419 52 419 69 476 c 128,-1,7
 86 533 86 533 117 580 c 128,-1,8
 148 627 148 627 191 660.5 c 128,-1,9
 234 694 234 694 287 712 c 128,-1,10
 340 730 340 730 401 730 c 0,11,12
 456 730 456 730 504.5 715 c 128,-1,13
 553 700 553 700 594 672 c 1,14,-1
 649 745 l 1,15,-1
 737 745 l 1,16,-1
 647 626 l 1,17,18
 694 576 694 576 720 506.5 c 128,-1,19
 746 437 746 437 746 355 c 0,20,21
 746 290 746 290 729 233 c 128,-1,22
 712 176 712 176 681 129 c 128,-1,23
 650 82 650 82 607 48.5 c 128,-1,24
 564 15 564 15 511 -3 c 128,-1,25
 458 -21 458 -21 397 -21 c 0,26,27
 342 -21 342 -21 293.5 -6 c 128,-1,28
 245 9 245 9 204 37 c 1,29,-1
 150 -35 l 1,0,-1
135 355 m 0,30,31
 135 293 135 293 152 240.5 c 128,-1,32
 169 188 169 188 200 149 c 1,33,-1
 547 609 l 1,34,35
 516 632 516 632 478.5 644 c 128,-1,36
 441 656 441 656 399 656 c 0,37,38
 342 656 342 656 293.5 634 c 128,-1,39
 245 612 245 612 209.5 571.5 c 128,-1,40
 174 531 174 531 154.5 476 c 128,-1,41
 135 421 135 421 135 355 c 0,30,31
663 355 m 0,42,43
 663 416 663 416 646 468.5 c 128,-1,44
 629 521 629 521 598 560 c 1,45,-1
 251 100 l 1,46,47
 282 77 282 77 319.5 65 c 128,-1,48
 357 53 357 53 399 53 c 0,49,50
 456 53 456 53 504.5 75 c 128,-1,51
 553 97 553 97 588.5 138 c 128,-1,52
 624 179 624 179 643.5 234 c 128,-1,53
 663 289 663 289 663 355 c 0,42,43
EndSplineSet
Validated: 1
Position2: "'case' Case-Sensitive Forms in Latin lookup 0 subtable" dx=10 dy=0 dh=20 dv=0
EndChar

StartChar: eth
Encoding: 240 240 227
Width: 606
GlyphClass: 2
Flags: W
LayerCount: 2
Fore
SplineSet
298 -15 m 0,0,1
 244 -15 244 -15 198 5 c 128,-1,2
 152 25 152 25 117 61.5 c 128,-1,3
 82 98 82 98 63 146 c 128,-1,4
 44 194 44 194 44 251 c 0,5,6
 44 307 44 307 63 355.5 c 128,-1,7
 82 404 82 404 115.5 441 c 128,-1,8
 149 478 149 478 193 498.5 c 128,-1,9
 237 519 237 519 288 519 c 0,10,11
 336 519 336 519 377.5 499 c 128,-1,12
 419 479 419 479 447 443 c 1,13,14
 431 486 431 486 404.5 529.5 c 128,-1,15
 378 573 378 573 344 612 c 1,16,-1
 246 562 l 1,17,-1
 219 614 l 1,18,-1
 303 657 l 1,19,20
 267 692 267 692 228 720 c 1,21,-1
 310 749 l 1,22,23
 344 723 344 723 374 693 c 1,24,-1
 463 739 l 1,25,-1
 491 688 l 1,26,-1
 414 649 l 1,27,28
 459 595 459 595 490.5 533.5 c 128,-1,29
 522 472 522 472 539 407.5 c 128,-1,30
 556 343 556 343 556 279 c 0,31,32
 556 213 556 213 538 158.5 c 128,-1,33
 520 104 520 104 486 65.5 c 128,-1,34
 452 27 452 27 404 6 c 128,-1,35
 356 -15 356 -15 298 -15 c 0,0,1
300 58 m 256,36,37
 338 58 338 58 369.5 72.5 c 128,-1,38
 401 87 401 87 424.5 113 c 128,-1,39
 448 139 448 139 461 175 c 128,-1,40
 474 211 474 211 474 253 c 256,41,42
 474 295 474 295 461 331 c 128,-1,43
 448 367 448 367 424.5 393 c 128,-1,44
 401 419 401 419 369.5 433.5 c 128,-1,45
 338 448 338 448 300 448 c 256,46,47
 262 448 262 448 230.5 433.5 c 128,-1,48
 199 419 199 419 175.5 393 c 128,-1,49
 152 367 152 367 139 331 c 128,-1,50
 126 295 126 295 126 253 c 256,51,52
 126 211 126 211 139 175 c 128,-1,53
 152 139 152 139 175.5 113 c 128,-1,54
 199 87 199 87 230.5 72.5 c 128,-1,55
 262 58 262 58 300 58 c 256,36,37
EndSplineSet
Validated: 1
EndChar

StartChar: dcroat
Encoding: 273 273 228
Width: 622
GlyphClass: 2
Flags: W
LayerCount: 2
Fore
SplineSet
286 -15 m 0,0,1
 235 -15 235 -15 191 5.5 c 128,-1,2
 147 26 147 26 114 63 c 128,-1,3
 81 100 81 100 62.5 149.5 c 128,-1,4
 44 199 44 199 44 257 c 256,5,6
 44 315 44 315 62.5 365 c 128,-1,7
 81 415 81 415 114.5 452 c 128,-1,8
 148 489 148 489 193 510 c 128,-1,9
 238 531 238 531 290 531 c 0,10,11
 349 531 349 531 396.5 504 c 128,-1,12
 444 477 444 477 472 428 c 1,13,-1
 472 597 l 1,14,-1
 308 597 l 1,15,-1
 308 659 l 1,16,-1
 472 659 l 1,17,-1
 472 742 l 1,18,-1
 552 742 l 1,19,-1
 552 659 l 1,20,-1
 631 659 l 1,21,-1
 631 597 l 1,22,-1
 552 597 l 1,23,-1
 552 0 l 1,24,-1
 480 0 l 1,25,-1
 476 98 l 1,26,27
 448 45 448 45 398.5 15 c 128,-1,28
 349 -15 349 -15 286 -15 c 0,0,1
300 58 m 256,29,30
 338 58 338 58 369.5 73 c 128,-1,31
 401 88 401 88 424.5 114.5 c 128,-1,32
 448 141 448 141 461 177.5 c 128,-1,33
 474 214 474 214 474 258 c 256,34,35
 474 302 474 302 461 338.5 c 128,-1,36
 448 375 448 375 424.5 401.5 c 128,-1,37
 401 428 401 428 369.5 443 c 128,-1,38
 338 458 338 458 300 458 c 256,39,40
 262 458 262 458 230.5 443 c 128,-1,41
 199 428 199 428 175.5 401.5 c 128,-1,42
 152 375 152 375 139 338.5 c 128,-1,43
 126 302 126 302 126 258 c 256,44,45
 126 214 126 214 139 177.5 c 128,-1,46
 152 141 152 141 175.5 114.5 c 128,-1,47
 199 88 199 88 230.5 73 c 128,-1,48
 262 58 262 58 300 58 c 256,29,30
EndSplineSet
Validated: 1
EndChar

StartChar: hbar
Encoding: 295 295 229
Width: 573
GlyphClass: 2
Flags: W
LayerCount: 2
Fore
SplineSet
70 0 m 1,0,-1
 70 599 l 1,1,-1
 -9 599 l 1,2,-1
 -9 657 l 1,3,-1
 70 657 l 1,4,-1
 70 742 l 1,5,-1
 150 742 l 1,6,-1
 150 657 l 1,7,-1
 314 657 l 1,8,-1
 314 599 l 1,9,-1
 150 599 l 1,10,-1
 150 441 l 1,11,12
 173 482 173 482 216 506.5 c 128,-1,13
 259 531 259 531 313 531 c 0,14,15
 372 531 372 531 416 503 c 128,-1,16
 460 475 460 475 483.5 423.5 c 128,-1,17
 507 372 507 372 507 302 c 2,18,-1
 507 0 l 1,19,-1
 427 0 l 1,20,-1
 427 297 l 2,21,22
 427 374 427 374 393.5 416 c 128,-1,23
 360 458 360 458 298 458 c 0,24,25
 255 458 255 458 221.5 438.5 c 128,-1,26
 188 419 188 419 169 384.5 c 128,-1,27
 150 350 150 350 150 306 c 2,28,-1
 150 0 l 1,29,-1
 70 0 l 1,0,-1
EndSplineSet
Validated: 1
EndChar

StartChar: tbar
Encoding: 359 359 230
Width: 408
GlyphClass: 2
Flags: W
LayerCount: 2
Fore
SplineSet
26 242 m 1,0,-1
 26 303 l 1,1,-1
 111 303 l 1,2,-1
 111 448 l 1,3,-1
 16 448 l 1,4,-1
 16 516 l 1,5,-1
 111 516 l 1,6,-1
 111 689 l 1,7,-1
 191 689 l 1,8,-1
 191 516 l 1,9,-1
 353 516 l 1,10,-1
 353 448 l 1,11,-1
 191 448 l 1,12,-1
 191 303 l 1,13,-1
 343 303 l 1,14,-1
 343 242 l 1,15,-1
 191 242 l 1,16,-1
 191 154 l 2,17,18
 191 108 191 108 210.5 82.5 c 128,-1,19
 230 57 230 57 270 57 c 0,20,21
 291 57 291 57 312.5 63.5 c 128,-1,22
 334 70 334 70 351 81 c 1,23,-1
 375 19 l 1,24,25
 354 4 354 4 326 -5.5 c 128,-1,26
 298 -15 298 -15 263 -15 c 0,27,28
 216 -15 216 -15 182 4 c 128,-1,29
 148 23 148 23 129.5 60 c 128,-1,30
 111 97 111 97 111 150 c 2,31,-1
 111 242 l 1,32,-1
 26 242 l 1,0,-1
EndSplineSet
Validated: 1
EndChar

StartChar: lslash
Encoding: 322 322 231
Width: 242
GlyphClass: 2
Flags: W
LayerCount: 2
Fore
SplineSet
81 0 m 1,0,-1
 81 303 l 1,1,-1
 2 244 l 1,2,-1
 2 318 l 1,3,-1
 81 377 l 1,4,-1
 81 742 l 1,5,-1
 161 742 l 1,6,-1
 161 438 l 1,7,-1
 240 497 l 1,8,-1
 240 423 l 1,9,-1
 161 364 l 1,10,-1
 161 0 l 1,11,-1
 81 0 l 1,0,-1
EndSplineSet
Validated: 1
EndChar

StartChar: oslash
Encoding: 248 248 232
Width: 600
GlyphClass: 2
Flags: W
LayerCount: 2
Fore
SplineSet
131 -25 m 1,0,-1
 51 -25 l 1,1,-1
 116 63 l 1,2,3
 82 99 82 99 63 149 c 128,-1,4
 44 199 44 199 44 258 c 256,5,6
 44 317 44 317 63.5 367 c 128,-1,7
 83 417 83 417 117.5 453.5 c 128,-1,8
 152 490 152 490 199 510.5 c 128,-1,9
 246 531 246 531 301 531 c 0,10,11
 338 531 338 531 372 521.5 c 128,-1,12
 406 512 406 512 434 494 c 1,13,-1
 469 541 l 1,14,-1
 549 541 l 1,15,-1
 484 453 l 1,16,17
 518 417 518 417 537 367 c 128,-1,18
 556 317 556 317 556 258 c 256,19,20
 556 199 556 199 536.5 149 c 128,-1,21
 517 99 517 99 482.5 62.5 c 128,-1,22
 448 26 448 26 401 5.5 c 128,-1,23
 354 -15 354 -15 299 -15 c 0,24,25
 262 -15 262 -15 228 -5.5 c 128,-1,26
 194 4 194 4 166 22 c 1,27,-1
 131 -25 l 1,0,-1
124 258 m 0,28,29
 124 219 124 219 134.5 186 c 128,-1,30
 145 153 145 153 163 127 c 1,31,-1
 390 434 l 1,32,33
 371 447 371 447 348 453.5 c 128,-1,34
 325 460 325 460 300 460 c 0,35,36
 262 460 262 460 229.5 445 c 128,-1,37
 197 430 197 430 173.5 403 c 128,-1,38
 150 376 150 376 137 339 c 128,-1,39
 124 302 124 302 124 258 c 0,28,29
300 56 m 0,40,41
 338 56 338 56 370.5 71 c 128,-1,42
 403 86 403 86 426.5 113 c 128,-1,43
 450 140 450 140 463 177 c 128,-1,44
 476 214 476 214 476 258 c 0,45,46
 476 297 476 297 465.5 330 c 128,-1,47
 455 363 455 363 437 389 c 1,48,-1
 210 82 l 1,49,50
 229 69 229 69 252 62.5 c 128,-1,51
 275 56 275 56 300 56 c 0,40,41
EndSplineSet
Validated: 1
EndChar

StartChar: uni0327
Encoding: 807 807 233
Width: 0
GlyphClass: 4
Flags: W
AnchorPoint: "Anchor-0" 0 -50 mark 0
LayerCount: 2
Fore
SplineSet
-25 11 m 1,0,-1
 31 11 l 1,1,-1
 14 -51 l 1,2,3
 36 -55 36 -55 53 -67 c 128,-1,4
 70 -79 70 -79 80 -95.5 c 128,-1,5
 90 -112 90 -112 90 -132 c 0,6,7
 90 -158 90 -158 75 -178.5 c 128,-1,8
 60 -199 60 -199 34 -210.5 c 128,-1,9
 8 -222 8 -222 -26 -222 c 0,10,11
 -68 -222 -68 -222 -101 -207 c 1,12,-1
 -86 -154 l 1,13,14
 -55 -164 -55 -164 -31 -164 c 0,15,16
 -8 -164 -8 -164 5.5 -154.5 c 128,-1,17
 19 -145 19 -145 19 -129 c 0,18,19
 19 -90 19 -90 -54 -90 c 1,20,-1
 -25 11 l 1,0,-1
EndSplineSet
Validated: 1
EndChar

StartChar: glyph234
Encoding: 65576 -1 234
Width: 0
GlyphClass: 4
Flags: W
AnchorPoint: "Anchor-1" 0 -50 mark 0
LayerCount: 2
Fore
SplineSet
-21 7 m 1,0,-1
 37 7 l 1,1,-1
 19 -57 l 1,2,3
 41 -61 41 -61 58 -73 c 128,-1,4
 75 -85 75 -85 85 -101.5 c 128,-1,5
 95 -118 95 -118 95 -138 c 0,6,7
 95 -165 95 -165 80 -185.5 c 128,-1,8
 65 -206 65 -206 38.5 -217.5 c 128,-1,9
 12 -229 12 -229 -22 -229 c 0,10,11
 -68 -229 -68 -229 -102 -214 c 1,12,-1
 -87 -159 l 1,13,14
 -70 -165 -70 -165 -55.5 -167.5 c 128,-1,15
 -41 -170 -41 -170 -28 -170 c 0,16,17
 -6 -170 -6 -170 8.5 -160.5 c 128,-1,18
 23 -151 23 -151 23 -135 c 0,19,20
 23 -116 23 -116 4 -106 c 128,-1,21
 -15 -96 -15 -96 -51 -96 c 1,22,-1
 -21 7 l 1,0,-1
EndSplineSet
Validated: 1
EndChar

StartChar: uni0326
Encoding: 806 806 236
Width: 0
GlyphClass: 4
Flags: W
AnchorPoint: "Anchor-0" 0 -50 mark 0
LayerCount: 2
Fore
SplineSet
-29 -242 m 1,0,-1
 -48 -198 l 1,1,2
 -24 -187 -24 -187 -10.5 -170.5 c 128,-1,3
 3 -154 3 -154 3 -138 c 1,4,5
 -5 -143 -5 -143 -16 -143 c 0,6,7
 -32 -143 -32 -143 -43 -131.5 c 128,-1,8
 -54 -120 -54 -120 -54 -102 c 0,9,10
 -54 -83 -54 -83 -40.5 -70.5 c 128,-1,11
 -27 -58 -27 -58 -5 -58 c 0,12,13
 12 -58 12 -58 26 -67.5 c 128,-1,14
 40 -77 40 -77 48 -93.5 c 128,-1,15
 56 -110 56 -110 56 -131 c 0,16,17
 56 -168 56 -168 33 -197.5 c 128,-1,18
 10 -227 10 -227 -29 -242 c 1,0,-1
EndSplineSet
Validated: 1
EndChar

StartChar: glyph237
Encoding: 65577 -1 237
Width: 0
GlyphClass: 4
Flags: W
AnchorPoint: "Anchor-1" 0 -50 mark 0
LayerCount: 2
Fore
SplineSet
-31 -254 m 1,0,-1
 -50 -211 l 1,1,2
 -26 -199 -26 -199 -12.5 -183.5 c 128,-1,3
 1 -168 1 -168 1 -152 c 1,4,5
 -7 -157 -7 -157 -18 -157 c 0,6,7
 -34 -157 -34 -157 -45 -145 c 128,-1,8
 -56 -133 -56 -133 -56 -115 c 0,9,10
 -56 -96 -56 -96 -42 -83 c 128,-1,11
 -28 -70 -28 -70 -6 -70 c 0,12,13
 12 -70 12 -70 26 -79.5 c 128,-1,14
 40 -89 40 -89 48 -106 c 128,-1,15
 56 -123 56 -123 56 -143 c 0,16,17
 56 -180 56 -180 33 -209.5 c 128,-1,18
 10 -239 10 -239 -31 -254 c 1,0,-1
EndSplineSet
Validated: 1
EndChar

StartChar: uni0312
Encoding: 786 786 238
Width: 0
GlyphClass: 4
Flags: W
AnchorPoint: "Anchor-10" 0 562 mark 0
AnchorPoint: "Anchor-6" 0 562 mark 0
LayerCount: 2
Fore
SplineSet
7 581 m 0,0,1
 -10 581 -10 581 -24 590.5 c 128,-1,2
 -38 600 -38 600 -46 617 c 128,-1,3
 -54 634 -54 634 -54 654 c 0,4,5
 -54 691 -54 691 -31 720.5 c 128,-1,6
 -8 750 -8 750 31 765 c 1,7,-1
 50 721 l 1,8,9
 26 710 26 710 12.5 693.5 c 128,-1,10
 -1 677 -1 677 -1 661 c 1,11,12
 7 666 7 666 18 666 c 0,13,14
 34 666 34 666 45 654.5 c 128,-1,15
 56 643 56 643 56 625 c 0,16,17
 56 606 56 606 42.5 593.5 c 128,-1,18
 29 581 29 581 7 581 c 0,0,1
EndSplineSet
Validated: 1
EndChar

StartChar: uni0328
Encoding: 808 808 239
Width: 0
GlyphClass: 4
Flags: W
AnchorPoint: "Anchor-2" 0 -50 mark 0
LayerCount: 2
Fore
SplineSet
-66 -213 m 0,0,1
 -94 -213 -94 -213 -116.5 -202 c 128,-1,2
 -139 -191 -139 -191 -151.5 -171.5 c 128,-1,3
 -164 -152 -164 -152 -164 -127 c 0,4,5
 -164 -92 -164 -92 -137 -56 c 128,-1,6
 -110 -20 -110 -20 -51 23 c 1,7,-1
 0 0 l 1,8,9
 -49 -38 -49 -38 -72 -66.5 c 128,-1,10
 -95 -95 -95 -95 -95 -117 c 0,11,12
 -95 -134 -95 -134 -84 -144 c 128,-1,13
 -73 -154 -73 -154 -54 -154 c 0,14,15
 -40 -154 -40 -154 -25 -151 c 128,-1,16
 -10 -148 -10 -148 -1 -144 c 1,17,-1
 13 -197 l 1,18,19
 -8 -204 -8 -204 -28 -208.5 c 128,-1,20
 -48 -213 -48 -213 -66 -213 c 0,0,1
EndSplineSet
Validated: 1
EndChar

StartChar: glyph240
Encoding: 65578 -1 240
Width: 0
GlyphClass: 4
Flags: W
AnchorPoint: "Anchor-4" 0 -50 mark 0
LayerCount: 2
Fore
SplineSet
-67 -216 m 0,0,1
 -96 -216 -96 -216 -118.5 -205 c 128,-1,2
 -141 -194 -141 -194 -153.5 -174 c 128,-1,3
 -166 -154 -166 -154 -166 -128 c 0,4,5
 -166 -93 -166 -93 -139 -55.5 c 128,-1,6
 -112 -18 -112 -18 -54 23 c 1,7,-1
 0 0 l 1,8,9
 -49 -38 -49 -38 -72 -66.5 c 128,-1,10
 -95 -95 -95 -95 -95 -117 c 0,11,12
 -95 -134 -95 -134 -84 -144 c 128,-1,13
 -73 -154 -73 -154 -54 -154 c 0,14,15
 -41 -154 -41 -154 -26 -151 c 128,-1,16
 -11 -148 -11 -148 -1 -144 c 1,17,-1
 13 -199 l 1,18,19
 -6 -207 -6 -207 -27 -211.5 c 128,-1,20
 -48 -216 -48 -216 -67 -216 c 0,0,1
EndSplineSet
Validated: 1
EndChar

StartChar: glyph241
Encoding: 65579 -1 241
Width: 0
GlyphClass: 4
Flags: W
AnchorPoint: "Anchor-3" 0 -50 mark 0
LayerCount: 2
Fore
SplineSet
-58 -213 m 0,0,1
 -106 -213 -106 -213 -135 -188.5 c 128,-1,2
 -164 -164 -164 -164 -164 -123 c 0,3,4
 -164 -46 -164 -46 -47 45 c 1,5,-1
 7 47 l 1,6,7
 -45 -3 -45 -3 -70 -42.5 c 128,-1,8
 -95 -82 -95 -82 -95 -111 c 0,9,10
 -95 -131 -95 -131 -82 -142.5 c 128,-1,11
 -69 -154 -69 -154 -45 -154 c 0,12,13
 -34 -154 -34 -154 -21 -151 c 128,-1,14
 -8 -148 -8 -148 -1 -144 c 1,15,-1
 13 -197 l 1,16,17
 -4 -204 -4 -204 -22.5 -208.5 c 128,-1,18
 -41 -213 -41 -213 -58 -213 c 0,0,1
EndSplineSet
Validated: 1
EndChar

StartChar: glyph242
Encoding: 65580 -1 242
Width: 0
GlyphClass: 4
Flags: W
AnchorPoint: "Anchor-5" 0 -50 mark 0
LayerCount: 2
Fore
SplineSet
-65 -216 m 0,0,1
 -111 -216 -111 -216 -138.5 -190.5 c 128,-1,2
 -166 -165 -166 -165 -166 -122 c 0,3,4
 -166 -41 -166 -41 -48 54 c 1,5,-1
 7 56 l 1,6,7
 -45 3 -45 3 -70 -38 c 128,-1,8
 -95 -79 -95 -79 -95 -110 c 0,9,10
 -95 -130 -95 -130 -83.5 -142 c 128,-1,11
 -72 -154 -72 -154 -52 -154 c 0,12,13
 -39 -154 -39 -154 -24.5 -151 c 128,-1,14
 -10 -148 -10 -148 -1 -144 c 1,15,-1
 13 -199 l 1,16,17
 -5 -207 -5 -207 -25.5 -211.5 c 128,-1,18
 -46 -216 -46 -216 -65 -216 c 0,0,1
EndSplineSet
Validated: 1
EndChar

StartChar: acutecomb
Encoding: 769 769 269
Width: 0
GlyphClass: 4
Flags: W
AnchorPoint: "Anchor-10" 0 562 mark 0
AnchorPoint: "Anchor-6" 0 562 mark 0
LayerCount: 2
Fore
SplineSet
-74 599 m 1,0,-1
 45 742 l 1,1,-1
 140 742 l 1,2,-1
 6 599 l 1,3,-1
 -74 599 l 1,0,-1
EndSplineSet
Validated: 1
EndChar

StartChar: glyph270
Encoding: 65582 -1 270
Width: 0
GlyphClass: 4
Flags: W
AnchorPoint: "Anchor-11" 0 760 mark 0
AnchorPoint: "Anchor-7" 0 760 mark 0
LayerCount: 2
Fore
SplineSet
-86 789 m 1,0,-1
 50 910 l 1,1,-1
 158 910 l 1,2,-1
 4 789 l 1,3,-1
 -86 789 l 1,0,-1
EndSplineSet
Validated: 1
EndChar

StartChar: uni030B
Encoding: 779 779 272
Width: 0
GlyphClass: 4
Flags: W
AnchorPoint: "Anchor-10" 0 562 mark 0
AnchorPoint: "Anchor-6" 0 562 mark 0
LayerCount: 2
Fore
SplineSet
-128 599 m 1,0,-1
 -28 742 l 1,1,-1
 59 742 l 1,2,-1
 -56 599 l 1,3,-1
 -128 599 l 1,0,-1
25 599 m 1,4,-1
 125 742 l 1,5,-1
 212 742 l 1,6,-1
 97 599 l 1,7,-1
 25 599 l 1,4,-1
EndSplineSet
Validated: 1
EndChar

StartChar: glyph273
Encoding: 65583 -1 273
Width: 0
GlyphClass: 4
Flags: W
AnchorPoint: "Anchor-11" 0 760 mark 0
AnchorPoint: "Anchor-7" 0 760 mark 0
LayerCount: 2
Fore
SplineSet
-171 789 m 1,0,-1
 -29 910 l 1,1,-1
 75 910 l 1,2,-1
 -85 789 l 1,3,-1
 -171 789 l 1,0,-1
15 789 m 1,4,-1
 157 910 l 1,5,-1
 261 910 l 1,6,-1
 101 789 l 1,7,-1
 15 789 l 1,4,-1
EndSplineSet
Validated: 1
EndChar

StartChar: gravecomb
Encoding: 768 768 308
Width: 0
GlyphClass: 4
Flags: W
AnchorPoint: "Anchor-10" 0 562 mark 0
AnchorPoint: "Anchor-6" 0 562 mark 0
LayerCount: 2
Fore
SplineSet
-6 599 m 1,0,-1
 -140 742 l 1,1,-1
 -45 742 l 1,2,-1
 74 599 l 1,3,-1
 -6 599 l 1,0,-1
EndSplineSet
Validated: 1
EndChar

StartChar: glyph309
Encoding: 65587 -1 309
Width: 0
GlyphClass: 4
Flags: W
AnchorPoint: "Anchor-11" 0 760 mark 0
AnchorPoint: "Anchor-7" 0 760 mark 0
LayerCount: 2
Fore
SplineSet
-4 789 m 1,0,-1
 -158 910 l 1,1,-1
 -50 910 l 1,2,-1
 86 789 l 1,3,-1
 -4 789 l 1,0,-1
EndSplineSet
Validated: 1
EndChar

StartChar: uni0302
Encoding: 770 770 327
Width: 0
GlyphClass: 4
Flags: W
AnchorPoint: "Anchor-10" 0 562 mark 0
AnchorPoint: "Anchor-6" 0 562 mark 0
LayerCount: 2
Fore
SplineSet
-156 599 m 1,0,-1
 -34 742 l 1,1,-1
 35 742 l 1,2,-1
 157 599 l 1,3,-1
 79 599 l 1,4,-1
 0 685 l 1,5,-1
 -80 599 l 1,6,-1
 -156 599 l 1,0,-1
EndSplineSet
Validated: 1
EndChar

StartChar: glyph328
Encoding: 65589 -1 328
Width: 0
GlyphClass: 4
Flags: W
AnchorPoint: "Anchor-11" 0 760 mark 0
AnchorPoint: "Anchor-7" 0 760 mark 0
LayerCount: 2
Fore
SplineSet
-183 789 m 1,0,-1
 -41 910 l 1,1,-1
 42 910 l 1,2,-1
 184 789 l 1,3,-1
 94 789 l 1,4,-1
 0 860 l 1,5,-1
 -95 789 l 1,6,-1
 -183 789 l 1,0,-1
EndSplineSet
Validated: 1
EndChar

StartChar: tildecomb
Encoding: 771 771 330
Width: 0
GlyphClass: 4
Flags: W
AnchorPoint: "Anchor-10" 0 562 mark 0
AnchorPoint: "Anchor-6" 0 562 mark 0
LayerCount: 2
Fore
SplineSet
62 595 m 0,0,1
 40 595 40 595 23.5 602.5 c 128,-1,2
 7 610 7 610 -6.5 620.5 c 128,-1,3
 -20 631 -20 631 -32.5 638.5 c 128,-1,4
 -45 646 -45 646 -57 646 c 0,5,6
 -87 646 -87 646 -96 599 c 1,7,-1
 -157 599 l 1,8,9
 -150 654 -150 654 -124 682 c 128,-1,10
 -98 710 -98 710 -61 710 c 0,11,12
 -39 710 -39 710 -22.5 702.5 c 128,-1,13
 -6 695 -6 695 7.5 684.5 c 128,-1,14
 21 674 21 674 33.5 666.5 c 128,-1,15
 46 659 46 659 58 659 c 0,16,17
 88 659 88 659 97 706 c 1,18,-1
 158 706 l 1,19,20
 151 651 151 651 125.5 623 c 128,-1,21
 100 595 100 595 62 595 c 0,0,1
EndSplineSet
Validated: 1
EndChar

StartChar: glyph331
Encoding: 65590 -1 331
Width: 0
GlyphClass: 4
Flags: W
AnchorPoint: "Anchor-11" 0 760 mark 0
AnchorPoint: "Anchor-7" 0 760 mark 0
LayerCount: 2
Fore
SplineSet
72 788 m 0,0,1
 48 788 48 788 29 796 c 128,-1,2
 10 804 10 804 -5.5 814.5 c 128,-1,3
 -21 825 -21 825 -36 833 c 128,-1,4
 -51 841 -51 841 -66 841 c 0,5,6
 -84 841 -84 841 -97 828.5 c 128,-1,7
 -110 816 -110 816 -115 793 c 1,8,-1
 -178 793 l 1,9,10
 -170 846 -170 846 -141.5 876 c 128,-1,11
 -113 906 -113 906 -70 906 c 0,12,13
 -46 906 -46 906 -27.5 898 c 128,-1,14
 -9 890 -9 890 6.5 879.5 c 128,-1,15
 22 869 22 869 37 861 c 128,-1,16
 52 853 52 853 67 853 c 0,17,18
 85 853 85 853 98 865.5 c 128,-1,19
 111 878 111 878 116 901 c 1,20,-1
 179 901 l 1,21,22
 172 848 172 848 143 818 c 128,-1,23
 114 788 114 788 72 788 c 0,0,1
EndSplineSet
Validated: 1
EndChar

StartChar: uni030C
Encoding: 780 780 359
Width: 0
GlyphClass: 4
Flags: W
AnchorPoint: "Anchor-10" 0 562 mark 0
AnchorPoint: "Anchor-6" 0 562 mark 0
LayerCount: 2
Fore
SplineSet
-34 599 m 1,0,-1
 -156 742 l 1,1,-1
 -78 742 l 1,2,-1
 1 656 l 1,3,-1
 81 742 l 1,4,-1
 157 742 l 1,5,-1
 35 599 l 1,6,-1
 -34 599 l 1,0,-1
EndSplineSet
Validated: 1
EndChar

StartChar: glyph360
Encoding: 65593 -1 360
Width: 0
GlyphClass: 4
Flags: W
AnchorPoint: "Anchor-11" 0 760 mark 0
AnchorPoint: "Anchor-7" 0 760 mark 0
LayerCount: 2
Fore
SplineSet
-41 789 m 1,0,-1
 -183 910 l 1,1,-1
 -93 910 l 1,2,-1
 2 839 l 1,3,-1
 96 910 l 1,4,-1
 184 910 l 1,5,-1
 42 789 l 1,6,-1
 -41 789 l 1,0,-1
EndSplineSet
Validated: 1
EndChar

StartChar: uni0315
Encoding: 789 789 362
Width: 0
GlyphClass: 4
Flags: W
AnchorPoint: "Anchor-8" 0 790 mark 0
LayerCount: 2
Fore
SplineSet
75 564 m 1,0,-1
 94 742 l 1,1,-1
 166 742 l 1,2,-1
 130 564 l 1,3,-1
 75 564 l 1,0,-1
EndSplineSet
Validated: 1
EndChar

StartChar: glyph363
Encoding: 65594 -1 363
Width: 0
GlyphClass: 4
Flags: W
AnchorPoint: "Anchor-9" 0 790 mark 0
LayerCount: 2
Fore
SplineSet
78 589 m 1,0,-1
 94 742 l 1,1,-1
 166 742 l 1,2,-1
 133 589 l 1,3,-1
 78 589 l 1,0,-1
EndSplineSet
Validated: 1
EndChar

StartChar: uni0304
Encoding: 772 772 364
Width: 0
GlyphClass: 4
Flags: W
AnchorPoint: "Anchor-10" 0 562 mark 0
AnchorPoint: "Anchor-6" 0 562 mark 0
LayerCount: 2
Fore
SplineSet
-146 611 m 1,0,-1
 -146 675 l 1,1,-1
 146 675 l 1,2,-1
 146 611 l 1,3,-1
 -146 611 l 1,0,-1
EndSplineSet
Validated: 1
EndChar

StartChar: glyph365
Encoding: 65595 -1 365
Width: 0
GlyphClass: 4
Flags: W
AnchorPoint: "Anchor-11" 0 760 mark 0
AnchorPoint: "Anchor-7" 0 760 mark 0
LayerCount: 2
Fore
SplineSet
-166 794 m 1,0,-1
 -166 859 l 1,1,-1
 166 859 l 1,2,-1
 166 794 l 1,3,-1
 -166 794 l 1,0,-1
EndSplineSet
Validated: 1
EndChar

StartChar: uni0308
Encoding: 776 776 395
Width: 0
GlyphClass: 4
Flags: W
AnchorPoint: "Anchor-10" 0 562 mark 0
AnchorPoint: "Anchor-6" 0 562 mark 0
LayerCount: 2
Fore
SplineSet
-95 615 m 256,0,1
 -118 615 -118 615 -133 630 c 128,-1,2
 -148 645 -148 645 -148 667 c 256,3,4
 -148 689 -148 689 -133 704 c 128,-1,5
 -118 719 -118 719 -95 719 c 256,6,7
 -72 719 -72 719 -57 704 c 128,-1,8
 -42 689 -42 689 -42 667 c 256,9,10
 -42 645 -42 645 -57 630 c 128,-1,11
 -72 615 -72 615 -95 615 c 256,0,1
95 615 m 256,12,13
 72 615 72 615 57 630 c 128,-1,14
 42 645 42 645 42 667 c 256,15,16
 42 689 42 689 57 704 c 128,-1,17
 72 719 72 719 95 719 c 256,18,19
 118 719 118 719 133 704 c 128,-1,20
 148 689 148 689 148 667 c 256,21,22
 148 645 148 645 133 630 c 128,-1,23
 118 615 118 615 95 615 c 256,12,13
EndSplineSet
Validated: 1
EndChar

StartChar: glyph396
Encoding: 65597 -1 396
Width: 0
GlyphClass: 4
Flags: W
AnchorPoint: "Anchor-11" 0 760 mark 0
AnchorPoint: "Anchor-7" 0 760 mark 0
LayerCount: 2
Fore
SplineSet
-108 789 m 256,0,1
 -131 789 -131 789 -146.5 804.5 c 128,-1,2
 -162 820 -162 820 -162 842 c 256,3,4
 -162 864 -162 864 -146.5 879.5 c 128,-1,5
 -131 895 -131 895 -108 895 c 256,6,7
 -85 895 -85 895 -69.5 879.5 c 128,-1,8
 -54 864 -54 864 -54 842 c 256,9,10
 -54 820 -54 820 -69.5 804.5 c 128,-1,11
 -85 789 -85 789 -108 789 c 256,0,1
109 789 m 256,12,13
 86 789 86 789 70.5 804.5 c 128,-1,14
 55 820 55 820 55 842 c 256,15,16
 55 864 55 864 70.5 879.5 c 128,-1,17
 86 895 86 895 109 895 c 256,18,19
 132 895 132 895 147.5 879.5 c 128,-1,20
 163 864 163 864 163 842 c 256,21,22
 163 820 163 820 147.5 804.5 c 128,-1,23
 132 789 132 789 109 789 c 256,12,13
EndSplineSet
Validated: 1
EndChar

StartChar: uni0306
Encoding: 774 774 398
Width: 0
GlyphClass: 4
Flags: W
AnchorPoint: "Anchor-10" 0 562 mark 0
AnchorPoint: "Anchor-6" 0 562 mark 0
LayerCount: 2
Fore
SplineSet
0 598 m 256,0,1
 -40 598 -40 598 -71 613.5 c 128,-1,2
 -102 629 -102 629 -122.5 657.5 c 128,-1,3
 -143 686 -143 686 -150 725 c 1,4,-1
 -82 725 l 1,5,6
 -74 692 -74 692 -53 675 c 128,-1,7
 -32 658 -32 658 0 658 c 256,8,9
 32 658 32 658 53 675 c 128,-1,10
 74 692 74 692 82 725 c 1,11,-1
 150 725 l 1,12,13
 143 686 143 686 122.5 657.5 c 128,-1,14
 102 629 102 629 71 613.5 c 128,-1,15
 40 598 40 598 0 598 c 256,0,1
EndSplineSet
Validated: 1
EndChar

StartChar: glyph399
Encoding: 65598 -1 399
Width: 0
GlyphClass: 4
Flags: W
AnchorPoint: "Anchor-11" 0 760 mark 0
AnchorPoint: "Anchor-7" 0 760 mark 0
LayerCount: 2
Fore
SplineSet
0 784 m 256,0,1
 -42 784 -42 784 -75.5 799.5 c 128,-1,2
 -109 815 -109 815 -131 843.5 c 128,-1,3
 -153 872 -153 872 -160 912 c 1,4,-1
 -90 912 l 1,5,6
 -81 880 -81 880 -57.5 862.5 c 128,-1,7
 -34 845 -34 845 0 845 c 256,8,9
 34 845 34 845 57.5 862.5 c 128,-1,10
 81 880 81 880 90 912 c 1,11,-1
 160 912 l 1,12,13
 153 872 153 872 131 843.5 c 128,-1,14
 109 815 109 815 75.5 799.5 c 128,-1,15
 42 784 42 784 0 784 c 256,0,1
EndSplineSet
Validated: 1
EndChar

StartChar: uni0307
Encoding: 775 775 421
Width: 0
GlyphClass: 4
Flags: W
AnchorPoint: "Anchor-10" 0 562 mark 0
AnchorPoint: "Anchor-6" 0 562 mark 0
LayerCount: 2
Fore
SplineSet
55 667 m 256,0,1
 55 652 55 652 47.5 639.5 c 128,-1,2
 40 627 40 627 27.5 619.5 c 128,-1,3
 15 612 15 612 0 612 c 256,4,5
 -15 612 -15 612 -27.5 619.5 c 128,-1,6
 -40 627 -40 627 -47.5 639.5 c 128,-1,7
 -55 652 -55 652 -55 667 c 256,8,9
 -55 682 -55 682 -47.5 694.5 c 128,-1,10
 -40 707 -40 707 -27.5 714.5 c 128,-1,11
 -15 722 -15 722 0 722 c 256,12,13
 15 722 15 722 27.5 714.5 c 128,-1,14
 40 707 40 707 47.5 694.5 c 128,-1,15
 55 682 55 682 55 667 c 256,0,1
EndSplineSet
Validated: 1
EndChar

StartChar: glyph422
Encoding: 65601 -1 422
Width: 0
GlyphClass: 4
Flags: W
AnchorPoint: "Anchor-11" 0 760 mark 0
AnchorPoint: "Anchor-7" 0 760 mark 0
LayerCount: 2
Fore
SplineSet
0 789 m 256,0,1
 -16 789 -16 789 -28.5 796.5 c 128,-1,2
 -41 804 -41 804 -49 817 c 128,-1,3
 -57 830 -57 830 -57 845 c 256,4,5
 -57 860 -57 860 -49 873 c 128,-1,6
 -41 886 -41 886 -28.5 893.5 c 128,-1,7
 -16 901 -16 901 0 901 c 256,8,9
 16 901 16 901 28.5 893.5 c 128,-1,10
 41 886 41 886 49 873 c 128,-1,11
 57 860 57 860 57 845 c 256,12,13
 57 830 57 830 49 817 c 128,-1,14
 41 804 41 804 28.5 796.5 c 128,-1,15
 16 789 16 789 0 789 c 256,0,1
EndSplineSet
Validated: 1
EndChar

StartChar: dotbelowcomb
Encoding: 803 803 424
Width: 0
GlyphClass: 4
Flags: W
AnchorPoint: "Anchor-0" 0 -50 mark 0
LayerCount: 2
Fore
SplineSet
55 -151 m 256,0,1
 55 -166 55 -166 47.5 -178.5 c 128,-1,2
 40 -191 40 -191 27.5 -198.5 c 128,-1,3
 15 -206 15 -206 0 -206 c 256,4,5
 -15 -206 -15 -206 -27.5 -198.5 c 128,-1,6
 -40 -191 -40 -191 -47.5 -178.5 c 128,-1,7
 -55 -166 -55 -166 -55 -151 c 256,8,9
 -55 -136 -55 -136 -47.5 -123.5 c 128,-1,10
 -40 -111 -40 -111 -27.5 -103.5 c 128,-1,11
 -15 -96 -15 -96 0 -96 c 256,12,13
 15 -96 15 -96 27.5 -103.5 c 128,-1,14
 40 -111 40 -111 47.5 -123.5 c 128,-1,15
 55 -136 55 -136 55 -151 c 256,0,1
EndSplineSet
Validated: 1
EndChar

StartChar: glyph425
Encoding: 65602 -1 425
Width: 0
GlyphClass: 4
Flags: W
AnchorPoint: "Anchor-1" 0 -50 mark 0
LayerCount: 2
Fore
SplineSet
0 -213 m 256,0,1
 -16 -213 -16 -213 -28.5 -205.5 c 128,-1,2
 -41 -198 -41 -198 -49 -185 c 128,-1,3
 -57 -172 -57 -172 -57 -157 c 256,4,5
 -57 -142 -57 -142 -49 -129 c 128,-1,6
 -41 -116 -41 -116 -28.5 -108.5 c 128,-1,7
 -16 -101 -16 -101 0 -101 c 256,8,9
 16 -101 16 -101 28.5 -108.5 c 128,-1,10
 41 -116 41 -116 49 -129 c 128,-1,11
 57 -142 57 -142 57 -157 c 256,12,13
 57 -172 57 -172 49 -185 c 128,-1,14
 41 -198 41 -198 28.5 -205.5 c 128,-1,15
 16 -213 16 -213 0 -213 c 256,0,1
EndSplineSet
Validated: 1
EndChar

StartChar: uni030A
Encoding: 778 778 439
Width: 0
GlyphClass: 4
Flags: W
AnchorPoint: "Anchor-10" 0 562 mark 0
AnchorPoint: "Anchor-6" 0 562 mark 0
LayerCount: 2
Fore
SplineSet
0 572 m 256,0,1
 -28 572 -28 572 -51 585 c 128,-1,2
 -74 598 -74 598 -87.5 620.5 c 128,-1,3
 -101 643 -101 643 -101 670 c 256,4,5
 -101 697 -101 697 -87.5 719.5 c 128,-1,6
 -74 742 -74 742 -51 755 c 128,-1,7
 -28 768 -28 768 0 768 c 256,8,9
 28 768 28 768 51 755 c 128,-1,10
 74 742 74 742 87.5 719.5 c 128,-1,11
 101 697 101 697 101 670 c 256,12,13
 101 643 101 643 87.5 620.5 c 128,-1,14
 74 598 74 598 51 585 c 128,-1,15
 28 572 28 572 0 572 c 256,0,1
0 620 m 256,16,17
 20 620 20 620 34.5 634.5 c 128,-1,18
 49 649 49 649 49 670 c 256,19,20
 49 691 49 691 34.5 705.5 c 128,-1,21
 20 720 20 720 0 720 c 256,22,23
 -20 720 -20 720 -34.5 705.5 c 128,-1,24
 -49 691 -49 691 -49 670 c 256,25,26
 -49 649 -49 649 -34.5 634.5 c 128,-1,27
 -20 620 -20 620 0 620 c 256,16,17
EndSplineSet
Validated: 1
EndChar

StartChar: glyph440
Encoding: 65603 -1 440
Width: 0
GlyphClass: 4
Flags: W
AnchorPoint: "Anchor-11" 0 760 mark 0
AnchorPoint: "Anchor-7" 0 760 mark 0
LayerCount: 2
Fore
SplineSet
0 751 m 256,0,1
 -28 751 -28 751 -51 764.5 c 128,-1,2
 -74 778 -74 778 -87.5 800 c 128,-1,3
 -101 822 -101 822 -101 849 c 256,4,5
 -101 876 -101 876 -87.5 898 c 128,-1,6
 -74 920 -74 920 -51 933.5 c 128,-1,7
 -28 947 -28 947 0 947 c 256,8,9
 28 947 28 947 51 933.5 c 128,-1,10
 74 920 74 920 87.5 898 c 128,-1,11
 101 876 101 876 101 849 c 256,12,13
 101 822 101 822 87.5 800 c 128,-1,14
 74 778 74 778 51 764.5 c 128,-1,15
 28 751 28 751 0 751 c 256,0,1
0 801 m 256,16,17
 19 801 19 801 33 815 c 128,-1,18
 47 829 47 829 47 849 c 256,19,20
 47 869 47 869 33 883 c 128,-1,21
 19 897 19 897 0 897 c 256,22,23
 -19 897 -19 897 -33 883 c 128,-1,24
 -47 869 -47 869 -47 849 c 256,25,26
 -47 829 -47 829 -33 815 c 128,-1,27
 -19 801 -19 801 0 801 c 256,16,17
EndSplineSet
Validated: 1
EndChar

StartChar: colon_B_e_l_o_colon.dlig
Encoding: 65605 -1 447
Width: 781
GlyphClass: 2
Flags: W
LayerCount: 2
Fore
SplineSet
390 92 m 1,0,1
 297 -10 297 -10 207 -10 c 0,2,3
 174 -10 174 -10 145.5 2 c 128,-1,4
 117 14 117 14 95.5 35 c 128,-1,5
 74 56 74 56 61.5 84 c 128,-1,6
 49 112 49 112 49 144 c 0,7,8
 49 164 49 164 55.5 186.5 c 128,-1,9
 62 209 62 209 77 243 c 0,10,11
 88 268 88 268 104 301.5 c 128,-1,12
 120 335 120 335 138.5 373.5 c 128,-1,13
 157 412 157 412 176.5 451.5 c 128,-1,14
 196 491 196 491 214.5 527.5 c 128,-1,15
 233 564 233 564 248 593.5 c 128,-1,16
 263 623 263 623 273 642 c 0,17,18
 316 720 316 720 390 720 c 0,19,20
 428 720 428 720 456.5 701 c 128,-1,21
 485 682 485 682 507 642 c 0,22,23
 517 623 517 623 532 593.5 c 128,-1,24
 547 564 547 564 565.5 527.5 c 128,-1,25
 584 491 584 491 603.5 451.5 c 128,-1,26
 623 412 623 412 641.5 373.5 c 128,-1,27
 660 335 660 335 676 301.5 c 128,-1,28
 692 268 692 268 703 243 c 0,29,30
 718 209 718 209 724.5 186.5 c 128,-1,31
 731 164 731 164 731 144 c 0,32,33
 731 112 731 112 718.5 84 c 128,-1,34
 706 56 706 56 684.5 35 c 128,-1,35
 663 14 663 14 634.5 2 c 128,-1,36
 606 -10 606 -10 573 -10 c 0,37,38
 483 -10 483 -10 390 92 c 1,0,1
390 674 m 256,39,40
 364 674 364 674 347 661 c 128,-1,41
 330 648 330 648 312 616 c 0,42,43
 304 602 304 602 289.5 573.5 c 128,-1,44
 275 545 275 545 256.5 508.5 c 128,-1,45
 238 472 238 472 218.5 431.5 c 128,-1,46
 199 391 199 391 180 352 c 128,-1,47
 161 313 161 313 145.5 279.5 c 128,-1,48
 130 246 130 246 120 224 c 0,49,50
 106 193 106 193 101 176.5 c 128,-1,51
 96 160 96 160 96 144 c 0,52,53
 96 115 96 115 111 90.5 c 128,-1,54
 126 66 126 66 151 51 c 128,-1,55
 176 36 176 36 206 36 c 0,56,57
 278 36 278 36 359 128 c 1,58,59
 265 243 265 243 265 328 c 0,60,61
 265 364 265 364 281.5 392.5 c 128,-1,62
 298 421 298 421 326 437.5 c 128,-1,63
 354 454 354 454 390 454 c 256,64,65
 426 454 426 454 454 437.5 c 128,-1,66
 482 421 482 421 498.5 392.5 c 128,-1,67
 515 364 515 364 515 328 c 0,68,69
 515 243 515 243 421 128 c 1,70,71
 502 36 502 36 574 36 c 0,72,73
 604 36 604 36 629 51 c 128,-1,74
 654 66 654 66 669 90.5 c 128,-1,75
 684 115 684 115 684 144 c 0,76,77
 684 160 684 160 679 176.5 c 128,-1,78
 674 193 674 193 660 224 c 0,79,80
 650 246 650 246 634.5 279.5 c 128,-1,81
 619 313 619 313 600 352 c 128,-1,82
 581 391 581 391 561.5 431.5 c 128,-1,83
 542 472 542 472 523.5 508.5 c 128,-1,84
 505 545 505 545 490.5 573.5 c 128,-1,85
 476 602 476 602 468 616 c 0,86,87
 450 648 450 648 433 661 c 128,-1,88
 416 674 416 674 390 674 c 256,39,40
390 407 m 256,89,90
 356 407 356 407 334 385.5 c 128,-1,91
 312 364 312 364 312 330 c 0,92,93
 312 298 312 298 332 254.5 c 128,-1,94
 352 211 352 211 390 164 c 1,95,96
 428 211 428 211 448 254.5 c 128,-1,97
 468 298 468 298 468 330 c 0,98,99
 468 364 468 364 446 385.5 c 128,-1,100
 424 407 424 407 390 407 c 256,89,90
EndSplineSet
Validated: 1
Ligature2: "'dlig' Discretionary Ligatures in Latin lookup 24 subtable" colon b eacute l o colon
Ligature2: "'dlig' Discretionary Ligatures in Latin lookup 24 subtable" colon b e l o colon
Ligature2: "'dlig' Discretionary Ligatures in Latin lookup 24 subtable" colon B eacute l o colon
Ligature2: "'dlig' Discretionary Ligatures in Latin lookup 24 subtable" colon B e l o colon
EndChar

StartChar: uniFFFD
Encoding: 65533 65533 449
Width: 808
GlyphClass: 2
Flags: W
LayerCount: 2
Fore
SplineSet
404 -34 m 1,0,-1
 15 355 l 1,1,-1
 404 744 l 1,2,-1
 793 355 l 1,3,-1
 404 -34 l 1,0,-1
374 226 m 1,4,-1
 423 226 l 1,5,-1
 423 298 l 1,6,7
 481 315 481 315 513.5 353.5 c 128,-1,8
 546 392 546 392 546 442 c 0,9,10
 546 478 546 478 527.5 507.5 c 128,-1,11
 509 537 509 537 476.5 554 c 128,-1,12
 444 571 444 571 404 571 c 0,13,14
 369 571 369 571 339.5 558 c 128,-1,15
 310 545 310 545 289 521 c 128,-1,16
 268 497 268 497 260 464 c 1,17,-1
 307 450 l 1,18,19
 317 485 317 485 342.5 505 c 128,-1,20
 368 525 368 525 402 525 c 0,21,22
 428 525 428 525 448.5 513.5 c 128,-1,23
 469 502 469 502 480.5 482 c 128,-1,24
 492 462 492 462 492 437 c 0,25,26
 492 396 492 396 461.5 368 c 128,-1,27
 431 340 431 340 374 326 c 1,28,-1
 374 226 l 1,4,-1
399 102 m 0,29,30
 413 102 413 102 424 113 c 128,-1,31
 435 124 435 124 435 139 c 256,32,33
 435 154 435 154 424.5 165 c 128,-1,34
 414 176 414 176 399 176 c 256,35,36
 384 176 384 176 373 165.5 c 128,-1,37
 362 155 362 155 362 139 c 0,38,39
 362 124 362 124 373 113 c 128,-1,40
 384 102 384 102 399 102 c 0,29,30
EndSplineSet
Validated: 1
EndChar
